M48
; DRILL file {KiCad 5.1.9-73d0e3b20d~88~ubuntu20.04.1} date Thu Jan 21 11:25:06 2021
; FORMAT={-:-/ absolute / inch / decimal}
; #@! TF.CreationDate,2021-01-21T11:25:06+01:00
; #@! TF.GenerationSoftware,Kicad,Pcbnew,5.1.9-73d0e3b20d~88~ubuntu20.04.1
; #@! TF.FileFunction,Plated,1,2,PTH
FMAT,2
INCH
T1C0.0157
T2C0.0630
T3C0.0709
%
G90
G05
T1
X5.5555Y-3.9783
X5.5654Y-3.7748
X5.5724Y-3.3413
X5.6276Y-3.259
X5.628Y-3.4024
X5.6406Y-3.5791
X5.6634Y-2.9547
X5.7209Y-3.6354
X5.7213Y-3.0008
X5.7504Y-2.9201
X5.7508Y-3.8744
X5.7713Y-4.1083
X5.7713Y-4.1583
X5.7713Y-4.2083
X5.7713Y-4.2583
X5.7713Y-4.3083
X5.7713Y-4.3583
X5.7799Y-3.3406
X5.7831Y-3.6031
X5.8118Y-4.1087
X5.8449Y-3.2665
X5.8618Y-4.1087
X5.876Y-3.8657
X5.8902Y-3.4307
X5.8913Y-3.5047
X5.8941Y-3.7949
X5.9059Y-3.3508
X5.9079Y-3.7362
X5.9118Y-4.1087
X5.9209Y-2.8996
X5.937Y-3.1354
X5.9543Y-2.9303
X5.9618Y-4.1087
X6.0118Y-4.1087
X6.0499Y-2.9365
X6.0618Y-4.1087
X6.0709Y-3.263
X6.0835Y-4.4453
X6.0969Y-3.126
X6.1118Y-4.1087
X6.1335Y-4.4453
X6.1437Y-2.9228
X6.1606Y-3.1815
X6.1618Y-4.1087
X6.165Y-3.0382
X6.1835Y-4.4453
X6.1839Y-3.2634
X6.1913Y-3.426
X6.2028Y-2.9581
X6.2118Y-4.1087
X6.2335Y-4.4453
X6.2378Y-3.5111
X6.2554Y-3.1103
X6.2567Y-3.0547
X6.2571Y-3.0035
X6.2586Y-2.8704
X6.2618Y-4.1087
X6.2686Y-3.2201
X6.2701Y-3.1555
X6.2782Y-3.5206
X6.2835Y-4.4453
X6.3054Y-3.4892
X6.3118Y-4.1087
X6.3205Y-3.4177
X6.3335Y-4.4453
X6.3547Y-3.6079
X6.3591Y-2.9917
X6.3618Y-4.1087
X6.3835Y-4.4453
X6.389Y-2.8853
X6.4118Y-4.1087
X6.4335Y-4.4453
X6.4374Y-3.1815
X6.4453Y-4.035
X6.448Y-3.9882
X6.4618Y-4.1087
X6.4835Y-4.4453
X6.5118Y-4.1087
X6.5335Y-4.4453
X6.5618Y-4.1087
T2
X5.8634Y-4.5594
T3
X5.7634Y-4.4594
X5.7634Y-4.6594
X5.9634Y-4.4594
X5.9634Y-4.6594
T0
M30
