G04 #@! TF.GenerationSoftware,KiCad,Pcbnew,(5.99.0-9801-g46d71f0d23)*
G04 #@! TF.CreationDate,2021-03-16T23:05:54+01:00*
G04 #@! TF.ProjectId,lorawan_e78-868ln22s_minipci,6c6f7261-7761-46e5-9f65-37382d383638,V1.0*
G04 #@! TF.SameCoordinates,Original*
G04 #@! TF.FileFunction,Paste,Top*
G04 #@! TF.FilePolarity,Positive*
%FSLAX46Y46*%
G04 Gerber Fmt 4.6, Leading zero omitted, Abs format (unit mm)*
G04 Created by KiCad (PCBNEW (5.99.0-9801-g46d71f0d23)) date 2021-03-16 23:05:54*
%MOMM*%
%LPD*%
G01*
G04 APERTURE LIST*
%ADD10R,0.600000X0.600000*%
%ADD11R,1.500000X0.800000*%
%ADD12C,1.000000*%
%ADD13R,1.000000X0.600000*%
%ADD14R,0.480000X0.880000*%
%ADD15R,1.000000X0.800000*%
%ADD16R,0.880000X0.480000*%
%ADD17O,0.600000X1.550000*%
%ADD18R,1.450000X0.450000*%
%ADD19R,0.600000X1.000000*%
G04 APERTURE END LIST*
D10*
X152600000Y-91120000D03*
D11*
X151450000Y-92340000D03*
X151450000Y-93610000D03*
X151450000Y-94880000D03*
X151450000Y-96150000D03*
X151450000Y-97420000D03*
X151450000Y-98690000D03*
X151450000Y-99960000D03*
X151450000Y-101230000D03*
X151450000Y-102500000D03*
X151450000Y-106800000D03*
X151450000Y-108070000D03*
X151450000Y-109340000D03*
X165450000Y-109340000D03*
X165450000Y-108070000D03*
X165450000Y-106800000D03*
X165450000Y-102500000D03*
X165450000Y-101230000D03*
X165450000Y-99960000D03*
X165450000Y-98690000D03*
X165450000Y-97420000D03*
X165450000Y-96150000D03*
X165450000Y-94880000D03*
X165450000Y-93610000D03*
X165450000Y-92340000D03*
D12*
X153470000Y-98680000D03*
X152950000Y-96830000D03*
X154410000Y-96090000D03*
X152950000Y-94240000D03*
D13*
X148230000Y-91390000D03*
X148230000Y-89990000D03*
X149660000Y-91390000D03*
X149660000Y-89990000D03*
D14*
X149320000Y-92750000D03*
X147920000Y-92750000D03*
D15*
X148310000Y-98280000D03*
X148310000Y-96680000D03*
D16*
X143690000Y-94280000D03*
X143690000Y-95680000D03*
X145090000Y-94290000D03*
X145090000Y-95690000D03*
D14*
X147480000Y-95160000D03*
X148880000Y-95160000D03*
X157330000Y-85570000D03*
X158730000Y-85570000D03*
D17*
X144955000Y-97350000D03*
X143685000Y-97350000D03*
X142415000Y-97350000D03*
X141145000Y-97350000D03*
X141145000Y-102750000D03*
X142415000Y-102750000D03*
X143685000Y-102750000D03*
X144955000Y-102750000D03*
D18*
X160640000Y-83595000D03*
X160640000Y-84245000D03*
X160640000Y-84895000D03*
X160640000Y-85545000D03*
X165040000Y-85545000D03*
X165040000Y-84895000D03*
X165040000Y-84245000D03*
X165040000Y-83595000D03*
D19*
X163500000Y-81950000D03*
X162100000Y-81950000D03*
X143970000Y-104650000D03*
X142570000Y-104650000D03*
D16*
X148510000Y-81890000D03*
X148510000Y-80490000D03*
M02*
