G04 #@! TF.GenerationSoftware,KiCad,Pcbnew,5.1.9-73d0e3b20d~88~ubuntu20.04.1*
G04 #@! TF.CreationDate,2021-01-21T11:53:33+01:00*
G04 #@! TF.ProjectId,lorawan_e78-868ln22s_minipci,6c6f7261-7761-46e5-9f65-37382d383638,V1.0*
G04 #@! TF.SameCoordinates,Original*
G04 #@! TF.FileFunction,Copper,L1,Top*
G04 #@! TF.FilePolarity,Positive*
%FSLAX46Y46*%
G04 Gerber Fmt 4.6, Leading zero omitted, Abs format (unit mm)*
G04 Created by KiCad (PCBNEW 5.1.9-73d0e3b20d~88~ubuntu20.04.1) date 2021-01-21 11:53:33*
%MOMM*%
%LPD*%
G01*
G04 APERTURE LIST*
G04 #@! TA.AperFunction,SMDPad,CuDef*
%ADD10R,1.450000X0.450000*%
G04 #@! TD*
G04 #@! TA.AperFunction,SMDPad,CuDef*
%ADD11R,1.000000X0.800000*%
G04 #@! TD*
G04 #@! TA.AperFunction,SMDPad,CuDef*
%ADD12R,0.600000X2.000000*%
G04 #@! TD*
G04 #@! TA.AperFunction,ComponentPad*
%ADD13C,2.600000*%
G04 #@! TD*
G04 #@! TA.AperFunction,ComponentPad*
%ADD14C,3.000000*%
G04 #@! TD*
G04 #@! TA.AperFunction,SMDPad,CuDef*
%ADD15R,1.500000X0.800000*%
G04 #@! TD*
G04 #@! TA.AperFunction,SMDPad,CuDef*
%ADD16R,0.600000X0.600000*%
G04 #@! TD*
G04 #@! TA.AperFunction,SMDPad,CuDef*
%ADD17C,1.524000*%
G04 #@! TD*
G04 #@! TA.AperFunction,SMDPad,CuDef*
%ADD18R,1.000000X0.600000*%
G04 #@! TD*
G04 #@! TA.AperFunction,SMDPad,CuDef*
%ADD19R,0.600000X1.000000*%
G04 #@! TD*
G04 #@! TA.AperFunction,SMDPad,CuDef*
%ADD20O,0.600000X1.550000*%
G04 #@! TD*
G04 #@! TA.AperFunction,SMDPad,CuDef*
%ADD21C,0.787400*%
G04 #@! TD*
G04 #@! TA.AperFunction,ViaPad*
%ADD22C,0.800000*%
G04 #@! TD*
G04 #@! TA.AperFunction,Conductor*
%ADD23C,0.254000*%
G04 #@! TD*
G04 #@! TA.AperFunction,Conductor*
%ADD24C,0.508000*%
G04 #@! TD*
G04 #@! TA.AperFunction,Conductor*
%ADD25C,0.100000*%
G04 #@! TD*
G04 APERTURE END LIST*
G04 #@! TA.AperFunction,SMDPad,CuDef*
G36*
G01*
X156232500Y-79820000D02*
X156007500Y-79820000D01*
G75*
G02*
X155895000Y-79707500I0J112500D01*
G01*
X155895000Y-79232500D01*
G75*
G02*
X156007500Y-79120000I112500J0D01*
G01*
X156232500Y-79120000D01*
G75*
G02*
X156345000Y-79232500I0J-112500D01*
G01*
X156345000Y-79707500D01*
G75*
G02*
X156232500Y-79820000I-112500J0D01*
G01*
G37*
G04 #@! TD.AperFunction*
G04 #@! TA.AperFunction,SMDPad,CuDef*
G36*
G01*
X157182500Y-79820000D02*
X156957500Y-79820000D01*
G75*
G02*
X156845000Y-79707500I0J112500D01*
G01*
X156845000Y-79232500D01*
G75*
G02*
X156957500Y-79120000I112500J0D01*
G01*
X157182500Y-79120000D01*
G75*
G02*
X157295000Y-79232500I0J-112500D01*
G01*
X157295000Y-79707500D01*
G75*
G02*
X157182500Y-79820000I-112500J0D01*
G01*
G37*
G04 #@! TD.AperFunction*
G04 #@! TA.AperFunction,SMDPad,CuDef*
G36*
G01*
X158132500Y-79820000D02*
X157907500Y-79820000D01*
G75*
G02*
X157795000Y-79707500I0J112500D01*
G01*
X157795000Y-79232500D01*
G75*
G02*
X157907500Y-79120000I112500J0D01*
G01*
X158132500Y-79120000D01*
G75*
G02*
X158245000Y-79232500I0J-112500D01*
G01*
X158245000Y-79707500D01*
G75*
G02*
X158132500Y-79820000I-112500J0D01*
G01*
G37*
G04 #@! TD.AperFunction*
G04 #@! TA.AperFunction,SMDPad,CuDef*
G36*
G01*
X158132500Y-82220000D02*
X157907500Y-82220000D01*
G75*
G02*
X157795000Y-82107500I0J112500D01*
G01*
X157795000Y-81632500D01*
G75*
G02*
X157907500Y-81520000I112500J0D01*
G01*
X158132500Y-81520000D01*
G75*
G02*
X158245000Y-81632500I0J-112500D01*
G01*
X158245000Y-82107500D01*
G75*
G02*
X158132500Y-82220000I-112500J0D01*
G01*
G37*
G04 #@! TD.AperFunction*
G04 #@! TA.AperFunction,SMDPad,CuDef*
G36*
G01*
X157182500Y-82220000D02*
X156957500Y-82220000D01*
G75*
G02*
X156845000Y-82107500I0J112500D01*
G01*
X156845000Y-81632500D01*
G75*
G02*
X156957500Y-81520000I112500J0D01*
G01*
X157182500Y-81520000D01*
G75*
G02*
X157295000Y-81632500I0J-112500D01*
G01*
X157295000Y-82107500D01*
G75*
G02*
X157182500Y-82220000I-112500J0D01*
G01*
G37*
G04 #@! TD.AperFunction*
G04 #@! TA.AperFunction,SMDPad,CuDef*
G36*
G01*
X156232500Y-82220000D02*
X156007500Y-82220000D01*
G75*
G02*
X155895000Y-82107500I0J112500D01*
G01*
X155895000Y-81632500D01*
G75*
G02*
X156007500Y-81520000I112500J0D01*
G01*
X156232500Y-81520000D01*
G75*
G02*
X156345000Y-81632500I0J-112500D01*
G01*
X156345000Y-82107500D01*
G75*
G02*
X156232500Y-82220000I-112500J0D01*
G01*
G37*
G04 #@! TD.AperFunction*
D10*
X165040000Y-83595000D03*
X165040000Y-84245000D03*
X165040000Y-84895000D03*
X165040000Y-85545000D03*
X160640000Y-85545000D03*
X160640000Y-84895000D03*
X160640000Y-84245000D03*
X160640000Y-83595000D03*
D11*
X148310000Y-96680000D03*
X148310000Y-98280000D03*
D12*
X141637843Y-70817433D03*
X142437843Y-70817433D03*
X143237843Y-70817433D03*
X144037843Y-70817433D03*
X144837843Y-70817433D03*
X145637843Y-70817433D03*
X146437843Y-70817433D03*
X147237843Y-70817433D03*
X148037843Y-70817433D03*
X148837843Y-70817433D03*
X149637843Y-70817433D03*
X150437843Y-70817433D03*
X151237843Y-70817433D03*
X152037843Y-70817433D03*
X152837843Y-70817433D03*
X153637843Y-70817433D03*
X154437843Y-70817433D03*
X155237843Y-70817433D03*
X159237843Y-70817433D03*
X160037843Y-70817433D03*
X160837843Y-70817433D03*
X161637843Y-70817433D03*
X162437843Y-70817433D03*
X163237843Y-70817433D03*
X164037843Y-70817433D03*
X164837843Y-70817433D03*
D13*
X148930000Y-115810000D03*
D14*
X146390000Y-113270000D03*
X151470000Y-113270000D03*
X146390000Y-118350000D03*
X151470000Y-118350000D03*
D15*
X151450000Y-92340000D03*
D16*
X152600000Y-91120000D03*
D15*
X151450000Y-93610000D03*
X151450000Y-94880000D03*
X151450000Y-96150000D03*
X151450000Y-97420000D03*
X151450000Y-98690000D03*
X151450000Y-99960000D03*
X151450000Y-101230000D03*
X151450000Y-102500000D03*
X165450000Y-102500000D03*
X165450000Y-97420000D03*
X165450000Y-101230000D03*
X165450000Y-99960000D03*
X165450000Y-93610000D03*
X165450000Y-92340000D03*
X165450000Y-94880000D03*
X165450000Y-96150000D03*
X165450000Y-98690000D03*
X151450000Y-109070000D03*
X151450000Y-107800000D03*
X151450000Y-106530000D03*
X165450000Y-107800000D03*
X165450000Y-109070000D03*
X165450000Y-106530000D03*
D17*
X155580000Y-98680000D03*
X154150000Y-96785000D03*
X156680000Y-96150000D03*
X154180000Y-94245000D03*
D18*
X148230000Y-89990000D03*
X148230000Y-91390000D03*
X149660000Y-91400000D03*
X149660000Y-90000000D03*
D19*
X149320000Y-92750000D03*
X147920000Y-92750000D03*
D18*
X143690000Y-94280000D03*
X143690000Y-95680000D03*
X145090000Y-95690000D03*
X145090000Y-94290000D03*
D19*
X148880000Y-95160000D03*
X147480000Y-95160000D03*
X157330000Y-85570000D03*
X158730000Y-85570000D03*
D20*
X144955000Y-102750000D03*
X143685000Y-102750000D03*
X142415000Y-102750000D03*
X141145000Y-102750000D03*
X141145000Y-97350000D03*
X142415000Y-97350000D03*
X143685000Y-97350000D03*
X144955000Y-97350000D03*
D19*
X163500000Y-81950000D03*
X162100000Y-81950000D03*
X142570000Y-104650000D03*
X143970000Y-104650000D03*
D18*
X148510000Y-81890000D03*
X148510000Y-80490000D03*
X157760000Y-77820000D03*
X157760000Y-76420000D03*
X155300000Y-76420000D03*
X155300000Y-77820000D03*
D21*
X145615000Y-84800000D03*
X145615000Y-83530000D03*
X145615000Y-82260000D03*
X144345000Y-84800000D03*
X144345000Y-83530000D03*
X144345000Y-82260000D03*
X144345000Y-86070000D03*
X144345000Y-87340000D03*
X145615000Y-86070000D03*
X145615000Y-87340000D03*
D22*
X145320000Y-76220000D03*
X163510000Y-80810000D03*
X146810000Y-84850000D03*
X141540000Y-84870000D03*
X154520000Y-112910000D03*
X141360000Y-95880000D03*
X141110000Y-101050000D03*
X150390000Y-73650000D03*
X146060000Y-74170000D03*
X143850000Y-75050000D03*
X146590000Y-104350000D03*
X147620000Y-104360000D03*
X148890000Y-104360000D03*
X150160000Y-104360000D03*
X151430000Y-104360000D03*
X152700000Y-104360000D03*
X153970000Y-104360000D03*
X155240000Y-104360000D03*
X156510000Y-104360000D03*
X157780000Y-104360000D03*
X159050000Y-104360000D03*
X160320000Y-104360000D03*
X161590000Y-104360000D03*
X162860000Y-104360000D03*
X164130000Y-104360000D03*
X165400000Y-104360000D03*
X166670000Y-104360000D03*
X146590000Y-105620000D03*
X146590000Y-106890000D03*
X146590000Y-108160000D03*
X146590000Y-109430000D03*
X146590000Y-110700000D03*
X155790000Y-112910000D03*
X157060000Y-112910000D03*
X158330000Y-112910000D03*
X159600000Y-112910000D03*
X160870000Y-112910000D03*
X162140000Y-112910000D03*
X163410000Y-112910000D03*
X164680000Y-112910000D03*
X165950000Y-112910000D03*
X156050000Y-74240000D03*
X146070000Y-98410000D03*
X149610000Y-87140000D03*
X161520000Y-75990000D03*
X162281613Y-73287098D03*
X158968161Y-72909116D03*
X151238990Y-74429981D03*
X153668355Y-74587128D03*
X157070000Y-82890000D03*
X149640000Y-89020000D03*
X154200000Y-82880000D03*
X156590000Y-77170000D03*
X145310000Y-92340000D03*
X143270000Y-90910000D03*
X142950000Y-86420000D03*
X146890000Y-91520000D03*
X163710000Y-102490000D03*
X148460000Y-82970000D03*
X142940000Y-82778990D03*
X150060000Y-94900000D03*
X157550639Y-75134799D03*
X158930000Y-76290000D03*
X150010000Y-85110000D03*
X149710000Y-96390000D03*
X149250000Y-98190000D03*
X163780000Y-101300000D03*
X157260000Y-87020000D03*
X158888372Y-79001754D03*
X159467010Y-89423628D03*
X159222333Y-81790422D03*
X156480000Y-80810000D03*
X159260979Y-80150000D03*
X158441323Y-89180917D03*
X150800000Y-79640000D03*
X161410000Y-91640000D03*
X154860000Y-79400000D03*
X158920000Y-77590000D03*
X160156031Y-88626012D03*
X160540000Y-86810000D03*
D23*
X145080000Y-94280000D02*
X145090000Y-94290000D01*
X143690000Y-94280000D02*
X145080000Y-94280000D01*
X144955000Y-102750000D02*
X143685000Y-102750000D01*
X144955000Y-102750000D02*
X144955000Y-104145000D01*
X144450000Y-104650000D02*
X143970000Y-104650000D01*
X144955000Y-104145000D02*
X144450000Y-104650000D01*
X143690000Y-94280000D02*
X141804116Y-94280000D01*
X140090000Y-95994116D02*
X140090000Y-99030000D01*
X141804116Y-94280000D02*
X140090000Y-95994116D01*
X140090000Y-99030000D02*
X140900000Y-99840000D01*
X140900000Y-99840000D02*
X141804000Y-99840000D01*
X141804000Y-99840000D02*
X143685000Y-101721000D01*
X143685000Y-101721000D02*
X143685000Y-102750000D01*
X163500000Y-81950000D02*
X163500000Y-82840000D01*
X164255000Y-83595000D02*
X165040000Y-83595000D01*
X147520000Y-95120000D02*
X147480000Y-95160000D01*
X147520000Y-94290000D02*
X147520000Y-95120000D01*
X148190000Y-94290000D02*
X147520000Y-94290000D01*
X147520000Y-94290000D02*
X145090000Y-94290000D01*
X147480000Y-95160000D02*
X147480000Y-95590000D01*
X148310000Y-96420000D02*
X148310000Y-96680000D01*
X147480000Y-95590000D02*
X148310000Y-96420000D01*
X164054198Y-83595000D02*
X164255000Y-83595000D01*
X164054198Y-83394198D02*
X163500000Y-82840000D01*
X164054198Y-83595000D02*
X164054198Y-83394198D01*
X163270000Y-84379198D02*
X164054198Y-83595000D01*
X146437843Y-70817433D02*
X146437843Y-72372157D01*
X146437843Y-72372157D02*
X146230000Y-72580000D01*
X146230000Y-72580000D02*
X145930000Y-72580000D01*
X145637843Y-72287843D02*
X145637843Y-70817433D01*
X145930000Y-72580000D02*
X145637843Y-72287843D01*
D24*
X150180000Y-93610000D02*
X149320000Y-92750000D01*
X151450000Y-93610000D02*
X150180000Y-93610000D01*
X149320000Y-93160000D02*
X148190000Y-94290000D01*
X149320000Y-92750000D02*
X149320000Y-93160000D01*
X147480000Y-94370000D02*
X147560000Y-94290000D01*
X147480000Y-95160000D02*
X147480000Y-94370000D01*
X147560000Y-94290000D02*
X145090000Y-94290000D01*
X148190000Y-94290000D02*
X147560000Y-94290000D01*
X149320000Y-92340000D02*
X149320000Y-92750000D01*
X149660000Y-92000000D02*
X149320000Y-92340000D01*
X149660000Y-91400000D02*
X149660000Y-92000000D01*
X163270000Y-84379198D02*
X163806999Y-83842199D01*
D23*
X145070000Y-75970000D02*
X145320000Y-76220000D01*
X145070000Y-73750000D02*
X145070000Y-75970000D01*
X146110000Y-72710000D02*
X145070000Y-73750000D01*
X145980000Y-72580000D02*
X146110000Y-72710000D01*
X145930000Y-72580000D02*
X145980000Y-72580000D01*
X163500000Y-81950000D02*
X163500000Y-80820000D01*
X163500000Y-80820000D02*
X163510000Y-80810000D01*
D24*
X143690000Y-94280000D02*
X143690000Y-92990000D01*
X143690000Y-92990000D02*
X141540000Y-90840000D01*
X141540000Y-80000000D02*
X145320000Y-76220000D01*
D23*
X146760000Y-84800000D02*
X146810000Y-84850000D01*
X145615000Y-84800000D02*
X146760000Y-84800000D01*
D24*
X141540000Y-84870000D02*
X141540000Y-80000000D01*
X141540000Y-90840000D02*
X141540000Y-84870000D01*
D23*
X162944315Y-80810000D02*
X163510000Y-80810000D01*
X157070000Y-79470000D02*
X157070000Y-79820000D01*
X162744894Y-81009421D02*
X162944315Y-80810000D01*
X157070000Y-79820000D02*
X158259421Y-81009421D01*
X158259421Y-81009421D02*
X162744894Y-81009421D01*
D24*
X161281998Y-87718002D02*
X163270000Y-85730000D01*
X163270000Y-85730000D02*
X163270000Y-84379198D01*
X152708000Y-93610000D02*
X158599998Y-87718002D01*
X151450000Y-93610000D02*
X152708000Y-93610000D01*
X158599998Y-87718002D02*
X161281998Y-87718002D01*
D23*
X148240000Y-90000000D02*
X148230000Y-89990000D01*
X149660000Y-90000000D02*
X148240000Y-90000000D01*
X151450000Y-92340000D02*
X151450000Y-90900000D01*
X149660000Y-90000000D02*
X150960000Y-90000000D01*
X151450000Y-90490000D02*
X151450000Y-90900000D01*
X150960000Y-90000000D02*
X151450000Y-90490000D01*
X142415000Y-102750000D02*
X141145000Y-102750000D01*
X142570000Y-104650000D02*
X142570000Y-103990000D01*
X142415000Y-103835000D02*
X142415000Y-102750000D01*
X142570000Y-103990000D02*
X142415000Y-103835000D01*
X141145000Y-97350000D02*
X141145000Y-96095000D01*
X141145000Y-96095000D02*
X141360000Y-95880000D01*
X141145000Y-101085000D02*
X141110000Y-101050000D01*
X141145000Y-102750000D02*
X141145000Y-101085000D01*
X150437843Y-73602157D02*
X150390000Y-73650000D01*
X150437843Y-70817433D02*
X150437843Y-73602157D01*
X147237843Y-72992157D02*
X146060000Y-74170000D01*
X147237843Y-70817433D02*
X147237843Y-72992157D01*
X148037843Y-70817433D02*
X148037843Y-72727843D01*
X148960000Y-73650000D02*
X150390000Y-73650000D01*
X148037843Y-72727843D02*
X148960000Y-73650000D01*
X158755000Y-85545000D02*
X158730000Y-85570000D01*
X160640000Y-85545000D02*
X158755000Y-85545000D01*
X161625802Y-85545000D02*
X162210000Y-84960802D01*
X160640000Y-85545000D02*
X161625802Y-85545000D01*
X162210000Y-82060000D02*
X162100000Y-81950000D01*
X162210000Y-84960802D02*
X162210000Y-82060000D01*
X144837843Y-70817433D02*
X144837843Y-73143721D01*
X144837843Y-73143721D02*
X143850000Y-74131564D01*
X143850000Y-74131564D02*
X143850000Y-75050000D01*
X161637843Y-72643328D02*
X162281613Y-73287098D01*
X161637843Y-70817433D02*
X161637843Y-72643328D01*
X159237843Y-70817433D02*
X159237843Y-72639434D01*
X159237843Y-72639434D02*
X158968161Y-72909116D01*
X151237843Y-70817433D02*
X151237843Y-74428834D01*
X153637843Y-74556616D02*
X153668355Y-74587128D01*
X153637843Y-70817433D02*
X153637843Y-74556616D01*
X151237843Y-74428834D02*
X151238990Y-74429981D01*
X157070000Y-81870000D02*
X157070000Y-82890000D01*
X145615000Y-83530000D02*
X146820000Y-83530000D01*
X149610000Y-86320000D02*
X149610000Y-87140000D01*
X146820000Y-83530000D02*
X149610000Y-86320000D01*
X157070000Y-82890000D02*
X160200000Y-82890000D01*
X161140000Y-81950000D02*
X162100000Y-81950000D01*
X160200000Y-82890000D02*
X161140000Y-81950000D01*
X149660000Y-89040000D02*
X149640000Y-89020000D01*
X149660000Y-90000000D02*
X149660000Y-89040000D01*
X157060000Y-82880000D02*
X157070000Y-82890000D01*
X154200000Y-82880000D02*
X157060000Y-82880000D01*
X158968161Y-72909116D02*
X158820884Y-72909116D01*
X157490000Y-74240000D02*
X156050000Y-74240000D01*
X158820884Y-72909116D02*
X157490000Y-74240000D01*
D24*
X151450000Y-107800000D02*
X150490000Y-107800000D01*
X148930000Y-109360000D02*
X148930000Y-115810000D01*
X150490000Y-107800000D02*
X148930000Y-109360000D01*
D23*
X147920000Y-92750000D02*
X147920000Y-92110000D01*
X148230000Y-91800000D02*
X148230000Y-91390000D01*
X147920000Y-92110000D02*
X148230000Y-91800000D01*
X148100000Y-91520000D02*
X148230000Y-91390000D01*
X146890000Y-91520000D02*
X148100000Y-91520000D01*
X163720000Y-102500000D02*
X163710000Y-102490000D01*
X165450000Y-102500000D02*
X163720000Y-102500000D01*
X148460000Y-81940000D02*
X148510000Y-81890000D01*
X148460000Y-82970000D02*
X148460000Y-81940000D01*
X144345000Y-83530000D02*
X143691010Y-83530000D01*
X143691010Y-83530000D02*
X142940000Y-82778990D01*
X150080000Y-94880000D02*
X150060000Y-94900000D01*
X151450000Y-94880000D02*
X150080000Y-94880000D01*
X155300000Y-76420000D02*
X156265438Y-76420000D01*
X156265438Y-76420000D02*
X157550639Y-75134799D01*
X157890000Y-76290000D02*
X157760000Y-76420000D01*
X158930000Y-76290000D02*
X157890000Y-76290000D01*
X149710000Y-95990000D02*
X148880000Y-95160000D01*
X149710000Y-96390000D02*
X149710000Y-95990000D01*
X149950000Y-96150000D02*
X149710000Y-96390000D01*
X151450000Y-96150000D02*
X149950000Y-96150000D01*
X160640000Y-83595000D02*
X157520884Y-83595000D01*
X157520884Y-83595000D02*
X156005884Y-85110000D01*
X156005884Y-85110000D02*
X150575685Y-85110000D01*
X150575685Y-85110000D02*
X150010000Y-85110000D01*
X151450000Y-98690000D02*
X150150000Y-98690000D01*
X150150000Y-98690000D02*
X149630000Y-99210000D01*
X149630000Y-99210000D02*
X145460000Y-99210000D01*
X144955000Y-98705000D02*
X144955000Y-97350000D01*
X145460000Y-99210000D02*
X144955000Y-98705000D01*
X144955000Y-95825000D02*
X145090000Y-95690000D01*
X144955000Y-97350000D02*
X144955000Y-95825000D01*
X151450000Y-99960000D02*
X145280000Y-99960000D01*
X143685000Y-98365000D02*
X143685000Y-97350000D01*
X145280000Y-99960000D02*
X143685000Y-98365000D01*
X143685000Y-95685000D02*
X143690000Y-95680000D01*
X143685000Y-97350000D02*
X143685000Y-95685000D01*
X149160000Y-98280000D02*
X149250000Y-98190000D01*
X148310000Y-98280000D02*
X149160000Y-98280000D01*
X165380000Y-101300000D02*
X165450000Y-101230000D01*
X163780000Y-101300000D02*
X165380000Y-101300000D01*
X157330000Y-86950000D02*
X157260000Y-87020000D01*
X157330000Y-85570000D02*
X157330000Y-86950000D01*
X159801989Y-75833693D02*
X159801989Y-78088137D01*
X160037843Y-75597839D02*
X159801989Y-75833693D01*
X159801989Y-78088137D02*
X158888372Y-79001754D01*
X160037843Y-70817433D02*
X160037843Y-75597839D01*
X159467010Y-91867010D02*
X159467010Y-89423628D01*
X165450000Y-96150000D02*
X163750000Y-96150000D01*
X163750000Y-96150000D02*
X159467010Y-91867010D01*
X159142755Y-81870000D02*
X159222333Y-81790422D01*
X158020000Y-81870000D02*
X159142755Y-81870000D01*
X156480000Y-80810000D02*
X156480000Y-81050000D01*
X156120000Y-81410000D02*
X156120000Y-81870000D01*
X156480000Y-81050000D02*
X156120000Y-81410000D01*
X160837843Y-75516275D02*
X160310000Y-76044118D01*
X160837843Y-70817433D02*
X160837843Y-75516275D01*
X160310000Y-76044118D02*
X160310000Y-79100979D01*
X160310000Y-79100979D02*
X159260979Y-80150000D01*
X165450000Y-97420000D02*
X164301564Y-97420000D01*
X158441323Y-91559759D02*
X158441323Y-89180917D01*
X164301564Y-97420000D02*
X158441323Y-91559759D01*
X149950000Y-80490000D02*
X150800000Y-79640000D01*
X148510000Y-80490000D02*
X149950000Y-80490000D01*
X156120000Y-79470000D02*
X155350000Y-78700000D01*
X155350000Y-77870000D02*
X155300000Y-77820000D01*
X155350000Y-78700000D02*
X155350000Y-77870000D01*
X155350000Y-78910000D02*
X155350000Y-78700000D01*
X154860000Y-79400000D02*
X155350000Y-78910000D01*
X162660000Y-93610000D02*
X161410000Y-92360000D01*
X165450000Y-93610000D02*
X162660000Y-93610000D01*
X161410000Y-92360000D02*
X161410000Y-91640000D01*
X143788225Y-82260000D02*
X142870000Y-81341775D01*
X144345000Y-82260000D02*
X143788225Y-82260000D01*
X142870000Y-81341775D02*
X142870000Y-79900000D01*
X144950000Y-77820000D02*
X155300000Y-77820000D01*
X142870000Y-79900000D02*
X144950000Y-77820000D01*
X157760000Y-77820000D02*
X157760000Y-78380000D01*
X158020000Y-78640000D02*
X158020000Y-79470000D01*
X157760000Y-78380000D02*
X158020000Y-78640000D01*
X158690000Y-77820000D02*
X158920000Y-77590000D01*
X157760000Y-77820000D02*
X158690000Y-77820000D01*
X165450000Y-94880000D02*
X163211564Y-94880000D01*
X163211564Y-94880000D02*
X160556030Y-92224466D01*
X160556030Y-89026011D02*
X160156031Y-88626012D01*
X160556030Y-92224466D02*
X160556030Y-89026011D01*
X144345000Y-87340000D02*
X143560000Y-88125000D01*
X144430000Y-89930000D02*
X146190000Y-89930000D01*
X146190000Y-89930000D02*
X147910000Y-88210000D01*
X158605884Y-86810000D02*
X160540000Y-86810000D01*
X157205884Y-88210000D02*
X158605884Y-86810000D01*
X147910000Y-88210000D02*
X157205884Y-88210000D01*
X143560000Y-89060000D02*
X144430000Y-89930000D01*
X143560000Y-88125000D02*
X143560000Y-89060000D01*
X161686658Y-72268618D02*
X161783349Y-72347970D01*
X161893663Y-72406935D01*
X162013361Y-72443245D01*
X162137843Y-72455505D01*
X162737843Y-72455505D01*
X162837843Y-72445656D01*
X162937843Y-72455505D01*
X163537843Y-72455505D01*
X163637843Y-72445656D01*
X163737843Y-72455505D01*
X164337843Y-72455505D01*
X164437843Y-72445656D01*
X164537843Y-72455505D01*
X165137843Y-72455505D01*
X165262325Y-72443245D01*
X165382023Y-72406935D01*
X165423998Y-72384499D01*
X165425703Y-72387706D01*
X165499964Y-72525048D01*
X165535934Y-72578374D01*
X165571183Y-72632241D01*
X165577449Y-72639923D01*
X165676972Y-72760226D01*
X165722629Y-72805565D01*
X165767659Y-72851548D01*
X165775297Y-72857867D01*
X165896291Y-72956547D01*
X165949849Y-72992131D01*
X166002985Y-73028514D01*
X166011706Y-73033229D01*
X166149563Y-73106529D01*
X166209029Y-73131039D01*
X166268207Y-73156402D01*
X166277677Y-73159333D01*
X166427146Y-73204460D01*
X166490247Y-73216954D01*
X166553213Y-73230338D01*
X166563072Y-73231374D01*
X166649426Y-73239841D01*
X166649963Y-73240003D01*
X166754291Y-73250067D01*
X167357844Y-73248857D01*
X167357843Y-119577433D01*
X138777843Y-119577433D01*
X138777843Y-117126852D01*
X139102843Y-117126852D01*
X139102843Y-117508014D01*
X139177204Y-117881852D01*
X139323068Y-118233999D01*
X139534830Y-118550924D01*
X139804352Y-118820446D01*
X140121277Y-119032208D01*
X140473424Y-119178072D01*
X140847262Y-119252433D01*
X141228424Y-119252433D01*
X141602262Y-119178072D01*
X141954409Y-119032208D01*
X142271334Y-118820446D01*
X142540856Y-118550924D01*
X142752618Y-118233999D01*
X142898482Y-117881852D01*
X142972843Y-117508014D01*
X142972843Y-117126852D01*
X142898482Y-116753014D01*
X142752618Y-116400867D01*
X142540856Y-116083942D01*
X142271334Y-115814420D01*
X141979494Y-115619419D01*
X146995000Y-115619419D01*
X146995000Y-116000581D01*
X147069361Y-116374419D01*
X147215225Y-116726566D01*
X147426987Y-117043491D01*
X147696509Y-117313013D01*
X148013434Y-117524775D01*
X148365581Y-117670639D01*
X148739419Y-117745000D01*
X149120581Y-117745000D01*
X149494419Y-117670639D01*
X149846566Y-117524775D01*
X150163491Y-117313013D01*
X150349652Y-117126852D01*
X163302843Y-117126852D01*
X163302843Y-117508014D01*
X163377204Y-117881852D01*
X163523068Y-118233999D01*
X163734830Y-118550924D01*
X164004352Y-118820446D01*
X164321277Y-119032208D01*
X164673424Y-119178072D01*
X165047262Y-119252433D01*
X165428424Y-119252433D01*
X165802262Y-119178072D01*
X166154409Y-119032208D01*
X166471334Y-118820446D01*
X166740856Y-118550924D01*
X166952618Y-118233999D01*
X167098482Y-117881852D01*
X167172843Y-117508014D01*
X167172843Y-117126852D01*
X167098482Y-116753014D01*
X166952618Y-116400867D01*
X166740856Y-116083942D01*
X166471334Y-115814420D01*
X166154409Y-115602658D01*
X165802262Y-115456794D01*
X165428424Y-115382433D01*
X165047262Y-115382433D01*
X164673424Y-115456794D01*
X164321277Y-115602658D01*
X164004352Y-115814420D01*
X163734830Y-116083942D01*
X163523068Y-116400867D01*
X163377204Y-116753014D01*
X163302843Y-117126852D01*
X150349652Y-117126852D01*
X150433013Y-117043491D01*
X150644775Y-116726566D01*
X150790639Y-116374419D01*
X150865000Y-116000581D01*
X150865000Y-115619419D01*
X150790639Y-115245581D01*
X150644775Y-114893434D01*
X150433013Y-114576509D01*
X150163491Y-114306987D01*
X149846566Y-114095225D01*
X149819000Y-114083807D01*
X149819000Y-109728235D01*
X150709164Y-108838072D01*
X152200000Y-108838072D01*
X152324482Y-108825812D01*
X152444180Y-108789502D01*
X152554494Y-108730537D01*
X152651185Y-108651185D01*
X152730537Y-108554494D01*
X152789502Y-108444180D01*
X152825812Y-108324482D01*
X152838072Y-108200000D01*
X152838072Y-107400000D01*
X152825812Y-107275518D01*
X152789502Y-107155820D01*
X152730537Y-107045506D01*
X152651185Y-106948815D01*
X152554494Y-106869463D01*
X152444180Y-106810498D01*
X152324482Y-106774188D01*
X152200000Y-106761928D01*
X150700000Y-106761928D01*
X150575518Y-106774188D01*
X150455820Y-106810498D01*
X150345506Y-106869463D01*
X150257812Y-106941431D01*
X150233472Y-106948815D01*
X150148149Y-106974697D01*
X149993709Y-107057247D01*
X149858341Y-107168341D01*
X149830506Y-107202258D01*
X148332264Y-108700501D01*
X148298341Y-108728341D01*
X148187247Y-108863710D01*
X148104697Y-109018150D01*
X148053864Y-109185727D01*
X148041000Y-109316334D01*
X148041000Y-109316340D01*
X148036700Y-109360000D01*
X148041000Y-109403660D01*
X148041001Y-114083806D01*
X148013434Y-114095225D01*
X147696509Y-114306987D01*
X147426987Y-114576509D01*
X147215225Y-114893434D01*
X147069361Y-115245581D01*
X146995000Y-115619419D01*
X141979494Y-115619419D01*
X141954409Y-115602658D01*
X141602262Y-115456794D01*
X141228424Y-115382433D01*
X140847262Y-115382433D01*
X140473424Y-115456794D01*
X140121277Y-115602658D01*
X139804352Y-115814420D01*
X139534830Y-116083942D01*
X139323068Y-116400867D01*
X139177204Y-116753014D01*
X139102843Y-117126852D01*
X138777843Y-117126852D01*
X138777843Y-73248716D01*
X139521535Y-73250060D01*
X139555283Y-73246798D01*
X139562713Y-73246826D01*
X139572576Y-73245827D01*
X139727800Y-73229007D01*
X139790779Y-73215869D01*
X139853964Y-73203605D01*
X139863441Y-73200710D01*
X139863447Y-73200709D01*
X139863453Y-73200707D01*
X140012446Y-73154062D01*
X140071681Y-73128938D01*
X140131273Y-73104639D01*
X140140008Y-73099957D01*
X140140013Y-73099955D01*
X140140018Y-73099952D01*
X140277113Y-73025257D01*
X140330365Y-72989089D01*
X140384081Y-72953692D01*
X140391743Y-72947402D01*
X140511726Y-72847494D01*
X140556924Y-72801687D01*
X140602756Y-72756516D01*
X140609051Y-72748857D01*
X140707343Y-72627547D01*
X140742776Y-72573843D01*
X140778969Y-72520618D01*
X140783656Y-72511883D01*
X140856513Y-72373791D01*
X140880831Y-72314248D01*
X140896711Y-72276868D01*
X140983349Y-72347970D01*
X141093663Y-72406935D01*
X141213361Y-72443245D01*
X141337843Y-72455505D01*
X141937843Y-72455505D01*
X142037843Y-72445656D01*
X142137843Y-72455505D01*
X142737843Y-72455505D01*
X142837843Y-72445656D01*
X142937843Y-72455505D01*
X143537843Y-72455505D01*
X143637843Y-72445656D01*
X143737843Y-72455505D01*
X144337843Y-72455505D01*
X144462325Y-72443245D01*
X144582023Y-72406935D01*
X144692337Y-72347970D01*
X144789028Y-72268618D01*
X144837843Y-72209137D01*
X144875402Y-72254902D01*
X144872157Y-72287843D01*
X144875843Y-72325266D01*
X144875843Y-72325268D01*
X144886869Y-72437220D01*
X144930441Y-72580857D01*
X144954674Y-72626194D01*
X145001198Y-72713235D01*
X145013791Y-72728579D01*
X144557654Y-73184716D01*
X144528578Y-73208578D01*
X144474180Y-73274863D01*
X144433355Y-73324608D01*
X144416542Y-73356064D01*
X144362598Y-73456986D01*
X144319026Y-73600623D01*
X144310668Y-73685489D01*
X144304314Y-73750000D01*
X144308000Y-73787424D01*
X144308001Y-75932567D01*
X144304314Y-75970000D01*
X144305072Y-75977693D01*
X140942259Y-79340506D01*
X140908342Y-79368341D01*
X140880507Y-79402258D01*
X140880505Y-79402260D01*
X140797248Y-79503709D01*
X140714698Y-79658148D01*
X140663864Y-79825726D01*
X140646700Y-80000000D01*
X140651001Y-80043670D01*
X140651000Y-84337532D01*
X140622795Y-84379744D01*
X140544774Y-84568102D01*
X140505000Y-84768061D01*
X140505000Y-84971939D01*
X140544774Y-85171898D01*
X140622795Y-85360256D01*
X140651001Y-85402469D01*
X140651000Y-90796340D01*
X140646700Y-90840000D01*
X140651000Y-90883660D01*
X140651000Y-90883666D01*
X140663864Y-91014273D01*
X140714697Y-91181850D01*
X140797247Y-91336290D01*
X140908341Y-91471659D01*
X140942264Y-91499499D01*
X142801001Y-93358237D01*
X142801001Y-93477781D01*
X142751993Y-93518000D01*
X141841538Y-93518000D01*
X141804115Y-93514314D01*
X141766692Y-93518000D01*
X141766690Y-93518000D01*
X141654738Y-93529026D01*
X141511101Y-93572598D01*
X141378724Y-93643355D01*
X141262694Y-93738578D01*
X141238837Y-93767648D01*
X139577654Y-95428832D01*
X139548578Y-95452694D01*
X139498795Y-95513356D01*
X139453355Y-95568724D01*
X139421979Y-95627425D01*
X139382598Y-95701102D01*
X139339026Y-95844739D01*
X139328000Y-95956690D01*
X139324314Y-95994116D01*
X139328000Y-96031539D01*
X139328001Y-98992567D01*
X139324314Y-99030000D01*
X139339027Y-99179378D01*
X139382599Y-99323015D01*
X139453355Y-99455392D01*
X139523764Y-99541185D01*
X139548579Y-99571422D01*
X139577649Y-99595279D01*
X140334720Y-100352351D01*
X140358578Y-100381422D01*
X140387648Y-100405279D01*
X140474607Y-100476645D01*
X140520962Y-100501422D01*
X140606985Y-100547402D01*
X140750622Y-100590974D01*
X140862574Y-100602000D01*
X140862577Y-100602000D01*
X140900000Y-100605686D01*
X140937423Y-100602000D01*
X141488370Y-100602000D01*
X142813465Y-101927095D01*
X142763530Y-102091708D01*
X142750001Y-102229068D01*
X142750000Y-103270931D01*
X142763529Y-103408291D01*
X142816993Y-103584539D01*
X142903814Y-103746971D01*
X143020656Y-103889344D01*
X143072572Y-103931950D01*
X143044188Y-104025518D01*
X143031928Y-104150000D01*
X143031928Y-105150000D01*
X143044188Y-105274482D01*
X143080498Y-105394180D01*
X143139463Y-105504494D01*
X143218815Y-105601185D01*
X143315506Y-105680537D01*
X143425820Y-105739502D01*
X143545518Y-105775812D01*
X143670000Y-105788072D01*
X144270000Y-105788072D01*
X144394482Y-105775812D01*
X144514180Y-105739502D01*
X144624494Y-105680537D01*
X144721185Y-105601185D01*
X144800537Y-105504494D01*
X144859502Y-105394180D01*
X144895812Y-105274482D01*
X144896304Y-105269483D01*
X144991422Y-105191422D01*
X145015284Y-105162346D01*
X145467346Y-104710284D01*
X145496422Y-104686422D01*
X145556857Y-104612781D01*
X145591645Y-104570393D01*
X145662401Y-104438016D01*
X145662402Y-104438015D01*
X145705974Y-104294378D01*
X145717000Y-104182426D01*
X145717000Y-104182423D01*
X145720686Y-104145000D01*
X145717000Y-104107577D01*
X145717000Y-103770350D01*
X145736186Y-103746972D01*
X145823007Y-103584540D01*
X145876471Y-103408292D01*
X145890000Y-103270932D01*
X145890000Y-102229068D01*
X145876471Y-102091708D01*
X145823007Y-101915460D01*
X145736186Y-101753028D01*
X145619344Y-101610656D01*
X145476972Y-101493814D01*
X145314540Y-101406993D01*
X145138292Y-101353529D01*
X144955000Y-101335476D01*
X144771709Y-101353529D01*
X144595461Y-101406993D01*
X144433029Y-101493814D01*
X144416489Y-101507388D01*
X144392402Y-101427985D01*
X144359465Y-101366364D01*
X144321645Y-101295607D01*
X144267802Y-101230000D01*
X144226422Y-101179578D01*
X144197347Y-101155717D01*
X142369284Y-99327654D01*
X142345422Y-99298578D01*
X142229392Y-99203355D01*
X142097015Y-99132598D01*
X141953378Y-99089026D01*
X141841426Y-99078000D01*
X141841423Y-99078000D01*
X141804000Y-99074314D01*
X141766577Y-99078000D01*
X141215631Y-99078000D01*
X140852000Y-98714370D01*
X140852000Y-96309746D01*
X142119747Y-95042000D01*
X142650647Y-95042000D01*
X142600498Y-95135820D01*
X142564188Y-95255518D01*
X142551928Y-95380000D01*
X142551928Y-95948962D01*
X142415000Y-95935476D01*
X142231709Y-95953529D01*
X142055461Y-96006993D01*
X141893029Y-96093814D01*
X141750657Y-96210656D01*
X141633815Y-96353028D01*
X141546994Y-96515460D01*
X141493530Y-96691708D01*
X141480001Y-96829068D01*
X141480000Y-97870931D01*
X141493529Y-98008291D01*
X141546993Y-98184539D01*
X141633814Y-98346971D01*
X141750656Y-98489344D01*
X141893028Y-98606186D01*
X142055460Y-98693007D01*
X142231708Y-98746471D01*
X142415000Y-98764524D01*
X142598291Y-98746471D01*
X142774539Y-98693007D01*
X142936971Y-98606186D01*
X142956912Y-98589821D01*
X142977598Y-98658014D01*
X143001297Y-98702351D01*
X143048355Y-98790392D01*
X143070678Y-98817592D01*
X143143578Y-98906422D01*
X143172654Y-98930284D01*
X144714716Y-100472346D01*
X144738578Y-100501422D01*
X144783149Y-100538000D01*
X144854607Y-100596645D01*
X144925364Y-100634465D01*
X144986985Y-100667402D01*
X145130622Y-100710974D01*
X145242574Y-100722000D01*
X145242577Y-100722000D01*
X145280000Y-100725686D01*
X145317423Y-100722000D01*
X150072565Y-100722000D01*
X150061928Y-100830000D01*
X150061928Y-101630000D01*
X150074188Y-101754482D01*
X150107713Y-101865000D01*
X150074188Y-101975518D01*
X150061928Y-102100000D01*
X150061928Y-102900000D01*
X150074188Y-103024482D01*
X150110498Y-103144180D01*
X150169463Y-103254494D01*
X150248815Y-103351185D01*
X150345506Y-103430537D01*
X150455820Y-103489502D01*
X150575518Y-103525812D01*
X150700000Y-103538072D01*
X152200000Y-103538072D01*
X152324482Y-103525812D01*
X152444180Y-103489502D01*
X152554494Y-103430537D01*
X152651185Y-103351185D01*
X152730537Y-103254494D01*
X152789502Y-103144180D01*
X152825812Y-103024482D01*
X152838072Y-102900000D01*
X152838072Y-102100000D01*
X152825812Y-101975518D01*
X152792287Y-101865000D01*
X152825812Y-101754482D01*
X152838072Y-101630000D01*
X152838072Y-100830000D01*
X152825812Y-100705518D01*
X152792287Y-100595000D01*
X152825812Y-100484482D01*
X152838072Y-100360000D01*
X152838072Y-99560000D01*
X152825812Y-99435518D01*
X152792287Y-99325000D01*
X152825812Y-99214482D01*
X152838072Y-99090000D01*
X152838072Y-98290000D01*
X152825812Y-98165518D01*
X152792287Y-98055000D01*
X152825812Y-97944482D01*
X152838072Y-97820000D01*
X152838072Y-97268262D01*
X152911995Y-97446727D01*
X153064880Y-97675535D01*
X153259465Y-97870120D01*
X153488273Y-98023005D01*
X153742510Y-98128314D01*
X154012408Y-98182000D01*
X154274177Y-98182000D01*
X154236686Y-98272510D01*
X154183000Y-98542408D01*
X154183000Y-98817592D01*
X154236686Y-99087490D01*
X154341995Y-99341727D01*
X154494880Y-99570535D01*
X154689465Y-99765120D01*
X154918273Y-99918005D01*
X155172510Y-100023314D01*
X155442408Y-100077000D01*
X155717592Y-100077000D01*
X155987490Y-100023314D01*
X156241727Y-99918005D01*
X156470535Y-99765120D01*
X156665120Y-99570535D01*
X156818005Y-99341727D01*
X156923314Y-99087490D01*
X156977000Y-98817592D01*
X156977000Y-98542408D01*
X156923314Y-98272510D01*
X156818005Y-98018273D01*
X156665120Y-97789465D01*
X156470535Y-97594880D01*
X156338038Y-97506348D01*
X156542408Y-97547000D01*
X156817592Y-97547000D01*
X157087490Y-97493314D01*
X157341727Y-97388005D01*
X157570535Y-97235120D01*
X157765120Y-97040535D01*
X157918005Y-96811727D01*
X158023314Y-96557490D01*
X158077000Y-96287592D01*
X158077000Y-96012408D01*
X158023314Y-95742510D01*
X157918005Y-95488273D01*
X157765120Y-95259465D01*
X157570535Y-95064880D01*
X157341727Y-94911995D01*
X157087490Y-94806686D01*
X156817592Y-94753000D01*
X156542408Y-94753000D01*
X156272510Y-94806686D01*
X156018273Y-94911995D01*
X155789465Y-95064880D01*
X155594880Y-95259465D01*
X155441995Y-95488273D01*
X155336686Y-95742510D01*
X155290095Y-95976740D01*
X155235120Y-95894465D01*
X155040535Y-95699880D01*
X154811727Y-95546995D01*
X154749485Y-95521213D01*
X154841727Y-95483005D01*
X155070535Y-95330120D01*
X155265120Y-95135535D01*
X155418005Y-94906727D01*
X155523314Y-94652490D01*
X155577000Y-94382592D01*
X155577000Y-94107408D01*
X155523314Y-93837510D01*
X155418005Y-93583273D01*
X155265120Y-93354465D01*
X155070535Y-93159880D01*
X154841727Y-93006995D01*
X154648343Y-92926892D01*
X157679324Y-89895912D01*
X157679323Y-91522336D01*
X157675637Y-91559759D01*
X157679323Y-91597182D01*
X157679323Y-91597184D01*
X157690349Y-91709136D01*
X157733921Y-91852773D01*
X157766858Y-91914394D01*
X157804678Y-91985151D01*
X157830313Y-92016387D01*
X157899901Y-92101181D01*
X157928977Y-92125043D01*
X163736285Y-97932352D01*
X163760142Y-97961422D01*
X163876172Y-98056645D01*
X164008549Y-98127402D01*
X164079245Y-98148847D01*
X164074188Y-98165518D01*
X164061928Y-98290000D01*
X164061928Y-99090000D01*
X164074188Y-99214482D01*
X164107713Y-99325000D01*
X164074188Y-99435518D01*
X164061928Y-99560000D01*
X164061928Y-100300802D01*
X163881939Y-100265000D01*
X163678061Y-100265000D01*
X163478102Y-100304774D01*
X163289744Y-100382795D01*
X163120226Y-100496063D01*
X162976063Y-100640226D01*
X162862795Y-100809744D01*
X162784774Y-100998102D01*
X162745000Y-101198061D01*
X162745000Y-101401939D01*
X162784774Y-101601898D01*
X162862795Y-101790256D01*
X162897783Y-101842619D01*
X162792795Y-101999744D01*
X162714774Y-102188102D01*
X162675000Y-102388061D01*
X162675000Y-102591939D01*
X162714774Y-102791898D01*
X162792795Y-102980256D01*
X162906063Y-103149774D01*
X163050226Y-103293937D01*
X163219744Y-103407205D01*
X163408102Y-103485226D01*
X163608061Y-103525000D01*
X163811939Y-103525000D01*
X164011898Y-103485226D01*
X164200256Y-103407205D01*
X164264649Y-103364179D01*
X164345506Y-103430537D01*
X164455820Y-103489502D01*
X164575518Y-103525812D01*
X164700000Y-103538072D01*
X166200000Y-103538072D01*
X166324482Y-103525812D01*
X166444180Y-103489502D01*
X166554494Y-103430537D01*
X166651185Y-103351185D01*
X166730537Y-103254494D01*
X166789502Y-103144180D01*
X166825812Y-103024482D01*
X166838072Y-102900000D01*
X166838072Y-102100000D01*
X166825812Y-101975518D01*
X166792287Y-101865000D01*
X166825812Y-101754482D01*
X166838072Y-101630000D01*
X166838072Y-100830000D01*
X166825812Y-100705518D01*
X166792287Y-100595000D01*
X166825812Y-100484482D01*
X166838072Y-100360000D01*
X166838072Y-99560000D01*
X166825812Y-99435518D01*
X166792287Y-99325000D01*
X166825812Y-99214482D01*
X166838072Y-99090000D01*
X166838072Y-98290000D01*
X166825812Y-98165518D01*
X166792287Y-98055000D01*
X166825812Y-97944482D01*
X166838072Y-97820000D01*
X166838072Y-97020000D01*
X166825812Y-96895518D01*
X166792287Y-96785000D01*
X166825812Y-96674482D01*
X166838072Y-96550000D01*
X166838072Y-95750000D01*
X166825812Y-95625518D01*
X166792287Y-95515000D01*
X166825812Y-95404482D01*
X166838072Y-95280000D01*
X166838072Y-94480000D01*
X166825812Y-94355518D01*
X166792287Y-94245000D01*
X166825812Y-94134482D01*
X166838072Y-94010000D01*
X166838072Y-93210000D01*
X166825812Y-93085518D01*
X166789502Y-92965820D01*
X166730537Y-92855506D01*
X166651185Y-92758815D01*
X166554494Y-92679463D01*
X166444180Y-92620498D01*
X166324482Y-92584188D01*
X166200000Y-92571928D01*
X164700000Y-92571928D01*
X164575518Y-92584188D01*
X164455820Y-92620498D01*
X164345506Y-92679463D01*
X164248815Y-92758815D01*
X164175623Y-92848000D01*
X162975631Y-92848000D01*
X162299440Y-92171810D01*
X162327205Y-92130256D01*
X162405226Y-91941898D01*
X162445000Y-91741939D01*
X162445000Y-91538061D01*
X162405226Y-91338102D01*
X162327205Y-91149744D01*
X162213937Y-90980226D01*
X162069774Y-90836063D01*
X161900256Y-90722795D01*
X161711898Y-90644774D01*
X161511939Y-90605000D01*
X161318030Y-90605000D01*
X161318030Y-89063433D01*
X161321716Y-89026010D01*
X161318030Y-88988585D01*
X161307004Y-88876633D01*
X161263432Y-88732996D01*
X161196087Y-88607002D01*
X161238338Y-88607002D01*
X161281998Y-88611302D01*
X161325658Y-88607002D01*
X161325665Y-88607002D01*
X161456272Y-88594138D01*
X161623849Y-88543305D01*
X161778289Y-88460755D01*
X161913657Y-88349661D01*
X161941497Y-88315738D01*
X163867737Y-86389498D01*
X163901659Y-86361659D01*
X163955316Y-86296278D01*
X163960506Y-86300537D01*
X164070820Y-86359502D01*
X164190518Y-86395812D01*
X164315000Y-86408072D01*
X165765000Y-86408072D01*
X165889482Y-86395812D01*
X166009180Y-86359502D01*
X166119494Y-86300537D01*
X166216185Y-86221185D01*
X166295537Y-86124494D01*
X166354502Y-86014180D01*
X166390812Y-85894482D01*
X166403072Y-85770000D01*
X166403072Y-85320000D01*
X166393223Y-85220000D01*
X166403072Y-85120000D01*
X166403072Y-84670000D01*
X166393223Y-84570000D01*
X166403072Y-84470000D01*
X166403072Y-84020000D01*
X166393223Y-83920000D01*
X166403072Y-83820000D01*
X166403072Y-83370000D01*
X166390812Y-83245518D01*
X166354502Y-83125820D01*
X166295537Y-83015506D01*
X166216185Y-82918815D01*
X166119494Y-82839463D01*
X166009180Y-82780498D01*
X165889482Y-82744188D01*
X165765000Y-82731928D01*
X164469559Y-82731928D01*
X164399349Y-82661718D01*
X164425812Y-82574482D01*
X164438072Y-82450000D01*
X164438072Y-81450000D01*
X164425812Y-81325518D01*
X164420977Y-81309578D01*
X164427205Y-81300256D01*
X164505226Y-81111898D01*
X164545000Y-80911939D01*
X164545000Y-80708061D01*
X164505226Y-80508102D01*
X164427205Y-80319744D01*
X164313937Y-80150226D01*
X164169774Y-80006063D01*
X164000256Y-79892795D01*
X163811898Y-79814774D01*
X163611939Y-79775000D01*
X163408061Y-79775000D01*
X163208102Y-79814774D01*
X163019744Y-79892795D01*
X162850226Y-80006063D01*
X162797517Y-80058772D01*
X162794937Y-80059026D01*
X162651300Y-80102598D01*
X162518923Y-80173355D01*
X162428673Y-80247421D01*
X160295979Y-80247421D01*
X160295979Y-80192630D01*
X160822346Y-79666263D01*
X160851422Y-79642401D01*
X160930007Y-79546645D01*
X160946645Y-79526372D01*
X160996780Y-79432575D01*
X161017402Y-79393994D01*
X161060974Y-79250357D01*
X161072000Y-79138405D01*
X161072000Y-79138402D01*
X161075686Y-79100979D01*
X161072000Y-79063556D01*
X161072000Y-76359748D01*
X161350189Y-76081559D01*
X161379265Y-76057697D01*
X161451236Y-75970000D01*
X161474488Y-75941668D01*
X161545244Y-75809291D01*
X161545245Y-75809290D01*
X161588817Y-75665653D01*
X161599843Y-75553701D01*
X161599843Y-75553698D01*
X161603529Y-75516275D01*
X161599843Y-75478852D01*
X161599843Y-72255440D01*
X161637843Y-72209137D01*
X161686658Y-72268618D01*
G04 #@! TA.AperFunction,Conductor*
D25*
G36*
X161686658Y-72268618D02*
G01*
X161783349Y-72347970D01*
X161893663Y-72406935D01*
X162013361Y-72443245D01*
X162137843Y-72455505D01*
X162737843Y-72455505D01*
X162837843Y-72445656D01*
X162937843Y-72455505D01*
X163537843Y-72455505D01*
X163637843Y-72445656D01*
X163737843Y-72455505D01*
X164337843Y-72455505D01*
X164437843Y-72445656D01*
X164537843Y-72455505D01*
X165137843Y-72455505D01*
X165262325Y-72443245D01*
X165382023Y-72406935D01*
X165423998Y-72384499D01*
X165425703Y-72387706D01*
X165499964Y-72525048D01*
X165535934Y-72578374D01*
X165571183Y-72632241D01*
X165577449Y-72639923D01*
X165676972Y-72760226D01*
X165722629Y-72805565D01*
X165767659Y-72851548D01*
X165775297Y-72857867D01*
X165896291Y-72956547D01*
X165949849Y-72992131D01*
X166002985Y-73028514D01*
X166011706Y-73033229D01*
X166149563Y-73106529D01*
X166209029Y-73131039D01*
X166268207Y-73156402D01*
X166277677Y-73159333D01*
X166427146Y-73204460D01*
X166490247Y-73216954D01*
X166553213Y-73230338D01*
X166563072Y-73231374D01*
X166649426Y-73239841D01*
X166649963Y-73240003D01*
X166754291Y-73250067D01*
X167357844Y-73248857D01*
X167357843Y-119577433D01*
X138777843Y-119577433D01*
X138777843Y-117126852D01*
X139102843Y-117126852D01*
X139102843Y-117508014D01*
X139177204Y-117881852D01*
X139323068Y-118233999D01*
X139534830Y-118550924D01*
X139804352Y-118820446D01*
X140121277Y-119032208D01*
X140473424Y-119178072D01*
X140847262Y-119252433D01*
X141228424Y-119252433D01*
X141602262Y-119178072D01*
X141954409Y-119032208D01*
X142271334Y-118820446D01*
X142540856Y-118550924D01*
X142752618Y-118233999D01*
X142898482Y-117881852D01*
X142972843Y-117508014D01*
X142972843Y-117126852D01*
X142898482Y-116753014D01*
X142752618Y-116400867D01*
X142540856Y-116083942D01*
X142271334Y-115814420D01*
X141979494Y-115619419D01*
X146995000Y-115619419D01*
X146995000Y-116000581D01*
X147069361Y-116374419D01*
X147215225Y-116726566D01*
X147426987Y-117043491D01*
X147696509Y-117313013D01*
X148013434Y-117524775D01*
X148365581Y-117670639D01*
X148739419Y-117745000D01*
X149120581Y-117745000D01*
X149494419Y-117670639D01*
X149846566Y-117524775D01*
X150163491Y-117313013D01*
X150349652Y-117126852D01*
X163302843Y-117126852D01*
X163302843Y-117508014D01*
X163377204Y-117881852D01*
X163523068Y-118233999D01*
X163734830Y-118550924D01*
X164004352Y-118820446D01*
X164321277Y-119032208D01*
X164673424Y-119178072D01*
X165047262Y-119252433D01*
X165428424Y-119252433D01*
X165802262Y-119178072D01*
X166154409Y-119032208D01*
X166471334Y-118820446D01*
X166740856Y-118550924D01*
X166952618Y-118233999D01*
X167098482Y-117881852D01*
X167172843Y-117508014D01*
X167172843Y-117126852D01*
X167098482Y-116753014D01*
X166952618Y-116400867D01*
X166740856Y-116083942D01*
X166471334Y-115814420D01*
X166154409Y-115602658D01*
X165802262Y-115456794D01*
X165428424Y-115382433D01*
X165047262Y-115382433D01*
X164673424Y-115456794D01*
X164321277Y-115602658D01*
X164004352Y-115814420D01*
X163734830Y-116083942D01*
X163523068Y-116400867D01*
X163377204Y-116753014D01*
X163302843Y-117126852D01*
X150349652Y-117126852D01*
X150433013Y-117043491D01*
X150644775Y-116726566D01*
X150790639Y-116374419D01*
X150865000Y-116000581D01*
X150865000Y-115619419D01*
X150790639Y-115245581D01*
X150644775Y-114893434D01*
X150433013Y-114576509D01*
X150163491Y-114306987D01*
X149846566Y-114095225D01*
X149819000Y-114083807D01*
X149819000Y-109728235D01*
X150709164Y-108838072D01*
X152200000Y-108838072D01*
X152324482Y-108825812D01*
X152444180Y-108789502D01*
X152554494Y-108730537D01*
X152651185Y-108651185D01*
X152730537Y-108554494D01*
X152789502Y-108444180D01*
X152825812Y-108324482D01*
X152838072Y-108200000D01*
X152838072Y-107400000D01*
X152825812Y-107275518D01*
X152789502Y-107155820D01*
X152730537Y-107045506D01*
X152651185Y-106948815D01*
X152554494Y-106869463D01*
X152444180Y-106810498D01*
X152324482Y-106774188D01*
X152200000Y-106761928D01*
X150700000Y-106761928D01*
X150575518Y-106774188D01*
X150455820Y-106810498D01*
X150345506Y-106869463D01*
X150257812Y-106941431D01*
X150233472Y-106948815D01*
X150148149Y-106974697D01*
X149993709Y-107057247D01*
X149858341Y-107168341D01*
X149830506Y-107202258D01*
X148332264Y-108700501D01*
X148298341Y-108728341D01*
X148187247Y-108863710D01*
X148104697Y-109018150D01*
X148053864Y-109185727D01*
X148041000Y-109316334D01*
X148041000Y-109316340D01*
X148036700Y-109360000D01*
X148041000Y-109403660D01*
X148041001Y-114083806D01*
X148013434Y-114095225D01*
X147696509Y-114306987D01*
X147426987Y-114576509D01*
X147215225Y-114893434D01*
X147069361Y-115245581D01*
X146995000Y-115619419D01*
X141979494Y-115619419D01*
X141954409Y-115602658D01*
X141602262Y-115456794D01*
X141228424Y-115382433D01*
X140847262Y-115382433D01*
X140473424Y-115456794D01*
X140121277Y-115602658D01*
X139804352Y-115814420D01*
X139534830Y-116083942D01*
X139323068Y-116400867D01*
X139177204Y-116753014D01*
X139102843Y-117126852D01*
X138777843Y-117126852D01*
X138777843Y-73248716D01*
X139521535Y-73250060D01*
X139555283Y-73246798D01*
X139562713Y-73246826D01*
X139572576Y-73245827D01*
X139727800Y-73229007D01*
X139790779Y-73215869D01*
X139853964Y-73203605D01*
X139863441Y-73200710D01*
X139863447Y-73200709D01*
X139863453Y-73200707D01*
X140012446Y-73154062D01*
X140071681Y-73128938D01*
X140131273Y-73104639D01*
X140140008Y-73099957D01*
X140140013Y-73099955D01*
X140140018Y-73099952D01*
X140277113Y-73025257D01*
X140330365Y-72989089D01*
X140384081Y-72953692D01*
X140391743Y-72947402D01*
X140511726Y-72847494D01*
X140556924Y-72801687D01*
X140602756Y-72756516D01*
X140609051Y-72748857D01*
X140707343Y-72627547D01*
X140742776Y-72573843D01*
X140778969Y-72520618D01*
X140783656Y-72511883D01*
X140856513Y-72373791D01*
X140880831Y-72314248D01*
X140896711Y-72276868D01*
X140983349Y-72347970D01*
X141093663Y-72406935D01*
X141213361Y-72443245D01*
X141337843Y-72455505D01*
X141937843Y-72455505D01*
X142037843Y-72445656D01*
X142137843Y-72455505D01*
X142737843Y-72455505D01*
X142837843Y-72445656D01*
X142937843Y-72455505D01*
X143537843Y-72455505D01*
X143637843Y-72445656D01*
X143737843Y-72455505D01*
X144337843Y-72455505D01*
X144462325Y-72443245D01*
X144582023Y-72406935D01*
X144692337Y-72347970D01*
X144789028Y-72268618D01*
X144837843Y-72209137D01*
X144875402Y-72254902D01*
X144872157Y-72287843D01*
X144875843Y-72325266D01*
X144875843Y-72325268D01*
X144886869Y-72437220D01*
X144930441Y-72580857D01*
X144954674Y-72626194D01*
X145001198Y-72713235D01*
X145013791Y-72728579D01*
X144557654Y-73184716D01*
X144528578Y-73208578D01*
X144474180Y-73274863D01*
X144433355Y-73324608D01*
X144416542Y-73356064D01*
X144362598Y-73456986D01*
X144319026Y-73600623D01*
X144310668Y-73685489D01*
X144304314Y-73750000D01*
X144308000Y-73787424D01*
X144308001Y-75932567D01*
X144304314Y-75970000D01*
X144305072Y-75977693D01*
X140942259Y-79340506D01*
X140908342Y-79368341D01*
X140880507Y-79402258D01*
X140880505Y-79402260D01*
X140797248Y-79503709D01*
X140714698Y-79658148D01*
X140663864Y-79825726D01*
X140646700Y-80000000D01*
X140651001Y-80043670D01*
X140651000Y-84337532D01*
X140622795Y-84379744D01*
X140544774Y-84568102D01*
X140505000Y-84768061D01*
X140505000Y-84971939D01*
X140544774Y-85171898D01*
X140622795Y-85360256D01*
X140651001Y-85402469D01*
X140651000Y-90796340D01*
X140646700Y-90840000D01*
X140651000Y-90883660D01*
X140651000Y-90883666D01*
X140663864Y-91014273D01*
X140714697Y-91181850D01*
X140797247Y-91336290D01*
X140908341Y-91471659D01*
X140942264Y-91499499D01*
X142801001Y-93358237D01*
X142801001Y-93477781D01*
X142751993Y-93518000D01*
X141841538Y-93518000D01*
X141804115Y-93514314D01*
X141766692Y-93518000D01*
X141766690Y-93518000D01*
X141654738Y-93529026D01*
X141511101Y-93572598D01*
X141378724Y-93643355D01*
X141262694Y-93738578D01*
X141238837Y-93767648D01*
X139577654Y-95428832D01*
X139548578Y-95452694D01*
X139498795Y-95513356D01*
X139453355Y-95568724D01*
X139421979Y-95627425D01*
X139382598Y-95701102D01*
X139339026Y-95844739D01*
X139328000Y-95956690D01*
X139324314Y-95994116D01*
X139328000Y-96031539D01*
X139328001Y-98992567D01*
X139324314Y-99030000D01*
X139339027Y-99179378D01*
X139382599Y-99323015D01*
X139453355Y-99455392D01*
X139523764Y-99541185D01*
X139548579Y-99571422D01*
X139577649Y-99595279D01*
X140334720Y-100352351D01*
X140358578Y-100381422D01*
X140387648Y-100405279D01*
X140474607Y-100476645D01*
X140520962Y-100501422D01*
X140606985Y-100547402D01*
X140750622Y-100590974D01*
X140862574Y-100602000D01*
X140862577Y-100602000D01*
X140900000Y-100605686D01*
X140937423Y-100602000D01*
X141488370Y-100602000D01*
X142813465Y-101927095D01*
X142763530Y-102091708D01*
X142750001Y-102229068D01*
X142750000Y-103270931D01*
X142763529Y-103408291D01*
X142816993Y-103584539D01*
X142903814Y-103746971D01*
X143020656Y-103889344D01*
X143072572Y-103931950D01*
X143044188Y-104025518D01*
X143031928Y-104150000D01*
X143031928Y-105150000D01*
X143044188Y-105274482D01*
X143080498Y-105394180D01*
X143139463Y-105504494D01*
X143218815Y-105601185D01*
X143315506Y-105680537D01*
X143425820Y-105739502D01*
X143545518Y-105775812D01*
X143670000Y-105788072D01*
X144270000Y-105788072D01*
X144394482Y-105775812D01*
X144514180Y-105739502D01*
X144624494Y-105680537D01*
X144721185Y-105601185D01*
X144800537Y-105504494D01*
X144859502Y-105394180D01*
X144895812Y-105274482D01*
X144896304Y-105269483D01*
X144991422Y-105191422D01*
X145015284Y-105162346D01*
X145467346Y-104710284D01*
X145496422Y-104686422D01*
X145556857Y-104612781D01*
X145591645Y-104570393D01*
X145662401Y-104438016D01*
X145662402Y-104438015D01*
X145705974Y-104294378D01*
X145717000Y-104182426D01*
X145717000Y-104182423D01*
X145720686Y-104145000D01*
X145717000Y-104107577D01*
X145717000Y-103770350D01*
X145736186Y-103746972D01*
X145823007Y-103584540D01*
X145876471Y-103408292D01*
X145890000Y-103270932D01*
X145890000Y-102229068D01*
X145876471Y-102091708D01*
X145823007Y-101915460D01*
X145736186Y-101753028D01*
X145619344Y-101610656D01*
X145476972Y-101493814D01*
X145314540Y-101406993D01*
X145138292Y-101353529D01*
X144955000Y-101335476D01*
X144771709Y-101353529D01*
X144595461Y-101406993D01*
X144433029Y-101493814D01*
X144416489Y-101507388D01*
X144392402Y-101427985D01*
X144359465Y-101366364D01*
X144321645Y-101295607D01*
X144267802Y-101230000D01*
X144226422Y-101179578D01*
X144197347Y-101155717D01*
X142369284Y-99327654D01*
X142345422Y-99298578D01*
X142229392Y-99203355D01*
X142097015Y-99132598D01*
X141953378Y-99089026D01*
X141841426Y-99078000D01*
X141841423Y-99078000D01*
X141804000Y-99074314D01*
X141766577Y-99078000D01*
X141215631Y-99078000D01*
X140852000Y-98714370D01*
X140852000Y-96309746D01*
X142119747Y-95042000D01*
X142650647Y-95042000D01*
X142600498Y-95135820D01*
X142564188Y-95255518D01*
X142551928Y-95380000D01*
X142551928Y-95948962D01*
X142415000Y-95935476D01*
X142231709Y-95953529D01*
X142055461Y-96006993D01*
X141893029Y-96093814D01*
X141750657Y-96210656D01*
X141633815Y-96353028D01*
X141546994Y-96515460D01*
X141493530Y-96691708D01*
X141480001Y-96829068D01*
X141480000Y-97870931D01*
X141493529Y-98008291D01*
X141546993Y-98184539D01*
X141633814Y-98346971D01*
X141750656Y-98489344D01*
X141893028Y-98606186D01*
X142055460Y-98693007D01*
X142231708Y-98746471D01*
X142415000Y-98764524D01*
X142598291Y-98746471D01*
X142774539Y-98693007D01*
X142936971Y-98606186D01*
X142956912Y-98589821D01*
X142977598Y-98658014D01*
X143001297Y-98702351D01*
X143048355Y-98790392D01*
X143070678Y-98817592D01*
X143143578Y-98906422D01*
X143172654Y-98930284D01*
X144714716Y-100472346D01*
X144738578Y-100501422D01*
X144783149Y-100538000D01*
X144854607Y-100596645D01*
X144925364Y-100634465D01*
X144986985Y-100667402D01*
X145130622Y-100710974D01*
X145242574Y-100722000D01*
X145242577Y-100722000D01*
X145280000Y-100725686D01*
X145317423Y-100722000D01*
X150072565Y-100722000D01*
X150061928Y-100830000D01*
X150061928Y-101630000D01*
X150074188Y-101754482D01*
X150107713Y-101865000D01*
X150074188Y-101975518D01*
X150061928Y-102100000D01*
X150061928Y-102900000D01*
X150074188Y-103024482D01*
X150110498Y-103144180D01*
X150169463Y-103254494D01*
X150248815Y-103351185D01*
X150345506Y-103430537D01*
X150455820Y-103489502D01*
X150575518Y-103525812D01*
X150700000Y-103538072D01*
X152200000Y-103538072D01*
X152324482Y-103525812D01*
X152444180Y-103489502D01*
X152554494Y-103430537D01*
X152651185Y-103351185D01*
X152730537Y-103254494D01*
X152789502Y-103144180D01*
X152825812Y-103024482D01*
X152838072Y-102900000D01*
X152838072Y-102100000D01*
X152825812Y-101975518D01*
X152792287Y-101865000D01*
X152825812Y-101754482D01*
X152838072Y-101630000D01*
X152838072Y-100830000D01*
X152825812Y-100705518D01*
X152792287Y-100595000D01*
X152825812Y-100484482D01*
X152838072Y-100360000D01*
X152838072Y-99560000D01*
X152825812Y-99435518D01*
X152792287Y-99325000D01*
X152825812Y-99214482D01*
X152838072Y-99090000D01*
X152838072Y-98290000D01*
X152825812Y-98165518D01*
X152792287Y-98055000D01*
X152825812Y-97944482D01*
X152838072Y-97820000D01*
X152838072Y-97268262D01*
X152911995Y-97446727D01*
X153064880Y-97675535D01*
X153259465Y-97870120D01*
X153488273Y-98023005D01*
X153742510Y-98128314D01*
X154012408Y-98182000D01*
X154274177Y-98182000D01*
X154236686Y-98272510D01*
X154183000Y-98542408D01*
X154183000Y-98817592D01*
X154236686Y-99087490D01*
X154341995Y-99341727D01*
X154494880Y-99570535D01*
X154689465Y-99765120D01*
X154918273Y-99918005D01*
X155172510Y-100023314D01*
X155442408Y-100077000D01*
X155717592Y-100077000D01*
X155987490Y-100023314D01*
X156241727Y-99918005D01*
X156470535Y-99765120D01*
X156665120Y-99570535D01*
X156818005Y-99341727D01*
X156923314Y-99087490D01*
X156977000Y-98817592D01*
X156977000Y-98542408D01*
X156923314Y-98272510D01*
X156818005Y-98018273D01*
X156665120Y-97789465D01*
X156470535Y-97594880D01*
X156338038Y-97506348D01*
X156542408Y-97547000D01*
X156817592Y-97547000D01*
X157087490Y-97493314D01*
X157341727Y-97388005D01*
X157570535Y-97235120D01*
X157765120Y-97040535D01*
X157918005Y-96811727D01*
X158023314Y-96557490D01*
X158077000Y-96287592D01*
X158077000Y-96012408D01*
X158023314Y-95742510D01*
X157918005Y-95488273D01*
X157765120Y-95259465D01*
X157570535Y-95064880D01*
X157341727Y-94911995D01*
X157087490Y-94806686D01*
X156817592Y-94753000D01*
X156542408Y-94753000D01*
X156272510Y-94806686D01*
X156018273Y-94911995D01*
X155789465Y-95064880D01*
X155594880Y-95259465D01*
X155441995Y-95488273D01*
X155336686Y-95742510D01*
X155290095Y-95976740D01*
X155235120Y-95894465D01*
X155040535Y-95699880D01*
X154811727Y-95546995D01*
X154749485Y-95521213D01*
X154841727Y-95483005D01*
X155070535Y-95330120D01*
X155265120Y-95135535D01*
X155418005Y-94906727D01*
X155523314Y-94652490D01*
X155577000Y-94382592D01*
X155577000Y-94107408D01*
X155523314Y-93837510D01*
X155418005Y-93583273D01*
X155265120Y-93354465D01*
X155070535Y-93159880D01*
X154841727Y-93006995D01*
X154648343Y-92926892D01*
X157679324Y-89895912D01*
X157679323Y-91522336D01*
X157675637Y-91559759D01*
X157679323Y-91597182D01*
X157679323Y-91597184D01*
X157690349Y-91709136D01*
X157733921Y-91852773D01*
X157766858Y-91914394D01*
X157804678Y-91985151D01*
X157830313Y-92016387D01*
X157899901Y-92101181D01*
X157928977Y-92125043D01*
X163736285Y-97932352D01*
X163760142Y-97961422D01*
X163876172Y-98056645D01*
X164008549Y-98127402D01*
X164079245Y-98148847D01*
X164074188Y-98165518D01*
X164061928Y-98290000D01*
X164061928Y-99090000D01*
X164074188Y-99214482D01*
X164107713Y-99325000D01*
X164074188Y-99435518D01*
X164061928Y-99560000D01*
X164061928Y-100300802D01*
X163881939Y-100265000D01*
X163678061Y-100265000D01*
X163478102Y-100304774D01*
X163289744Y-100382795D01*
X163120226Y-100496063D01*
X162976063Y-100640226D01*
X162862795Y-100809744D01*
X162784774Y-100998102D01*
X162745000Y-101198061D01*
X162745000Y-101401939D01*
X162784774Y-101601898D01*
X162862795Y-101790256D01*
X162897783Y-101842619D01*
X162792795Y-101999744D01*
X162714774Y-102188102D01*
X162675000Y-102388061D01*
X162675000Y-102591939D01*
X162714774Y-102791898D01*
X162792795Y-102980256D01*
X162906063Y-103149774D01*
X163050226Y-103293937D01*
X163219744Y-103407205D01*
X163408102Y-103485226D01*
X163608061Y-103525000D01*
X163811939Y-103525000D01*
X164011898Y-103485226D01*
X164200256Y-103407205D01*
X164264649Y-103364179D01*
X164345506Y-103430537D01*
X164455820Y-103489502D01*
X164575518Y-103525812D01*
X164700000Y-103538072D01*
X166200000Y-103538072D01*
X166324482Y-103525812D01*
X166444180Y-103489502D01*
X166554494Y-103430537D01*
X166651185Y-103351185D01*
X166730537Y-103254494D01*
X166789502Y-103144180D01*
X166825812Y-103024482D01*
X166838072Y-102900000D01*
X166838072Y-102100000D01*
X166825812Y-101975518D01*
X166792287Y-101865000D01*
X166825812Y-101754482D01*
X166838072Y-101630000D01*
X166838072Y-100830000D01*
X166825812Y-100705518D01*
X166792287Y-100595000D01*
X166825812Y-100484482D01*
X166838072Y-100360000D01*
X166838072Y-99560000D01*
X166825812Y-99435518D01*
X166792287Y-99325000D01*
X166825812Y-99214482D01*
X166838072Y-99090000D01*
X166838072Y-98290000D01*
X166825812Y-98165518D01*
X166792287Y-98055000D01*
X166825812Y-97944482D01*
X166838072Y-97820000D01*
X166838072Y-97020000D01*
X166825812Y-96895518D01*
X166792287Y-96785000D01*
X166825812Y-96674482D01*
X166838072Y-96550000D01*
X166838072Y-95750000D01*
X166825812Y-95625518D01*
X166792287Y-95515000D01*
X166825812Y-95404482D01*
X166838072Y-95280000D01*
X166838072Y-94480000D01*
X166825812Y-94355518D01*
X166792287Y-94245000D01*
X166825812Y-94134482D01*
X166838072Y-94010000D01*
X166838072Y-93210000D01*
X166825812Y-93085518D01*
X166789502Y-92965820D01*
X166730537Y-92855506D01*
X166651185Y-92758815D01*
X166554494Y-92679463D01*
X166444180Y-92620498D01*
X166324482Y-92584188D01*
X166200000Y-92571928D01*
X164700000Y-92571928D01*
X164575518Y-92584188D01*
X164455820Y-92620498D01*
X164345506Y-92679463D01*
X164248815Y-92758815D01*
X164175623Y-92848000D01*
X162975631Y-92848000D01*
X162299440Y-92171810D01*
X162327205Y-92130256D01*
X162405226Y-91941898D01*
X162445000Y-91741939D01*
X162445000Y-91538061D01*
X162405226Y-91338102D01*
X162327205Y-91149744D01*
X162213937Y-90980226D01*
X162069774Y-90836063D01*
X161900256Y-90722795D01*
X161711898Y-90644774D01*
X161511939Y-90605000D01*
X161318030Y-90605000D01*
X161318030Y-89063433D01*
X161321716Y-89026010D01*
X161318030Y-88988585D01*
X161307004Y-88876633D01*
X161263432Y-88732996D01*
X161196087Y-88607002D01*
X161238338Y-88607002D01*
X161281998Y-88611302D01*
X161325658Y-88607002D01*
X161325665Y-88607002D01*
X161456272Y-88594138D01*
X161623849Y-88543305D01*
X161778289Y-88460755D01*
X161913657Y-88349661D01*
X161941497Y-88315738D01*
X163867737Y-86389498D01*
X163901659Y-86361659D01*
X163955316Y-86296278D01*
X163960506Y-86300537D01*
X164070820Y-86359502D01*
X164190518Y-86395812D01*
X164315000Y-86408072D01*
X165765000Y-86408072D01*
X165889482Y-86395812D01*
X166009180Y-86359502D01*
X166119494Y-86300537D01*
X166216185Y-86221185D01*
X166295537Y-86124494D01*
X166354502Y-86014180D01*
X166390812Y-85894482D01*
X166403072Y-85770000D01*
X166403072Y-85320000D01*
X166393223Y-85220000D01*
X166403072Y-85120000D01*
X166403072Y-84670000D01*
X166393223Y-84570000D01*
X166403072Y-84470000D01*
X166403072Y-84020000D01*
X166393223Y-83920000D01*
X166403072Y-83820000D01*
X166403072Y-83370000D01*
X166390812Y-83245518D01*
X166354502Y-83125820D01*
X166295537Y-83015506D01*
X166216185Y-82918815D01*
X166119494Y-82839463D01*
X166009180Y-82780498D01*
X165889482Y-82744188D01*
X165765000Y-82731928D01*
X164469559Y-82731928D01*
X164399349Y-82661718D01*
X164425812Y-82574482D01*
X164438072Y-82450000D01*
X164438072Y-81450000D01*
X164425812Y-81325518D01*
X164420977Y-81309578D01*
X164427205Y-81300256D01*
X164505226Y-81111898D01*
X164545000Y-80911939D01*
X164545000Y-80708061D01*
X164505226Y-80508102D01*
X164427205Y-80319744D01*
X164313937Y-80150226D01*
X164169774Y-80006063D01*
X164000256Y-79892795D01*
X163811898Y-79814774D01*
X163611939Y-79775000D01*
X163408061Y-79775000D01*
X163208102Y-79814774D01*
X163019744Y-79892795D01*
X162850226Y-80006063D01*
X162797517Y-80058772D01*
X162794937Y-80059026D01*
X162651300Y-80102598D01*
X162518923Y-80173355D01*
X162428673Y-80247421D01*
X160295979Y-80247421D01*
X160295979Y-80192630D01*
X160822346Y-79666263D01*
X160851422Y-79642401D01*
X160930007Y-79546645D01*
X160946645Y-79526372D01*
X160996780Y-79432575D01*
X161017402Y-79393994D01*
X161060974Y-79250357D01*
X161072000Y-79138405D01*
X161072000Y-79138402D01*
X161075686Y-79100979D01*
X161072000Y-79063556D01*
X161072000Y-76359748D01*
X161350189Y-76081559D01*
X161379265Y-76057697D01*
X161451236Y-75970000D01*
X161474488Y-75941668D01*
X161545244Y-75809291D01*
X161545245Y-75809290D01*
X161588817Y-75665653D01*
X161599843Y-75553701D01*
X161599843Y-75553698D01*
X161603529Y-75516275D01*
X161599843Y-75478852D01*
X161599843Y-72255440D01*
X161637843Y-72209137D01*
X161686658Y-72268618D01*
G37*
G04 #@! TD.AperFunction*
D23*
X146541928Y-95660000D02*
X146554188Y-95784482D01*
X146590498Y-95904180D01*
X146649463Y-96014494D01*
X146728815Y-96111185D01*
X146825506Y-96190537D01*
X146935820Y-96249502D01*
X147055518Y-96285812D01*
X147102843Y-96290473D01*
X147171928Y-96359558D01*
X147171928Y-97080000D01*
X147184188Y-97204482D01*
X147220498Y-97324180D01*
X147279463Y-97434494D01*
X147316809Y-97480000D01*
X147279463Y-97525506D01*
X147220498Y-97635820D01*
X147184188Y-97755518D01*
X147171928Y-97880000D01*
X147171928Y-98448000D01*
X145775630Y-98448000D01*
X145717000Y-98389370D01*
X145717000Y-98370350D01*
X145736186Y-98346972D01*
X145823007Y-98184540D01*
X145876471Y-98008292D01*
X145890000Y-97870932D01*
X145890000Y-96829068D01*
X145876471Y-96691708D01*
X145841282Y-96575706D01*
X145944494Y-96520537D01*
X146041185Y-96441185D01*
X146120537Y-96344494D01*
X146179502Y-96234180D01*
X146215812Y-96114482D01*
X146228072Y-95990000D01*
X146228072Y-95390000D01*
X146215812Y-95265518D01*
X146189567Y-95179000D01*
X146541928Y-95179000D01*
X146541928Y-95660000D01*
G04 #@! TA.AperFunction,Conductor*
D25*
G36*
X146541928Y-95660000D02*
G01*
X146554188Y-95784482D01*
X146590498Y-95904180D01*
X146649463Y-96014494D01*
X146728815Y-96111185D01*
X146825506Y-96190537D01*
X146935820Y-96249502D01*
X147055518Y-96285812D01*
X147102843Y-96290473D01*
X147171928Y-96359558D01*
X147171928Y-97080000D01*
X147184188Y-97204482D01*
X147220498Y-97324180D01*
X147279463Y-97434494D01*
X147316809Y-97480000D01*
X147279463Y-97525506D01*
X147220498Y-97635820D01*
X147184188Y-97755518D01*
X147171928Y-97880000D01*
X147171928Y-98448000D01*
X145775630Y-98448000D01*
X145717000Y-98389370D01*
X145717000Y-98370350D01*
X145736186Y-98346972D01*
X145823007Y-98184540D01*
X145876471Y-98008292D01*
X145890000Y-97870932D01*
X145890000Y-96829068D01*
X145876471Y-96691708D01*
X145841282Y-96575706D01*
X145944494Y-96520537D01*
X146041185Y-96441185D01*
X146120537Y-96344494D01*
X146179502Y-96234180D01*
X146215812Y-96114482D01*
X146228072Y-95990000D01*
X146228072Y-95390000D01*
X146215812Y-95265518D01*
X146189567Y-95179000D01*
X146541928Y-95179000D01*
X146541928Y-95660000D01*
G37*
G04 #@! TD.AperFunction*
D23*
X142449744Y-83696195D02*
X142638102Y-83774216D01*
X142838061Y-83813990D01*
X142897370Y-83813990D01*
X143125726Y-84042346D01*
X143149588Y-84071422D01*
X143202413Y-84114774D01*
X143265617Y-84166645D01*
X143309735Y-84190226D01*
X143397995Y-84237402D01*
X143469264Y-84259021D01*
X143433378Y-84312728D01*
X143355833Y-84499939D01*
X143316300Y-84698682D01*
X143316300Y-84901318D01*
X143355833Y-85100061D01*
X143433378Y-85287272D01*
X143532087Y-85435000D01*
X143433378Y-85582728D01*
X143355833Y-85769939D01*
X143316300Y-85968682D01*
X143316300Y-86171318D01*
X143355833Y-86370061D01*
X143433378Y-86557272D01*
X143532087Y-86705000D01*
X143433378Y-86852728D01*
X143355833Y-87039939D01*
X143316300Y-87238682D01*
X143316300Y-87291070D01*
X143047654Y-87559716D01*
X143018578Y-87583578D01*
X142979836Y-87630786D01*
X142923355Y-87699608D01*
X142908500Y-87727401D01*
X142852598Y-87831986D01*
X142809026Y-87975623D01*
X142800730Y-88059855D01*
X142794314Y-88125000D01*
X142798000Y-88162424D01*
X142798001Y-89022567D01*
X142794314Y-89060000D01*
X142809027Y-89209378D01*
X142852599Y-89353015D01*
X142923355Y-89485392D01*
X142990684Y-89567432D01*
X143018579Y-89601422D01*
X143047649Y-89625279D01*
X143864721Y-90442351D01*
X143888578Y-90471422D01*
X143917648Y-90495279D01*
X144004607Y-90566645D01*
X144072240Y-90602795D01*
X144136985Y-90637402D01*
X144280622Y-90680974D01*
X144392574Y-90692000D01*
X144392577Y-90692000D01*
X144430000Y-90695686D01*
X144467423Y-90692000D01*
X146152577Y-90692000D01*
X146190000Y-90695686D01*
X146227423Y-90692000D01*
X146227426Y-90692000D01*
X146272949Y-90687517D01*
X146230226Y-90716063D01*
X146086063Y-90860226D01*
X145972795Y-91029744D01*
X145894774Y-91218102D01*
X145855000Y-91418061D01*
X145855000Y-91621939D01*
X145894774Y-91821898D01*
X145972795Y-92010256D01*
X146086063Y-92179774D01*
X146230226Y-92323937D01*
X146399744Y-92437205D01*
X146588102Y-92515226D01*
X146788061Y-92555000D01*
X146981928Y-92555000D01*
X146981928Y-93250000D01*
X146994188Y-93374482D01*
X147002232Y-93401000D01*
X145835119Y-93401000D01*
X145834180Y-93400498D01*
X145714482Y-93364188D01*
X145590000Y-93351928D01*
X144590000Y-93351928D01*
X144579000Y-93353011D01*
X144579000Y-93033659D01*
X144583300Y-92989999D01*
X144579000Y-92946339D01*
X144579000Y-92946333D01*
X144566136Y-92815726D01*
X144566136Y-92815724D01*
X144532953Y-92706333D01*
X144515303Y-92648149D01*
X144432753Y-92493709D01*
X144321659Y-92358341D01*
X144287742Y-92330506D01*
X142429000Y-90471765D01*
X142429000Y-85402468D01*
X142457205Y-85360256D01*
X142535226Y-85171898D01*
X142575000Y-84971939D01*
X142575000Y-84768061D01*
X142535226Y-84568102D01*
X142457205Y-84379744D01*
X142429000Y-84337532D01*
X142429000Y-83682334D01*
X142449744Y-83696195D01*
G04 #@! TA.AperFunction,Conductor*
D25*
G36*
X142449744Y-83696195D02*
G01*
X142638102Y-83774216D01*
X142838061Y-83813990D01*
X142897370Y-83813990D01*
X143125726Y-84042346D01*
X143149588Y-84071422D01*
X143202413Y-84114774D01*
X143265617Y-84166645D01*
X143309735Y-84190226D01*
X143397995Y-84237402D01*
X143469264Y-84259021D01*
X143433378Y-84312728D01*
X143355833Y-84499939D01*
X143316300Y-84698682D01*
X143316300Y-84901318D01*
X143355833Y-85100061D01*
X143433378Y-85287272D01*
X143532087Y-85435000D01*
X143433378Y-85582728D01*
X143355833Y-85769939D01*
X143316300Y-85968682D01*
X143316300Y-86171318D01*
X143355833Y-86370061D01*
X143433378Y-86557272D01*
X143532087Y-86705000D01*
X143433378Y-86852728D01*
X143355833Y-87039939D01*
X143316300Y-87238682D01*
X143316300Y-87291070D01*
X143047654Y-87559716D01*
X143018578Y-87583578D01*
X142979836Y-87630786D01*
X142923355Y-87699608D01*
X142908500Y-87727401D01*
X142852598Y-87831986D01*
X142809026Y-87975623D01*
X142800730Y-88059855D01*
X142794314Y-88125000D01*
X142798000Y-88162424D01*
X142798001Y-89022567D01*
X142794314Y-89060000D01*
X142809027Y-89209378D01*
X142852599Y-89353015D01*
X142923355Y-89485392D01*
X142990684Y-89567432D01*
X143018579Y-89601422D01*
X143047649Y-89625279D01*
X143864721Y-90442351D01*
X143888578Y-90471422D01*
X143917648Y-90495279D01*
X144004607Y-90566645D01*
X144072240Y-90602795D01*
X144136985Y-90637402D01*
X144280622Y-90680974D01*
X144392574Y-90692000D01*
X144392577Y-90692000D01*
X144430000Y-90695686D01*
X144467423Y-90692000D01*
X146152577Y-90692000D01*
X146190000Y-90695686D01*
X146227423Y-90692000D01*
X146227426Y-90692000D01*
X146272949Y-90687517D01*
X146230226Y-90716063D01*
X146086063Y-90860226D01*
X145972795Y-91029744D01*
X145894774Y-91218102D01*
X145855000Y-91418061D01*
X145855000Y-91621939D01*
X145894774Y-91821898D01*
X145972795Y-92010256D01*
X146086063Y-92179774D01*
X146230226Y-92323937D01*
X146399744Y-92437205D01*
X146588102Y-92515226D01*
X146788061Y-92555000D01*
X146981928Y-92555000D01*
X146981928Y-93250000D01*
X146994188Y-93374482D01*
X147002232Y-93401000D01*
X145835119Y-93401000D01*
X145834180Y-93400498D01*
X145714482Y-93364188D01*
X145590000Y-93351928D01*
X144590000Y-93351928D01*
X144579000Y-93353011D01*
X144579000Y-93033659D01*
X144583300Y-92989999D01*
X144579000Y-92946339D01*
X144579000Y-92946333D01*
X144566136Y-92815726D01*
X144566136Y-92815724D01*
X144532953Y-92706333D01*
X144515303Y-92648149D01*
X144432753Y-92493709D01*
X144321659Y-92358341D01*
X144287742Y-92330506D01*
X142429000Y-90471765D01*
X142429000Y-85402468D01*
X142457205Y-85360256D01*
X142535226Y-85171898D01*
X142575000Y-84971939D01*
X142575000Y-84768061D01*
X142535226Y-84568102D01*
X142457205Y-84379744D01*
X142429000Y-84337532D01*
X142429000Y-83682334D01*
X142449744Y-83696195D01*
G37*
G04 #@! TD.AperFunction*
D23*
X153526853Y-91533912D02*
X153538072Y-91420000D01*
X153538072Y-90820000D01*
X153525812Y-90695518D01*
X153489502Y-90575820D01*
X153430537Y-90465506D01*
X153351185Y-90368815D01*
X153254494Y-90289463D01*
X153144180Y-90230498D01*
X153024482Y-90194188D01*
X152900000Y-90181928D01*
X152300000Y-90181928D01*
X152175518Y-90194188D01*
X152055820Y-90230498D01*
X151945506Y-90289463D01*
X151848815Y-90368815D01*
X151769463Y-90465506D01*
X151710498Y-90575820D01*
X151674188Y-90695518D01*
X151661928Y-90820000D01*
X151661928Y-91420000D01*
X151674188Y-91544482D01*
X151710498Y-91664180D01*
X151769463Y-91774494D01*
X151848815Y-91871185D01*
X151945506Y-91950537D01*
X152055820Y-92009502D01*
X152175518Y-92045812D01*
X152300000Y-92058072D01*
X152900000Y-92058072D01*
X153013912Y-92046853D01*
X152441178Y-92619587D01*
X152324482Y-92584188D01*
X152200000Y-92571928D01*
X150700000Y-92571928D01*
X150575518Y-92584188D01*
X150455820Y-92620498D01*
X150450550Y-92623315D01*
X150367041Y-92539806D01*
X150402753Y-92496291D01*
X150485303Y-92341851D01*
X150520586Y-92225538D01*
X150611185Y-92151185D01*
X150690537Y-92054494D01*
X150749502Y-91944180D01*
X150785812Y-91824482D01*
X150798072Y-91700000D01*
X150798072Y-91100000D01*
X150785812Y-90975518D01*
X150749502Y-90855820D01*
X150690537Y-90745506D01*
X150611185Y-90648815D01*
X150514494Y-90569463D01*
X150404180Y-90510498D01*
X150284482Y-90474188D01*
X150160000Y-90461928D01*
X149160000Y-90461928D01*
X149035518Y-90474188D01*
X148961483Y-90496646D01*
X148854482Y-90464188D01*
X148730000Y-90451928D01*
X147730000Y-90451928D01*
X147605518Y-90464188D01*
X147485820Y-90500498D01*
X147375506Y-90559463D01*
X147342010Y-90586953D01*
X147191898Y-90524774D01*
X146991939Y-90485000D01*
X146788061Y-90485000D01*
X146691465Y-90504214D01*
X146731422Y-90471422D01*
X146755284Y-90442346D01*
X148225631Y-88972000D01*
X156088764Y-88972000D01*
X153526853Y-91533912D01*
G04 #@! TA.AperFunction,Conductor*
D25*
G36*
X153526853Y-91533912D02*
G01*
X153538072Y-91420000D01*
X153538072Y-90820000D01*
X153525812Y-90695518D01*
X153489502Y-90575820D01*
X153430537Y-90465506D01*
X153351185Y-90368815D01*
X153254494Y-90289463D01*
X153144180Y-90230498D01*
X153024482Y-90194188D01*
X152900000Y-90181928D01*
X152300000Y-90181928D01*
X152175518Y-90194188D01*
X152055820Y-90230498D01*
X151945506Y-90289463D01*
X151848815Y-90368815D01*
X151769463Y-90465506D01*
X151710498Y-90575820D01*
X151674188Y-90695518D01*
X151661928Y-90820000D01*
X151661928Y-91420000D01*
X151674188Y-91544482D01*
X151710498Y-91664180D01*
X151769463Y-91774494D01*
X151848815Y-91871185D01*
X151945506Y-91950537D01*
X152055820Y-92009502D01*
X152175518Y-92045812D01*
X152300000Y-92058072D01*
X152900000Y-92058072D01*
X153013912Y-92046853D01*
X152441178Y-92619587D01*
X152324482Y-92584188D01*
X152200000Y-92571928D01*
X150700000Y-92571928D01*
X150575518Y-92584188D01*
X150455820Y-92620498D01*
X150450550Y-92623315D01*
X150367041Y-92539806D01*
X150402753Y-92496291D01*
X150485303Y-92341851D01*
X150520586Y-92225538D01*
X150611185Y-92151185D01*
X150690537Y-92054494D01*
X150749502Y-91944180D01*
X150785812Y-91824482D01*
X150798072Y-91700000D01*
X150798072Y-91100000D01*
X150785812Y-90975518D01*
X150749502Y-90855820D01*
X150690537Y-90745506D01*
X150611185Y-90648815D01*
X150514494Y-90569463D01*
X150404180Y-90510498D01*
X150284482Y-90474188D01*
X150160000Y-90461928D01*
X149160000Y-90461928D01*
X149035518Y-90474188D01*
X148961483Y-90496646D01*
X148854482Y-90464188D01*
X148730000Y-90451928D01*
X147730000Y-90451928D01*
X147605518Y-90464188D01*
X147485820Y-90500498D01*
X147375506Y-90559463D01*
X147342010Y-90586953D01*
X147191898Y-90524774D01*
X146991939Y-90485000D01*
X146788061Y-90485000D01*
X146691465Y-90504214D01*
X146731422Y-90471422D01*
X146755284Y-90442346D01*
X148225631Y-88972000D01*
X156088764Y-88972000D01*
X153526853Y-91533912D01*
G37*
G04 #@! TD.AperFunction*
D23*
X154200226Y-78596063D02*
X154056063Y-78740226D01*
X153942795Y-78909744D01*
X153864774Y-79098102D01*
X153825000Y-79298061D01*
X153825000Y-79501939D01*
X153864774Y-79701898D01*
X153942795Y-79890256D01*
X154056063Y-80059774D01*
X154200226Y-80203937D01*
X154369744Y-80317205D01*
X154558102Y-80395226D01*
X154758061Y-80435000D01*
X154961939Y-80435000D01*
X155161898Y-80395226D01*
X155350256Y-80317205D01*
X155473818Y-80234644D01*
X155476765Y-80238235D01*
X155567502Y-80312700D01*
X155562795Y-80319744D01*
X155484774Y-80508102D01*
X155445000Y-80708061D01*
X155445000Y-80911939D01*
X155465937Y-81017196D01*
X155458333Y-81031421D01*
X155412598Y-81116986D01*
X155381781Y-81218574D01*
X155314062Y-81345269D01*
X155271350Y-81486071D01*
X155256928Y-81632500D01*
X155256928Y-82107500D01*
X155271350Y-82253929D01*
X155314062Y-82394731D01*
X155383422Y-82524495D01*
X155476765Y-82638235D01*
X155590505Y-82731578D01*
X155720269Y-82800938D01*
X155861071Y-82843650D01*
X156007500Y-82858072D01*
X156232500Y-82858072D01*
X156378929Y-82843650D01*
X156519731Y-82800938D01*
X156649495Y-82731578D01*
X156763235Y-82638235D01*
X156856578Y-82524495D01*
X156925938Y-82394731D01*
X156968650Y-82253929D01*
X156983072Y-82107500D01*
X156983072Y-81718642D01*
X157139774Y-81613937D01*
X157160830Y-81592881D01*
X157156928Y-81632500D01*
X157156928Y-82107500D01*
X157171350Y-82253929D01*
X157214062Y-82394731D01*
X157283422Y-82524495D01*
X157376765Y-82638235D01*
X157490505Y-82731578D01*
X157620269Y-82800938D01*
X157725963Y-82833000D01*
X157558307Y-82833000D01*
X157520884Y-82829314D01*
X157483461Y-82833000D01*
X157483458Y-82833000D01*
X157371506Y-82844026D01*
X157227869Y-82887598D01*
X157202450Y-82901185D01*
X157095491Y-82958355D01*
X157082757Y-82968806D01*
X156979462Y-83053578D01*
X156955600Y-83082654D01*
X155690254Y-84348000D01*
X150711711Y-84348000D01*
X150669774Y-84306063D01*
X150500256Y-84192795D01*
X150311898Y-84114774D01*
X150111939Y-84075000D01*
X149908061Y-84075000D01*
X149708102Y-84114774D01*
X149519744Y-84192795D01*
X149350226Y-84306063D01*
X149206063Y-84450226D01*
X149092795Y-84619744D01*
X149014774Y-84808102D01*
X148975000Y-85008061D01*
X148975000Y-85211939D01*
X149014774Y-85411898D01*
X149092795Y-85600256D01*
X149206063Y-85769774D01*
X149350226Y-85913937D01*
X149519744Y-86027205D01*
X149708102Y-86105226D01*
X149908061Y-86145000D01*
X150111939Y-86145000D01*
X150311898Y-86105226D01*
X150500256Y-86027205D01*
X150669774Y-85913937D01*
X150711711Y-85872000D01*
X155968461Y-85872000D01*
X156005884Y-85875686D01*
X156043307Y-85872000D01*
X156043310Y-85872000D01*
X156155262Y-85860974D01*
X156298899Y-85817402D01*
X156391928Y-85767677D01*
X156391928Y-86070000D01*
X156404188Y-86194482D01*
X156440498Y-86314180D01*
X156461959Y-86354330D01*
X156456063Y-86360226D01*
X156342795Y-86529744D01*
X156264774Y-86718102D01*
X156225000Y-86918061D01*
X156225000Y-87121939D01*
X156264774Y-87321898D01*
X156317008Y-87448000D01*
X147947422Y-87448000D01*
X147909999Y-87444314D01*
X147872576Y-87448000D01*
X147872574Y-87448000D01*
X147760622Y-87459026D01*
X147616985Y-87502598D01*
X147484608Y-87573355D01*
X147368578Y-87668578D01*
X147344721Y-87697648D01*
X146121610Y-88920760D01*
X146160300Y-88726249D01*
X146160300Y-88493751D01*
X146114942Y-88265719D01*
X146107622Y-88248047D01*
X146270758Y-88139043D01*
X146414043Y-87995758D01*
X146526622Y-87827272D01*
X146604167Y-87640061D01*
X146643700Y-87441318D01*
X146643700Y-87238682D01*
X146604167Y-87039939D01*
X146526622Y-86852728D01*
X146427913Y-86705000D01*
X146526622Y-86557272D01*
X146604167Y-86370061D01*
X146643700Y-86171318D01*
X146643700Y-85968682D01*
X146623717Y-85868223D01*
X146708061Y-85885000D01*
X146911939Y-85885000D01*
X147111898Y-85845226D01*
X147300256Y-85767205D01*
X147469774Y-85653937D01*
X147613937Y-85509774D01*
X147727205Y-85340256D01*
X147805226Y-85151898D01*
X147845000Y-84951939D01*
X147845000Y-84748061D01*
X147805226Y-84548102D01*
X147727205Y-84359744D01*
X147613937Y-84190226D01*
X147469774Y-84046063D01*
X147300256Y-83932795D01*
X147111898Y-83854774D01*
X146911939Y-83815000D01*
X146708061Y-83815000D01*
X146508102Y-83854774D01*
X146319744Y-83932795D01*
X146244245Y-83983242D01*
X146102272Y-83888378D01*
X145915061Y-83810833D01*
X145716318Y-83771300D01*
X145513682Y-83771300D01*
X145338941Y-83806059D01*
X145373700Y-83631318D01*
X145373700Y-83428682D01*
X145338941Y-83253941D01*
X145513682Y-83288700D01*
X145716318Y-83288700D01*
X145915061Y-83249167D01*
X146102272Y-83171622D01*
X146270758Y-83059043D01*
X146414043Y-82915758D01*
X146526622Y-82747272D01*
X146604167Y-82560061D01*
X146643700Y-82361318D01*
X146643700Y-82158682D01*
X146611640Y-81997509D01*
X146747397Y-81906799D01*
X146911799Y-81742397D01*
X147040968Y-81549082D01*
X147129942Y-81334281D01*
X147175300Y-81106249D01*
X147175300Y-80873751D01*
X147129942Y-80645719D01*
X147040968Y-80430918D01*
X146911799Y-80237603D01*
X146864196Y-80190000D01*
X147371928Y-80190000D01*
X147371928Y-80790000D01*
X147384188Y-80914482D01*
X147420498Y-81034180D01*
X147479463Y-81144494D01*
X147516809Y-81190000D01*
X147479463Y-81235506D01*
X147420498Y-81345820D01*
X147384188Y-81465518D01*
X147371928Y-81590000D01*
X147371928Y-82190000D01*
X147384188Y-82314482D01*
X147420498Y-82434180D01*
X147479463Y-82544494D01*
X147503728Y-82574061D01*
X147464774Y-82668102D01*
X147425000Y-82868061D01*
X147425000Y-83071939D01*
X147464774Y-83271898D01*
X147542795Y-83460256D01*
X147656063Y-83629774D01*
X147800226Y-83773937D01*
X147969744Y-83887205D01*
X148158102Y-83965226D01*
X148358061Y-84005000D01*
X148561939Y-84005000D01*
X148761898Y-83965226D01*
X148950256Y-83887205D01*
X149119774Y-83773937D01*
X149263937Y-83629774D01*
X149377205Y-83460256D01*
X149455226Y-83271898D01*
X149495000Y-83071939D01*
X149495000Y-82868061D01*
X149455226Y-82668102D01*
X149448417Y-82651663D01*
X149461185Y-82641185D01*
X149540537Y-82544494D01*
X149599502Y-82434180D01*
X149635812Y-82314482D01*
X149648072Y-82190000D01*
X149648072Y-81590000D01*
X149635812Y-81465518D01*
X149599502Y-81345820D01*
X149549353Y-81252000D01*
X149912577Y-81252000D01*
X149950000Y-81255686D01*
X149987423Y-81252000D01*
X149987426Y-81252000D01*
X150099378Y-81240974D01*
X150243015Y-81197402D01*
X150375392Y-81126645D01*
X150491422Y-81031422D01*
X150515284Y-81002346D01*
X150842630Y-80675000D01*
X150901939Y-80675000D01*
X151101898Y-80635226D01*
X151290256Y-80557205D01*
X151459774Y-80443937D01*
X151603937Y-80299774D01*
X151717205Y-80130256D01*
X151795226Y-79941898D01*
X151835000Y-79741939D01*
X151835000Y-79538061D01*
X151795226Y-79338102D01*
X151717205Y-79149744D01*
X151603937Y-78980226D01*
X151459774Y-78836063D01*
X151290256Y-78722795D01*
X151101898Y-78644774D01*
X150901939Y-78605000D01*
X150698061Y-78605000D01*
X150498102Y-78644774D01*
X150309744Y-78722795D01*
X150140226Y-78836063D01*
X149996063Y-78980226D01*
X149882795Y-79149744D01*
X149804774Y-79338102D01*
X149765000Y-79538061D01*
X149765000Y-79597370D01*
X149634370Y-79728000D01*
X149448007Y-79728000D01*
X149364494Y-79659463D01*
X149254180Y-79600498D01*
X149134482Y-79564188D01*
X149010000Y-79551928D01*
X148010000Y-79551928D01*
X147885518Y-79564188D01*
X147765820Y-79600498D01*
X147655506Y-79659463D01*
X147558815Y-79738815D01*
X147479463Y-79835506D01*
X147420498Y-79945820D01*
X147384188Y-80065518D01*
X147371928Y-80190000D01*
X146864196Y-80190000D01*
X146747397Y-80073201D01*
X146554082Y-79944032D01*
X146339281Y-79855058D01*
X146111249Y-79809700D01*
X145878751Y-79809700D01*
X145650719Y-79855058D01*
X145435918Y-79944032D01*
X145242603Y-80073201D01*
X145078201Y-80237603D01*
X144980001Y-80384570D01*
X144881800Y-80237603D01*
X144717398Y-80073201D01*
X144524083Y-79944032D01*
X144309282Y-79855058D01*
X144081250Y-79809700D01*
X144037930Y-79809700D01*
X145265631Y-78582000D01*
X154221273Y-78582000D01*
X154200226Y-78596063D01*
G04 #@! TA.AperFunction,Conductor*
D25*
G36*
X154200226Y-78596063D02*
G01*
X154056063Y-78740226D01*
X153942795Y-78909744D01*
X153864774Y-79098102D01*
X153825000Y-79298061D01*
X153825000Y-79501939D01*
X153864774Y-79701898D01*
X153942795Y-79890256D01*
X154056063Y-80059774D01*
X154200226Y-80203937D01*
X154369744Y-80317205D01*
X154558102Y-80395226D01*
X154758061Y-80435000D01*
X154961939Y-80435000D01*
X155161898Y-80395226D01*
X155350256Y-80317205D01*
X155473818Y-80234644D01*
X155476765Y-80238235D01*
X155567502Y-80312700D01*
X155562795Y-80319744D01*
X155484774Y-80508102D01*
X155445000Y-80708061D01*
X155445000Y-80911939D01*
X155465937Y-81017196D01*
X155458333Y-81031421D01*
X155412598Y-81116986D01*
X155381781Y-81218574D01*
X155314062Y-81345269D01*
X155271350Y-81486071D01*
X155256928Y-81632500D01*
X155256928Y-82107500D01*
X155271350Y-82253929D01*
X155314062Y-82394731D01*
X155383422Y-82524495D01*
X155476765Y-82638235D01*
X155590505Y-82731578D01*
X155720269Y-82800938D01*
X155861071Y-82843650D01*
X156007500Y-82858072D01*
X156232500Y-82858072D01*
X156378929Y-82843650D01*
X156519731Y-82800938D01*
X156649495Y-82731578D01*
X156763235Y-82638235D01*
X156856578Y-82524495D01*
X156925938Y-82394731D01*
X156968650Y-82253929D01*
X156983072Y-82107500D01*
X156983072Y-81718642D01*
X157139774Y-81613937D01*
X157160830Y-81592881D01*
X157156928Y-81632500D01*
X157156928Y-82107500D01*
X157171350Y-82253929D01*
X157214062Y-82394731D01*
X157283422Y-82524495D01*
X157376765Y-82638235D01*
X157490505Y-82731578D01*
X157620269Y-82800938D01*
X157725963Y-82833000D01*
X157558307Y-82833000D01*
X157520884Y-82829314D01*
X157483461Y-82833000D01*
X157483458Y-82833000D01*
X157371506Y-82844026D01*
X157227869Y-82887598D01*
X157202450Y-82901185D01*
X157095491Y-82958355D01*
X157082757Y-82968806D01*
X156979462Y-83053578D01*
X156955600Y-83082654D01*
X155690254Y-84348000D01*
X150711711Y-84348000D01*
X150669774Y-84306063D01*
X150500256Y-84192795D01*
X150311898Y-84114774D01*
X150111939Y-84075000D01*
X149908061Y-84075000D01*
X149708102Y-84114774D01*
X149519744Y-84192795D01*
X149350226Y-84306063D01*
X149206063Y-84450226D01*
X149092795Y-84619744D01*
X149014774Y-84808102D01*
X148975000Y-85008061D01*
X148975000Y-85211939D01*
X149014774Y-85411898D01*
X149092795Y-85600256D01*
X149206063Y-85769774D01*
X149350226Y-85913937D01*
X149519744Y-86027205D01*
X149708102Y-86105226D01*
X149908061Y-86145000D01*
X150111939Y-86145000D01*
X150311898Y-86105226D01*
X150500256Y-86027205D01*
X150669774Y-85913937D01*
X150711711Y-85872000D01*
X155968461Y-85872000D01*
X156005884Y-85875686D01*
X156043307Y-85872000D01*
X156043310Y-85872000D01*
X156155262Y-85860974D01*
X156298899Y-85817402D01*
X156391928Y-85767677D01*
X156391928Y-86070000D01*
X156404188Y-86194482D01*
X156440498Y-86314180D01*
X156461959Y-86354330D01*
X156456063Y-86360226D01*
X156342795Y-86529744D01*
X156264774Y-86718102D01*
X156225000Y-86918061D01*
X156225000Y-87121939D01*
X156264774Y-87321898D01*
X156317008Y-87448000D01*
X147947422Y-87448000D01*
X147909999Y-87444314D01*
X147872576Y-87448000D01*
X147872574Y-87448000D01*
X147760622Y-87459026D01*
X147616985Y-87502598D01*
X147484608Y-87573355D01*
X147368578Y-87668578D01*
X147344721Y-87697648D01*
X146121610Y-88920760D01*
X146160300Y-88726249D01*
X146160300Y-88493751D01*
X146114942Y-88265719D01*
X146107622Y-88248047D01*
X146270758Y-88139043D01*
X146414043Y-87995758D01*
X146526622Y-87827272D01*
X146604167Y-87640061D01*
X146643700Y-87441318D01*
X146643700Y-87238682D01*
X146604167Y-87039939D01*
X146526622Y-86852728D01*
X146427913Y-86705000D01*
X146526622Y-86557272D01*
X146604167Y-86370061D01*
X146643700Y-86171318D01*
X146643700Y-85968682D01*
X146623717Y-85868223D01*
X146708061Y-85885000D01*
X146911939Y-85885000D01*
X147111898Y-85845226D01*
X147300256Y-85767205D01*
X147469774Y-85653937D01*
X147613937Y-85509774D01*
X147727205Y-85340256D01*
X147805226Y-85151898D01*
X147845000Y-84951939D01*
X147845000Y-84748061D01*
X147805226Y-84548102D01*
X147727205Y-84359744D01*
X147613937Y-84190226D01*
X147469774Y-84046063D01*
X147300256Y-83932795D01*
X147111898Y-83854774D01*
X146911939Y-83815000D01*
X146708061Y-83815000D01*
X146508102Y-83854774D01*
X146319744Y-83932795D01*
X146244245Y-83983242D01*
X146102272Y-83888378D01*
X145915061Y-83810833D01*
X145716318Y-83771300D01*
X145513682Y-83771300D01*
X145338941Y-83806059D01*
X145373700Y-83631318D01*
X145373700Y-83428682D01*
X145338941Y-83253941D01*
X145513682Y-83288700D01*
X145716318Y-83288700D01*
X145915061Y-83249167D01*
X146102272Y-83171622D01*
X146270758Y-83059043D01*
X146414043Y-82915758D01*
X146526622Y-82747272D01*
X146604167Y-82560061D01*
X146643700Y-82361318D01*
X146643700Y-82158682D01*
X146611640Y-81997509D01*
X146747397Y-81906799D01*
X146911799Y-81742397D01*
X147040968Y-81549082D01*
X147129942Y-81334281D01*
X147175300Y-81106249D01*
X147175300Y-80873751D01*
X147129942Y-80645719D01*
X147040968Y-80430918D01*
X146911799Y-80237603D01*
X146864196Y-80190000D01*
X147371928Y-80190000D01*
X147371928Y-80790000D01*
X147384188Y-80914482D01*
X147420498Y-81034180D01*
X147479463Y-81144494D01*
X147516809Y-81190000D01*
X147479463Y-81235506D01*
X147420498Y-81345820D01*
X147384188Y-81465518D01*
X147371928Y-81590000D01*
X147371928Y-82190000D01*
X147384188Y-82314482D01*
X147420498Y-82434180D01*
X147479463Y-82544494D01*
X147503728Y-82574061D01*
X147464774Y-82668102D01*
X147425000Y-82868061D01*
X147425000Y-83071939D01*
X147464774Y-83271898D01*
X147542795Y-83460256D01*
X147656063Y-83629774D01*
X147800226Y-83773937D01*
X147969744Y-83887205D01*
X148158102Y-83965226D01*
X148358061Y-84005000D01*
X148561939Y-84005000D01*
X148761898Y-83965226D01*
X148950256Y-83887205D01*
X149119774Y-83773937D01*
X149263937Y-83629774D01*
X149377205Y-83460256D01*
X149455226Y-83271898D01*
X149495000Y-83071939D01*
X149495000Y-82868061D01*
X149455226Y-82668102D01*
X149448417Y-82651663D01*
X149461185Y-82641185D01*
X149540537Y-82544494D01*
X149599502Y-82434180D01*
X149635812Y-82314482D01*
X149648072Y-82190000D01*
X149648072Y-81590000D01*
X149635812Y-81465518D01*
X149599502Y-81345820D01*
X149549353Y-81252000D01*
X149912577Y-81252000D01*
X149950000Y-81255686D01*
X149987423Y-81252000D01*
X149987426Y-81252000D01*
X150099378Y-81240974D01*
X150243015Y-81197402D01*
X150375392Y-81126645D01*
X150491422Y-81031422D01*
X150515284Y-81002346D01*
X150842630Y-80675000D01*
X150901939Y-80675000D01*
X151101898Y-80635226D01*
X151290256Y-80557205D01*
X151459774Y-80443937D01*
X151603937Y-80299774D01*
X151717205Y-80130256D01*
X151795226Y-79941898D01*
X151835000Y-79741939D01*
X151835000Y-79538061D01*
X151795226Y-79338102D01*
X151717205Y-79149744D01*
X151603937Y-78980226D01*
X151459774Y-78836063D01*
X151290256Y-78722795D01*
X151101898Y-78644774D01*
X150901939Y-78605000D01*
X150698061Y-78605000D01*
X150498102Y-78644774D01*
X150309744Y-78722795D01*
X150140226Y-78836063D01*
X149996063Y-78980226D01*
X149882795Y-79149744D01*
X149804774Y-79338102D01*
X149765000Y-79538061D01*
X149765000Y-79597370D01*
X149634370Y-79728000D01*
X149448007Y-79728000D01*
X149364494Y-79659463D01*
X149254180Y-79600498D01*
X149134482Y-79564188D01*
X149010000Y-79551928D01*
X148010000Y-79551928D01*
X147885518Y-79564188D01*
X147765820Y-79600498D01*
X147655506Y-79659463D01*
X147558815Y-79738815D01*
X147479463Y-79835506D01*
X147420498Y-79945820D01*
X147384188Y-80065518D01*
X147371928Y-80190000D01*
X146864196Y-80190000D01*
X146747397Y-80073201D01*
X146554082Y-79944032D01*
X146339281Y-79855058D01*
X146111249Y-79809700D01*
X145878751Y-79809700D01*
X145650719Y-79855058D01*
X145435918Y-79944032D01*
X145242603Y-80073201D01*
X145078201Y-80237603D01*
X144980001Y-80384570D01*
X144881800Y-80237603D01*
X144717398Y-80073201D01*
X144524083Y-79944032D01*
X144309282Y-79855058D01*
X144081250Y-79809700D01*
X144037930Y-79809700D01*
X145265631Y-78582000D01*
X154221273Y-78582000D01*
X154200226Y-78596063D01*
G37*
G04 #@! TD.AperFunction*
D23*
X162561928Y-82450000D02*
X162574188Y-82574482D01*
X162610498Y-82694180D01*
X162669463Y-82804494D01*
X162739185Y-82889450D01*
X162749027Y-82989378D01*
X162792599Y-83133015D01*
X162863355Y-83265392D01*
X162934721Y-83352351D01*
X162958579Y-83381422D01*
X162987119Y-83404844D01*
X162672260Y-83719703D01*
X162638342Y-83747539D01*
X162610507Y-83781456D01*
X162610505Y-83781458D01*
X162527248Y-83882907D01*
X162444698Y-84037346D01*
X162393864Y-84204924D01*
X162376700Y-84379198D01*
X162381001Y-84422867D01*
X162381000Y-85361765D01*
X161443513Y-86299252D01*
X161343937Y-86150226D01*
X161199774Y-86006063D01*
X161030256Y-85892795D01*
X160841898Y-85814774D01*
X160641939Y-85775000D01*
X160438061Y-85775000D01*
X160238102Y-85814774D01*
X160049744Y-85892795D01*
X159880226Y-86006063D01*
X159838289Y-86048000D01*
X158643307Y-86048000D01*
X158605884Y-86044314D01*
X158568461Y-86048000D01*
X158568458Y-86048000D01*
X158456506Y-86059026D01*
X158312869Y-86102598D01*
X158262194Y-86129684D01*
X158268072Y-86070000D01*
X158268072Y-85070000D01*
X158255812Y-84945518D01*
X158219502Y-84825820D01*
X158160537Y-84715506D01*
X158081185Y-84618815D01*
X157984494Y-84539463D01*
X157874180Y-84480498D01*
X157754482Y-84444188D01*
X157749788Y-84443726D01*
X157836514Y-84357000D01*
X159276928Y-84357000D01*
X159276928Y-84470000D01*
X159286777Y-84570000D01*
X159276928Y-84670000D01*
X159276928Y-85120000D01*
X159289188Y-85244482D01*
X159325498Y-85364180D01*
X159384463Y-85474494D01*
X159463815Y-85571185D01*
X159560506Y-85650537D01*
X159670820Y-85709502D01*
X159790518Y-85745812D01*
X159915000Y-85758072D01*
X161365000Y-85758072D01*
X161489482Y-85745812D01*
X161609180Y-85709502D01*
X161719494Y-85650537D01*
X161816185Y-85571185D01*
X161895537Y-85474494D01*
X161954502Y-85364180D01*
X161990812Y-85244482D01*
X162003072Y-85120000D01*
X162003072Y-84670000D01*
X161993223Y-84570000D01*
X162003072Y-84470000D01*
X162003072Y-84020000D01*
X161993223Y-83920000D01*
X162003072Y-83820000D01*
X162003072Y-83370000D01*
X161990812Y-83245518D01*
X161954502Y-83125820D01*
X161895537Y-83015506D01*
X161816185Y-82918815D01*
X161719494Y-82839463D01*
X161609180Y-82780498D01*
X161489482Y-82744188D01*
X161365000Y-82731928D01*
X159915000Y-82731928D01*
X159790518Y-82744188D01*
X159670820Y-82780498D01*
X159572597Y-82833000D01*
X158314037Y-82833000D01*
X158419731Y-82800938D01*
X158549495Y-82731578D01*
X158647523Y-82651130D01*
X158732077Y-82707627D01*
X158920435Y-82785648D01*
X159120394Y-82825422D01*
X159324272Y-82825422D01*
X159524231Y-82785648D01*
X159712589Y-82707627D01*
X159882107Y-82594359D01*
X160026270Y-82450196D01*
X160139538Y-82280678D01*
X160217559Y-82092320D01*
X160257333Y-81892361D01*
X160257333Y-81771421D01*
X162561928Y-81771421D01*
X162561928Y-82450000D01*
G04 #@! TA.AperFunction,Conductor*
D25*
G36*
X162561928Y-82450000D02*
G01*
X162574188Y-82574482D01*
X162610498Y-82694180D01*
X162669463Y-82804494D01*
X162739185Y-82889450D01*
X162749027Y-82989378D01*
X162792599Y-83133015D01*
X162863355Y-83265392D01*
X162934721Y-83352351D01*
X162958579Y-83381422D01*
X162987119Y-83404844D01*
X162672260Y-83719703D01*
X162638342Y-83747539D01*
X162610507Y-83781456D01*
X162610505Y-83781458D01*
X162527248Y-83882907D01*
X162444698Y-84037346D01*
X162393864Y-84204924D01*
X162376700Y-84379198D01*
X162381001Y-84422867D01*
X162381000Y-85361765D01*
X161443513Y-86299252D01*
X161343937Y-86150226D01*
X161199774Y-86006063D01*
X161030256Y-85892795D01*
X160841898Y-85814774D01*
X160641939Y-85775000D01*
X160438061Y-85775000D01*
X160238102Y-85814774D01*
X160049744Y-85892795D01*
X159880226Y-86006063D01*
X159838289Y-86048000D01*
X158643307Y-86048000D01*
X158605884Y-86044314D01*
X158568461Y-86048000D01*
X158568458Y-86048000D01*
X158456506Y-86059026D01*
X158312869Y-86102598D01*
X158262194Y-86129684D01*
X158268072Y-86070000D01*
X158268072Y-85070000D01*
X158255812Y-84945518D01*
X158219502Y-84825820D01*
X158160537Y-84715506D01*
X158081185Y-84618815D01*
X157984494Y-84539463D01*
X157874180Y-84480498D01*
X157754482Y-84444188D01*
X157749788Y-84443726D01*
X157836514Y-84357000D01*
X159276928Y-84357000D01*
X159276928Y-84470000D01*
X159286777Y-84570000D01*
X159276928Y-84670000D01*
X159276928Y-85120000D01*
X159289188Y-85244482D01*
X159325498Y-85364180D01*
X159384463Y-85474494D01*
X159463815Y-85571185D01*
X159560506Y-85650537D01*
X159670820Y-85709502D01*
X159790518Y-85745812D01*
X159915000Y-85758072D01*
X161365000Y-85758072D01*
X161489482Y-85745812D01*
X161609180Y-85709502D01*
X161719494Y-85650537D01*
X161816185Y-85571185D01*
X161895537Y-85474494D01*
X161954502Y-85364180D01*
X161990812Y-85244482D01*
X162003072Y-85120000D01*
X162003072Y-84670000D01*
X161993223Y-84570000D01*
X162003072Y-84470000D01*
X162003072Y-84020000D01*
X161993223Y-83920000D01*
X162003072Y-83820000D01*
X162003072Y-83370000D01*
X161990812Y-83245518D01*
X161954502Y-83125820D01*
X161895537Y-83015506D01*
X161816185Y-82918815D01*
X161719494Y-82839463D01*
X161609180Y-82780498D01*
X161489482Y-82744188D01*
X161365000Y-82731928D01*
X159915000Y-82731928D01*
X159790518Y-82744188D01*
X159670820Y-82780498D01*
X159572597Y-82833000D01*
X158314037Y-82833000D01*
X158419731Y-82800938D01*
X158549495Y-82731578D01*
X158647523Y-82651130D01*
X158732077Y-82707627D01*
X158920435Y-82785648D01*
X159120394Y-82825422D01*
X159324272Y-82825422D01*
X159524231Y-82785648D01*
X159712589Y-82707627D01*
X159882107Y-82594359D01*
X160026270Y-82450196D01*
X160139538Y-82280678D01*
X160217559Y-82092320D01*
X160257333Y-81892361D01*
X160257333Y-81771421D01*
X162561928Y-81771421D01*
X162561928Y-82450000D01*
G37*
G04 #@! TD.AperFunction*
D23*
X156729463Y-77074494D02*
X156766809Y-77120000D01*
X156729463Y-77165506D01*
X156670498Y-77275820D01*
X156634188Y-77395518D01*
X156621928Y-77520000D01*
X156621928Y-78120000D01*
X156634188Y-78244482D01*
X156670498Y-78364180D01*
X156729463Y-78474494D01*
X156760091Y-78511815D01*
X156670269Y-78539062D01*
X156595000Y-78579294D01*
X156519731Y-78539062D01*
X156378929Y-78496350D01*
X156317561Y-78490306D01*
X156330537Y-78474494D01*
X156389502Y-78364180D01*
X156425812Y-78244482D01*
X156438072Y-78120000D01*
X156438072Y-77520000D01*
X156425812Y-77395518D01*
X156389502Y-77275820D01*
X156337528Y-77178586D01*
X156414816Y-77170974D01*
X156558453Y-77127402D01*
X156690830Y-77056645D01*
X156711052Y-77040050D01*
X156729463Y-77074494D01*
G04 #@! TA.AperFunction,Conductor*
D25*
G36*
X156729463Y-77074494D02*
G01*
X156766809Y-77120000D01*
X156729463Y-77165506D01*
X156670498Y-77275820D01*
X156634188Y-77395518D01*
X156621928Y-77520000D01*
X156621928Y-78120000D01*
X156634188Y-78244482D01*
X156670498Y-78364180D01*
X156729463Y-78474494D01*
X156760091Y-78511815D01*
X156670269Y-78539062D01*
X156595000Y-78579294D01*
X156519731Y-78539062D01*
X156378929Y-78496350D01*
X156317561Y-78490306D01*
X156330537Y-78474494D01*
X156389502Y-78364180D01*
X156425812Y-78244482D01*
X156438072Y-78120000D01*
X156438072Y-77520000D01*
X156425812Y-77395518D01*
X156389502Y-77275820D01*
X156337528Y-77178586D01*
X156414816Y-77170974D01*
X156558453Y-77127402D01*
X156690830Y-77056645D01*
X156711052Y-77040050D01*
X156729463Y-77074494D01*
G37*
G04 #@! TD.AperFunction*
D23*
X159099771Y-70045118D02*
X159099771Y-71817433D01*
X159112031Y-71941915D01*
X159148341Y-72061613D01*
X159207306Y-72171927D01*
X159275843Y-72255440D01*
X159275844Y-75279734D01*
X159260567Y-75292271D01*
X159251761Y-75303002D01*
X159231898Y-75294774D01*
X159031939Y-75255000D01*
X158828061Y-75255000D01*
X158628102Y-75294774D01*
X158569246Y-75319153D01*
X158585639Y-75236738D01*
X158585639Y-75032860D01*
X158545865Y-74832901D01*
X158467844Y-74644543D01*
X158354576Y-74475025D01*
X158210413Y-74330862D01*
X158040895Y-74217594D01*
X157852537Y-74139573D01*
X157652578Y-74099799D01*
X157448700Y-74099799D01*
X157248741Y-74139573D01*
X157060383Y-74217594D01*
X156890865Y-74330862D01*
X156746702Y-74475025D01*
X156633434Y-74644543D01*
X156555413Y-74832901D01*
X156515639Y-75032860D01*
X156515639Y-75092169D01*
X156065770Y-75542038D01*
X156044180Y-75530498D01*
X155924482Y-75494188D01*
X155800000Y-75481928D01*
X154800000Y-75481928D01*
X154675518Y-75494188D01*
X154555820Y-75530498D01*
X154445506Y-75589463D01*
X154348815Y-75668815D01*
X154269463Y-75765506D01*
X154210498Y-75875820D01*
X154174188Y-75995518D01*
X154161928Y-76120000D01*
X154161928Y-76720000D01*
X154174188Y-76844482D01*
X154210498Y-76964180D01*
X154260647Y-77058000D01*
X145928795Y-77058000D01*
X145979774Y-77023937D01*
X146123937Y-76879774D01*
X146237205Y-76710256D01*
X146315226Y-76521898D01*
X146355000Y-76321939D01*
X146355000Y-76118061D01*
X146315226Y-75918102D01*
X146237205Y-75729744D01*
X146123937Y-75560226D01*
X145979774Y-75416063D01*
X145832000Y-75317324D01*
X145832000Y-74065630D01*
X146622359Y-73275272D01*
X146651421Y-73251421D01*
X146675272Y-73222359D01*
X146675279Y-73222352D01*
X146730648Y-73154884D01*
X146771422Y-73121422D01*
X146795284Y-73092346D01*
X146950189Y-72937441D01*
X146979265Y-72913579D01*
X147074488Y-72797549D01*
X147145245Y-72665172D01*
X147188817Y-72521535D01*
X147199843Y-72409583D01*
X147199843Y-72409581D01*
X147203529Y-72372158D01*
X147199843Y-72334735D01*
X147199843Y-72255440D01*
X147268380Y-72171927D01*
X147327345Y-72061613D01*
X147363655Y-71941915D01*
X147375915Y-71817433D01*
X147375915Y-70046300D01*
X147899771Y-70046206D01*
X147899771Y-71817433D01*
X147912031Y-71941915D01*
X147948341Y-72061613D01*
X148007306Y-72171927D01*
X148086658Y-72268618D01*
X148183349Y-72347970D01*
X148293663Y-72406935D01*
X148413361Y-72443245D01*
X148537843Y-72455505D01*
X149137843Y-72455505D01*
X149237843Y-72445656D01*
X149337843Y-72455505D01*
X149937843Y-72455505D01*
X150062325Y-72443245D01*
X150182023Y-72406935D01*
X150292337Y-72347970D01*
X150389028Y-72268618D01*
X150468380Y-72171927D01*
X150527345Y-72061613D01*
X150563655Y-71941915D01*
X150575915Y-71817433D01*
X150575915Y-70045724D01*
X151099771Y-70045630D01*
X151099771Y-71817433D01*
X151112031Y-71941915D01*
X151148341Y-72061613D01*
X151207306Y-72171927D01*
X151286658Y-72268618D01*
X151383349Y-72347970D01*
X151493663Y-72406935D01*
X151613361Y-72443245D01*
X151737843Y-72455505D01*
X152337843Y-72455505D01*
X152437843Y-72445656D01*
X152537843Y-72455505D01*
X153137843Y-72455505D01*
X153262325Y-72443245D01*
X153382023Y-72406935D01*
X153492337Y-72347970D01*
X153589028Y-72268618D01*
X153637843Y-72209137D01*
X153686658Y-72268618D01*
X153783349Y-72347970D01*
X153893663Y-72406935D01*
X154013361Y-72443245D01*
X154137843Y-72455505D01*
X154737843Y-72455505D01*
X154837843Y-72445656D01*
X154937843Y-72455505D01*
X155427844Y-72455505D01*
X155427844Y-72502310D01*
X155429869Y-72522875D01*
X155434118Y-72595808D01*
X155441939Y-72645562D01*
X155447090Y-72695679D01*
X155449129Y-72705381D01*
X155480231Y-72848412D01*
X155499974Y-72909655D01*
X155518862Y-72971174D01*
X155522746Y-72980295D01*
X155581037Y-73114561D01*
X155612293Y-73170792D01*
X155642777Y-73227483D01*
X155648358Y-73235676D01*
X155731619Y-73356064D01*
X155773201Y-73405152D01*
X155814120Y-73454847D01*
X155821187Y-73461799D01*
X155926245Y-73563721D01*
X155976569Y-73603796D01*
X156026357Y-73644594D01*
X156034639Y-73650040D01*
X156034641Y-73650042D01*
X156034644Y-73650043D01*
X156157495Y-73729617D01*
X156214647Y-73759156D01*
X156271408Y-73789505D01*
X156280587Y-73793237D01*
X156280592Y-73793240D01*
X156280597Y-73793242D01*
X156416562Y-73847438D01*
X156478364Y-73865314D01*
X156539942Y-73884060D01*
X156549675Y-73885940D01*
X156693584Y-73912695D01*
X156757728Y-73918230D01*
X156821723Y-73924654D01*
X156831636Y-73924608D01*
X156831638Y-73924608D01*
X156978000Y-73922902D01*
X157041959Y-73915877D01*
X157106021Y-73909745D01*
X157115737Y-73907774D01*
X157258983Y-73877672D01*
X157320365Y-73858357D01*
X157382017Y-73839898D01*
X157391158Y-73836080D01*
X157391161Y-73836079D01*
X157391165Y-73836077D01*
X157525836Y-73778724D01*
X157582287Y-73747859D01*
X157639185Y-73717774D01*
X157647412Y-73712252D01*
X157647417Y-73712249D01*
X157647421Y-73712245D01*
X157768383Y-73629831D01*
X157817782Y-73588574D01*
X157867737Y-73548023D01*
X157874738Y-73541005D01*
X157977391Y-73436661D01*
X158017809Y-73386628D01*
X158058960Y-73337117D01*
X158064465Y-73328873D01*
X158144897Y-73206577D01*
X158174844Y-73149614D01*
X158205579Y-73093083D01*
X158209378Y-73083927D01*
X158264524Y-72948338D01*
X158282832Y-72886658D01*
X158302007Y-72825215D01*
X158303955Y-72815495D01*
X158318877Y-72738240D01*
X158337570Y-72676617D01*
X158347843Y-72572310D01*
X158347843Y-70160676D01*
X158353185Y-70116199D01*
X158358420Y-70100132D01*
X158366678Y-70085386D01*
X158377641Y-70072527D01*
X158390898Y-70062037D01*
X158405937Y-70054325D01*
X158424732Y-70048953D01*
X158469709Y-70044879D01*
X159099771Y-70045118D01*
G04 #@! TA.AperFunction,Conductor*
D25*
G36*
X159099771Y-70045118D02*
G01*
X159099771Y-71817433D01*
X159112031Y-71941915D01*
X159148341Y-72061613D01*
X159207306Y-72171927D01*
X159275843Y-72255440D01*
X159275844Y-75279734D01*
X159260567Y-75292271D01*
X159251761Y-75303002D01*
X159231898Y-75294774D01*
X159031939Y-75255000D01*
X158828061Y-75255000D01*
X158628102Y-75294774D01*
X158569246Y-75319153D01*
X158585639Y-75236738D01*
X158585639Y-75032860D01*
X158545865Y-74832901D01*
X158467844Y-74644543D01*
X158354576Y-74475025D01*
X158210413Y-74330862D01*
X158040895Y-74217594D01*
X157852537Y-74139573D01*
X157652578Y-74099799D01*
X157448700Y-74099799D01*
X157248741Y-74139573D01*
X157060383Y-74217594D01*
X156890865Y-74330862D01*
X156746702Y-74475025D01*
X156633434Y-74644543D01*
X156555413Y-74832901D01*
X156515639Y-75032860D01*
X156515639Y-75092169D01*
X156065770Y-75542038D01*
X156044180Y-75530498D01*
X155924482Y-75494188D01*
X155800000Y-75481928D01*
X154800000Y-75481928D01*
X154675518Y-75494188D01*
X154555820Y-75530498D01*
X154445506Y-75589463D01*
X154348815Y-75668815D01*
X154269463Y-75765506D01*
X154210498Y-75875820D01*
X154174188Y-75995518D01*
X154161928Y-76120000D01*
X154161928Y-76720000D01*
X154174188Y-76844482D01*
X154210498Y-76964180D01*
X154260647Y-77058000D01*
X145928795Y-77058000D01*
X145979774Y-77023937D01*
X146123937Y-76879774D01*
X146237205Y-76710256D01*
X146315226Y-76521898D01*
X146355000Y-76321939D01*
X146355000Y-76118061D01*
X146315226Y-75918102D01*
X146237205Y-75729744D01*
X146123937Y-75560226D01*
X145979774Y-75416063D01*
X145832000Y-75317324D01*
X145832000Y-74065630D01*
X146622359Y-73275272D01*
X146651421Y-73251421D01*
X146675272Y-73222359D01*
X146675279Y-73222352D01*
X146730648Y-73154884D01*
X146771422Y-73121422D01*
X146795284Y-73092346D01*
X146950189Y-72937441D01*
X146979265Y-72913579D01*
X147074488Y-72797549D01*
X147145245Y-72665172D01*
X147188817Y-72521535D01*
X147199843Y-72409583D01*
X147199843Y-72409581D01*
X147203529Y-72372158D01*
X147199843Y-72334735D01*
X147199843Y-72255440D01*
X147268380Y-72171927D01*
X147327345Y-72061613D01*
X147363655Y-71941915D01*
X147375915Y-71817433D01*
X147375915Y-70046300D01*
X147899771Y-70046206D01*
X147899771Y-71817433D01*
X147912031Y-71941915D01*
X147948341Y-72061613D01*
X148007306Y-72171927D01*
X148086658Y-72268618D01*
X148183349Y-72347970D01*
X148293663Y-72406935D01*
X148413361Y-72443245D01*
X148537843Y-72455505D01*
X149137843Y-72455505D01*
X149237843Y-72445656D01*
X149337843Y-72455505D01*
X149937843Y-72455505D01*
X150062325Y-72443245D01*
X150182023Y-72406935D01*
X150292337Y-72347970D01*
X150389028Y-72268618D01*
X150468380Y-72171927D01*
X150527345Y-72061613D01*
X150563655Y-71941915D01*
X150575915Y-71817433D01*
X150575915Y-70045724D01*
X151099771Y-70045630D01*
X151099771Y-71817433D01*
X151112031Y-71941915D01*
X151148341Y-72061613D01*
X151207306Y-72171927D01*
X151286658Y-72268618D01*
X151383349Y-72347970D01*
X151493663Y-72406935D01*
X151613361Y-72443245D01*
X151737843Y-72455505D01*
X152337843Y-72455505D01*
X152437843Y-72445656D01*
X152537843Y-72455505D01*
X153137843Y-72455505D01*
X153262325Y-72443245D01*
X153382023Y-72406935D01*
X153492337Y-72347970D01*
X153589028Y-72268618D01*
X153637843Y-72209137D01*
X153686658Y-72268618D01*
X153783349Y-72347970D01*
X153893663Y-72406935D01*
X154013361Y-72443245D01*
X154137843Y-72455505D01*
X154737843Y-72455505D01*
X154837843Y-72445656D01*
X154937843Y-72455505D01*
X155427844Y-72455505D01*
X155427844Y-72502310D01*
X155429869Y-72522875D01*
X155434118Y-72595808D01*
X155441939Y-72645562D01*
X155447090Y-72695679D01*
X155449129Y-72705381D01*
X155480231Y-72848412D01*
X155499974Y-72909655D01*
X155518862Y-72971174D01*
X155522746Y-72980295D01*
X155581037Y-73114561D01*
X155612293Y-73170792D01*
X155642777Y-73227483D01*
X155648358Y-73235676D01*
X155731619Y-73356064D01*
X155773201Y-73405152D01*
X155814120Y-73454847D01*
X155821187Y-73461799D01*
X155926245Y-73563721D01*
X155976569Y-73603796D01*
X156026357Y-73644594D01*
X156034639Y-73650040D01*
X156034641Y-73650042D01*
X156034644Y-73650043D01*
X156157495Y-73729617D01*
X156214647Y-73759156D01*
X156271408Y-73789505D01*
X156280587Y-73793237D01*
X156280592Y-73793240D01*
X156280597Y-73793242D01*
X156416562Y-73847438D01*
X156478364Y-73865314D01*
X156539942Y-73884060D01*
X156549675Y-73885940D01*
X156693584Y-73912695D01*
X156757728Y-73918230D01*
X156821723Y-73924654D01*
X156831636Y-73924608D01*
X156831638Y-73924608D01*
X156978000Y-73922902D01*
X157041959Y-73915877D01*
X157106021Y-73909745D01*
X157115737Y-73907774D01*
X157258983Y-73877672D01*
X157320365Y-73858357D01*
X157382017Y-73839898D01*
X157391158Y-73836080D01*
X157391161Y-73836079D01*
X157391165Y-73836077D01*
X157525836Y-73778724D01*
X157582287Y-73747859D01*
X157639185Y-73717774D01*
X157647412Y-73712252D01*
X157647417Y-73712249D01*
X157647421Y-73712245D01*
X157768383Y-73629831D01*
X157817782Y-73588574D01*
X157867737Y-73548023D01*
X157874738Y-73541005D01*
X157977391Y-73436661D01*
X158017809Y-73386628D01*
X158058960Y-73337117D01*
X158064465Y-73328873D01*
X158144897Y-73206577D01*
X158174844Y-73149614D01*
X158205579Y-73093083D01*
X158209378Y-73083927D01*
X158264524Y-72948338D01*
X158282832Y-72886658D01*
X158302007Y-72825215D01*
X158303955Y-72815495D01*
X158318877Y-72738240D01*
X158337570Y-72676617D01*
X158347843Y-72572310D01*
X158347843Y-70160676D01*
X158353185Y-70116199D01*
X158358420Y-70100132D01*
X158366678Y-70085386D01*
X158377641Y-70072527D01*
X158390898Y-70062037D01*
X158405937Y-70054325D01*
X158424732Y-70048953D01*
X158469709Y-70044879D01*
X159099771Y-70045118D01*
G37*
G04 #@! TD.AperFunction*
M02*
