M48
; DRILL file {KiCad (5.99.0-9801-g46d71f0d23)} date 03/16/21 23:05:52
; FORMAT={-:-/ absolute / inch / decimal}
; #@! TF.CreationDate,2021-03-16T23:05:52+01:00
; #@! TF.GenerationSoftware,Kicad,Pcbnew,(5.99.0-9801-g46d71f0d23)
; #@! TF.FileFunction,Plated,1,2,PTH
FMAT,2
INCH
; #@! TA.AperFunction,ViaDrill
T1C0.0157
; #@! TA.AperFunction,ComponentDrill,Plated,PTH
T2C0.0630
; #@! TA.AperFunction,ComponentDrill,Plated,PTH
T3C0.0709
; #@! TA.AperFunction,ComponentDrill,Plated,PTH
T4C0.1181
%
G90
G05
T1
; via hole
X5.4909Y-2.9933
X5.4937Y-3.2228
X5.4976Y-3.5358
X5.4992Y-3.3945
X5.5555Y-3.9783
X5.5654Y-3.7748
X5.613Y-3.0685
X5.628Y-3.4024
X5.637Y-3.4882
X5.6406Y-3.5791
X5.6437Y-3.2709
X5.663Y-2.8906
X5.6634Y-2.9547
X5.6638Y-3.148
X5.7023Y-2.8666
X5.7213Y-3.0008
X5.7488Y-3.8087
X5.7504Y-2.9201
X5.7508Y-3.8744
X5.7528Y-3.0843
X5.7622Y-2.9654
X5.7673Y-3.7705
X5.7701Y-3.4213
X5.7713Y-3.4957
X5.7713Y-4.1083
X5.7713Y-4.1583
X5.7713Y-4.2083
X5.7713Y-4.2583
X5.7713Y-4.3083
X5.7713Y-4.3583
X5.7831Y-3.6031
X5.8055Y-3.0232
X5.8118Y-4.1087
X5.8449Y-3.2665
X5.847Y-2.9265
X5.8618Y-4.1087
X5.876Y-3.8657
X5.8902Y-3.4307
X5.8913Y-3.5047
X5.8941Y-3.7949
X5.9079Y-3.7362
X5.9118Y-4.1087
X5.937Y-3.1354
X5.9543Y-2.9303
X5.9618Y-4.1087
X5.976Y-3.3228
X6.0118Y-4.1087
X6.0181Y-3.2374
X6.035Y-3.4929
X6.0469Y-3.4374
X6.0499Y-2.9365
X6.0618Y-4.1087
X6.0705Y-3.1646
X6.0835Y-4.4453
X6.1071Y-3.2394
X6.1079Y-2.9413
X6.1118Y-4.1087
X6.1335Y-4.4453
X6.1398Y-3.0409
X6.1618Y-4.1087
X6.1642Y-3.6957
X6.1835Y-4.4453
X6.1902Y-3.4248
X6.2118Y-4.1087
X6.2323Y-3.7598
X6.2335Y-4.4453
X6.2383Y-3.5116
X6.2618Y-4.1087
X6.2782Y-3.5206
X6.2835Y-4.4453
X6.2878Y-2.939
X6.3118Y-4.1087
X6.3252Y-3.0165
X6.328Y-3.1197
X6.3335Y-4.4453
X6.3618Y-4.1087
X6.3795Y-2.9906
X6.3835Y-4.4453
X6.389Y-2.8853
X6.4118Y-4.1087
X6.4303Y-3.6126
X6.4335Y-4.4453
X6.4374Y-3.1815
X6.4453Y-4.035
X6.4618Y-4.1087
X6.4752Y-3.4984
X6.4835Y-4.4453
X6.5118Y-4.1087
X6.5335Y-4.4453
X6.548Y-3.5224
X6.5555Y-3.0173
X6.5575Y-3.1339
X6.5618Y-4.1087
T2
; plated pad hole
X5.8634Y-4.5594
T3
X5.7634Y-4.4594
X5.7634Y-4.6594
X5.9634Y-4.4594
X5.9634Y-4.6594
T4
X5.5527Y-4.6188
X6.5054Y-4.6188
T0
M30
