G04 #@! TF.GenerationSoftware,KiCad,Pcbnew,(5.99.0-9801-g46d71f0d23)*
G04 #@! TF.CreationDate,2021-03-16T23:05:54+01:00*
G04 #@! TF.ProjectId,lorawan_e78-868ln22s_minipci,6c6f7261-7761-46e5-9f65-37382d383638,V1.0*
G04 #@! TF.SameCoordinates,Original*
G04 #@! TF.FileFunction,Copper,L2,Bot*
G04 #@! TF.FilePolarity,Positive*
%FSLAX46Y46*%
G04 Gerber Fmt 4.6, Leading zero omitted, Abs format (unit mm)*
G04 Created by KiCad (PCBNEW (5.99.0-9801-g46d71f0d23)) date 2021-03-16 23:05:54*
%MOMM*%
%LPD*%
G01*
G04 APERTURE LIST*
G04 #@! TA.AperFunction,ComponentPad*
%ADD10R,5.600000X5.600000*%
G04 #@! TD*
G04 #@! TA.AperFunction,SMDPad,CuDef*
%ADD11R,0.600000X2.000000*%
G04 #@! TD*
G04 #@! TA.AperFunction,ComponentPad*
%ADD12C,2.600000*%
G04 #@! TD*
G04 #@! TA.AperFunction,ComponentPad*
%ADD13C,3.000000*%
G04 #@! TD*
G04 #@! TA.AperFunction,ViaPad*
%ADD14C,0.800000*%
G04 #@! TD*
G04 #@! TA.AperFunction,Conductor*
%ADD15C,0.254000*%
G04 #@! TD*
G04 #@! TA.AperFunction,Conductor*
%ADD16C,0.250000*%
G04 #@! TD*
G04 APERTURE END LIST*
D10*
X141037843Y-117317433D03*
X165237843Y-117317433D03*
D11*
X164437843Y-70817433D03*
X163637843Y-70817433D03*
X162837843Y-70817433D03*
X162037843Y-70817433D03*
X161237843Y-70817433D03*
X160437843Y-70817433D03*
X159637843Y-70817433D03*
X158837843Y-70817433D03*
X154837843Y-70817433D03*
X154037843Y-70817433D03*
X153237843Y-70817433D03*
X152437843Y-70817433D03*
X151637843Y-70817433D03*
X150837843Y-70817433D03*
X150037843Y-70817433D03*
X149237843Y-70817433D03*
X148437843Y-70817433D03*
X147637843Y-70817433D03*
X146837843Y-70817433D03*
X146037843Y-70817433D03*
X145237843Y-70817433D03*
X144437843Y-70817433D03*
X143637843Y-70817433D03*
X142837843Y-70817433D03*
X142037843Y-70817433D03*
X141237843Y-70817433D03*
D12*
X148930000Y-115810000D03*
D13*
X146390000Y-113270000D03*
X146390000Y-118350000D03*
X151470000Y-118350000D03*
X151470000Y-113270000D03*
D14*
X145320000Y-76220000D03*
X163510000Y-80810000D03*
X148890000Y-104360000D03*
X150160000Y-104360000D03*
X151430000Y-104360000D03*
X152700000Y-104360000D03*
X153970000Y-104360000D03*
X155240000Y-104360000D03*
X156510000Y-104360000D03*
X157780000Y-104360000D03*
X159050000Y-104360000D03*
X160320000Y-104360000D03*
X161590000Y-104360000D03*
X162860000Y-104360000D03*
X164130000Y-104360000D03*
X165400000Y-104360000D03*
X166670000Y-104360000D03*
X146590000Y-105620000D03*
X146590000Y-106890000D03*
X146590000Y-108160000D03*
X146590000Y-109430000D03*
X146590000Y-110700000D03*
X154520000Y-112910000D03*
X155790000Y-112910000D03*
X157060000Y-112910000D03*
X158330000Y-112910000D03*
X159600000Y-112910000D03*
X160870000Y-112910000D03*
X162140000Y-112910000D03*
X163410000Y-112910000D03*
X164680000Y-112910000D03*
X165950000Y-112910000D03*
X146590000Y-104350000D03*
X154190000Y-80380000D03*
X144837843Y-72812157D03*
X162281613Y-73287098D03*
X147460000Y-76790000D03*
X164470000Y-88860000D03*
X151238990Y-74429981D03*
X153290000Y-88720000D03*
X146590000Y-88790000D03*
X148512833Y-74333417D03*
X139470000Y-76030000D03*
X141110000Y-101050000D03*
X149610000Y-87140000D03*
X142950000Y-86420000D03*
X160730000Y-79240000D03*
X143850000Y-75050000D03*
X160660000Y-76620000D03*
X153590000Y-87310000D03*
X166510000Y-76640000D03*
X146560000Y-86900000D03*
X155120000Y-82280000D03*
X166560000Y-79600000D03*
X143180000Y-88600000D03*
X146120000Y-78340000D03*
X166320000Y-89470000D03*
X146060000Y-74170000D03*
X141360000Y-95880000D03*
X163330000Y-91760000D03*
X152860000Y-82230000D03*
X143270000Y-90910000D03*
X158300000Y-95500000D03*
X139680000Y-86220000D03*
X143350000Y-83080000D03*
X159710000Y-74650000D03*
X149640000Y-89020000D03*
X156570000Y-93870000D03*
X139640000Y-89810000D03*
X139540000Y-81860000D03*
X147620000Y-104360000D03*
X153668355Y-74587128D03*
X162040000Y-75960000D03*
X146070000Y-98410000D03*
X163710000Y-102490000D03*
X146890000Y-91520000D03*
X148460000Y-82970000D03*
X150060000Y-94900000D03*
X150800000Y-79640000D03*
X158454080Y-89193674D03*
X155950000Y-77240000D03*
X155140000Y-74710000D03*
X159467010Y-89423628D03*
X146490000Y-95770000D03*
X146020000Y-96740000D03*
X143840000Y-73420000D03*
X149710000Y-96390000D03*
X151790000Y-84400000D03*
X146360000Y-75320000D03*
X142570000Y-77940000D03*
X157230089Y-86990089D03*
X149250000Y-98190000D03*
X143860000Y-79960000D03*
D15*
X164437843Y-79882157D02*
X163510000Y-80810000D01*
X141237843Y-74637843D02*
X142820000Y-76220000D01*
X141237843Y-70817433D02*
X141237843Y-74637843D01*
X142820000Y-76220000D02*
X145320000Y-76220000D01*
X164437843Y-70817433D02*
X164437843Y-79882157D01*
X163637843Y-70817433D02*
X163637843Y-72071433D01*
X163637843Y-72071433D02*
X162422178Y-73287098D01*
X146037843Y-74147843D02*
X146060000Y-74170000D01*
X151637843Y-70817433D02*
X151637843Y-73843721D01*
X162422178Y-73287098D02*
X162281613Y-73287098D01*
X151637843Y-73843721D02*
X151238990Y-74242574D01*
X148437843Y-70817433D02*
X148437843Y-74258427D01*
X149640000Y-87170000D02*
X149610000Y-87140000D01*
X151238990Y-74242574D02*
X151238990Y-74429981D01*
X149640000Y-89020000D02*
X149640000Y-87170000D01*
X146037843Y-70817433D02*
X146037843Y-74147843D01*
X142970000Y-75050000D02*
X143850000Y-75050000D01*
X148437843Y-74258427D02*
X148512833Y-74333417D01*
X142037843Y-70817433D02*
X142037843Y-74117843D01*
X154837843Y-73417640D02*
X153668355Y-74587128D01*
X154837843Y-70817433D02*
X154837843Y-73417640D01*
X142037843Y-74117843D02*
X142970000Y-75050000D01*
X148435000Y-83715000D02*
X148435000Y-82995000D01*
X146890000Y-91520000D02*
X147730000Y-91520000D01*
X160330000Y-99110000D02*
X152750000Y-99110000D01*
X147810000Y-84340000D02*
X148435000Y-83715000D01*
X149020000Y-99110000D02*
X148410000Y-98500000D01*
X147810000Y-93410000D02*
X147810000Y-91440000D01*
X148880000Y-97350000D02*
X148880000Y-94480000D01*
X147730000Y-91520000D02*
X147810000Y-91440000D01*
X147810000Y-90950000D02*
X147810000Y-90800000D01*
X148435000Y-82995000D02*
X148460000Y-82970000D01*
X148880000Y-94480000D02*
X147810000Y-93410000D01*
X148410000Y-98500000D02*
X148410000Y-97820000D01*
X152750000Y-99110000D02*
X149020000Y-99110000D01*
X163710000Y-102490000D02*
X160330000Y-99110000D01*
X147810000Y-91440000D02*
X147810000Y-90950000D01*
X148410000Y-97820000D02*
X148880000Y-97350000D01*
X147810000Y-90950000D02*
X147810000Y-84340000D01*
X152600000Y-78590000D02*
X152600000Y-74508436D01*
X150060000Y-94900000D02*
X148350000Y-93190000D01*
X151720000Y-79470000D02*
X152600000Y-78590000D01*
X154037843Y-73070593D02*
X154037843Y-70817433D01*
X152600000Y-74508436D02*
X154037843Y-73070593D01*
X151720000Y-80350000D02*
X151720000Y-79470000D01*
X148350000Y-93190000D02*
X148350000Y-84518436D01*
X149929218Y-82939218D02*
X149929218Y-82140782D01*
X148350000Y-84518436D02*
X149929218Y-82939218D01*
X149929218Y-82140782D02*
X151720000Y-80350000D01*
X150800000Y-79640000D02*
X152020000Y-78420000D01*
X153237843Y-73152157D02*
X153237843Y-70817433D01*
X152020000Y-78420000D02*
X152020000Y-74370000D01*
X152020000Y-74370000D02*
X153237843Y-73152157D01*
D16*
X155950000Y-77240000D02*
X158020000Y-79310000D01*
X158020000Y-88759594D02*
X158454080Y-89193674D01*
X158020000Y-79310000D02*
X158020000Y-88759594D01*
D15*
X158472011Y-88017969D02*
X158472011Y-78682771D01*
X158472011Y-78682771D02*
X155140000Y-75350760D01*
X159467010Y-89012968D02*
X158472011Y-88017969D01*
X155140000Y-75350760D02*
X155140000Y-74710000D01*
X159467010Y-89423628D02*
X159467010Y-89012968D01*
D16*
X145300000Y-82840000D02*
X145300000Y-94580000D01*
X145300000Y-94580000D02*
X146490000Y-95770000D01*
X150037843Y-70817433D02*
X150037843Y-78102157D01*
X150037843Y-78102157D02*
X145300000Y-82840000D01*
X144849989Y-95569989D02*
X146020000Y-96740000D01*
X149237843Y-78102157D02*
X144849989Y-82490011D01*
X144849989Y-82490011D02*
X144849989Y-95569989D01*
X149237843Y-70817433D02*
X149237843Y-78102157D01*
X146360000Y-75320000D02*
X145740000Y-75320000D01*
X151280000Y-84910000D02*
X151280000Y-95580000D01*
X151790000Y-84400000D02*
X151280000Y-84910000D01*
X151280000Y-95580000D02*
X150620000Y-96240000D01*
X149860000Y-96240000D02*
X149710000Y-96390000D01*
X145740000Y-75320000D02*
X143840000Y-73420000D01*
X150620000Y-96240000D02*
X149860000Y-96240000D01*
D15*
X151760000Y-98270000D02*
X149330000Y-98270000D01*
D16*
X143860000Y-79230000D02*
X143860000Y-79960000D01*
X142570000Y-77940000D02*
X143860000Y-79230000D01*
D15*
X157230089Y-86990089D02*
X152880000Y-91340178D01*
X149330000Y-98270000D02*
X149250000Y-98190000D01*
X152880000Y-97150000D02*
X151760000Y-98270000D01*
X152880000Y-91340178D02*
X152880000Y-97150000D01*
G04 #@! TA.AperFunction,Conductor*
G36*
X155276549Y-69845001D02*
G01*
X155280021Y-69845646D01*
X155280026Y-69845647D01*
X155284810Y-69846535D01*
X155317798Y-69847497D01*
X155350451Y-69848450D01*
X155375089Y-69851618D01*
X155419400Y-69861836D01*
X155446263Y-69871337D01*
X155478673Y-69887124D01*
X155502711Y-69902418D01*
X155530741Y-69925082D01*
X155550727Y-69945385D01*
X155572950Y-69973771D01*
X155587865Y-69998048D01*
X155591049Y-70004854D01*
X155603140Y-70030700D01*
X155612218Y-70057709D01*
X155621737Y-70102163D01*
X155624519Y-70126849D01*
X155625359Y-70189248D01*
X155626052Y-70193661D01*
X155626052Y-70193664D01*
X155628319Y-70208104D01*
X155629843Y-70227644D01*
X155629843Y-72389522D01*
X155628873Y-72405127D01*
X155624608Y-72439301D01*
X155623922Y-72444795D01*
X155624069Y-72449654D01*
X155624069Y-72449658D01*
X155624538Y-72465123D01*
X155625574Y-72499298D01*
X155625628Y-72501092D01*
X155625442Y-72512743D01*
X155625334Y-72514473D01*
X155623512Y-72523261D01*
X155624229Y-72532203D01*
X155624229Y-72532206D01*
X155627741Y-72575988D01*
X155628086Y-72582244D01*
X155628613Y-72599616D01*
X155628803Y-72605894D01*
X155629572Y-72610306D01*
X155630282Y-72614383D01*
X155631748Y-72625936D01*
X155631989Y-72628934D01*
X155632677Y-72637516D01*
X155633807Y-72642248D01*
X155633809Y-72642258D01*
X155637820Y-72659046D01*
X155639398Y-72666693D01*
X155646420Y-72706991D01*
X155646421Y-72706995D01*
X155647962Y-72715836D01*
X155651923Y-72723891D01*
X155654701Y-72732424D01*
X155654123Y-72732612D01*
X155657893Y-72743070D01*
X155661108Y-72756527D01*
X155667494Y-72783261D01*
X155669856Y-72801010D01*
X155670819Y-72806545D01*
X155671089Y-72815513D01*
X155673865Y-72824046D01*
X155673866Y-72824050D01*
X155684998Y-72858266D01*
X155687731Y-72867969D01*
X155690572Y-72879861D01*
X155692224Y-72884036D01*
X155697299Y-72896863D01*
X155699954Y-72904236D01*
X155705044Y-72919881D01*
X155705047Y-72919889D01*
X155706551Y-72924511D01*
X155711514Y-72934305D01*
X155711615Y-72934504D01*
X155716386Y-72945105D01*
X155727724Y-72973762D01*
X155731629Y-72983633D01*
X155737141Y-72990717D01*
X155737142Y-72990719D01*
X155738165Y-72992034D01*
X155751111Y-73012451D01*
X155772536Y-73054731D01*
X155774279Y-73058171D01*
X155780686Y-73074850D01*
X155782921Y-73080039D01*
X155785270Y-73088708D01*
X155808737Y-73127067D01*
X155813641Y-73135854D01*
X155819172Y-73146768D01*
X155829686Y-73161770D01*
X155833954Y-73168283D01*
X155845089Y-73186484D01*
X155848238Y-73190196D01*
X155852340Y-73195032D01*
X155859436Y-73204225D01*
X155878066Y-73230809D01*
X155883218Y-73238160D01*
X155891518Y-73244804D01*
X155908861Y-73261660D01*
X155940281Y-73298699D01*
X155942021Y-73300750D01*
X155952137Y-73315497D01*
X155955509Y-73320014D01*
X155959806Y-73327897D01*
X155966140Y-73334254D01*
X155966145Y-73334261D01*
X155991544Y-73359753D01*
X155998361Y-73367165D01*
X156006271Y-73376490D01*
X156019083Y-73387841D01*
X156019954Y-73388613D01*
X156025654Y-73393988D01*
X156040707Y-73409097D01*
X156044634Y-73411977D01*
X156049756Y-73415734D01*
X156058795Y-73423028D01*
X156065812Y-73429245D01*
X156089800Y-73450499D01*
X156099419Y-73455034D01*
X156120202Y-73467399D01*
X156157538Y-73494780D01*
X156161537Y-73497713D01*
X156174788Y-73509692D01*
X156179128Y-73513311D01*
X156185142Y-73519983D01*
X156192784Y-73524697D01*
X156192785Y-73524698D01*
X156223410Y-73543590D01*
X156231775Y-73549225D01*
X156241626Y-73556450D01*
X156257763Y-73565068D01*
X156264548Y-73568968D01*
X156282695Y-73580163D01*
X156287184Y-73582052D01*
X156287186Y-73582053D01*
X156293030Y-73584512D01*
X156303507Y-73589500D01*
X156340065Y-73609025D01*
X156348854Y-73610862D01*
X156350474Y-73611201D01*
X156373562Y-73618397D01*
X156420814Y-73638280D01*
X156436523Y-73646872D01*
X156441554Y-73649368D01*
X156448947Y-73654455D01*
X156491665Y-73668528D01*
X156501069Y-73672049D01*
X156512357Y-73676799D01*
X156516691Y-73677934D01*
X156516701Y-73677937D01*
X156530059Y-73681434D01*
X156537566Y-73683650D01*
X156553190Y-73688797D01*
X156553193Y-73688798D01*
X156557814Y-73690320D01*
X156562626Y-73691115D01*
X156562625Y-73691115D01*
X156568868Y-73692147D01*
X156580237Y-73694569D01*
X156611633Y-73702788D01*
X156611637Y-73702788D01*
X156620318Y-73705061D01*
X156629290Y-73704806D01*
X156629292Y-73704806D01*
X156630951Y-73704759D01*
X156655075Y-73706394D01*
X156705648Y-73714752D01*
X156722907Y-73719454D01*
X156728397Y-73720716D01*
X156736771Y-73723947D01*
X156745714Y-73724698D01*
X156745716Y-73724698D01*
X156772823Y-73726973D01*
X156781572Y-73727707D01*
X156791577Y-73728952D01*
X156799218Y-73730215D01*
X156799220Y-73730215D01*
X156803642Y-73730946D01*
X156818136Y-73731258D01*
X156821946Y-73731340D01*
X156829774Y-73731753D01*
X156846140Y-73733127D01*
X156846144Y-73733127D01*
X156850992Y-73733534D01*
X156862173Y-73732742D01*
X156873779Y-73732456D01*
X156889004Y-73732784D01*
X156906240Y-73733156D01*
X156906243Y-73733156D01*
X156915215Y-73733349D01*
X156925485Y-73730584D01*
X156949335Y-73726568D01*
X156980257Y-73724378D01*
X157000456Y-73722947D01*
X157018362Y-73723511D01*
X157023972Y-73723463D01*
X157032868Y-73724660D01*
X157077326Y-73717906D01*
X157087348Y-73716792D01*
X157099532Y-73715929D01*
X157117434Y-73712058D01*
X157125124Y-73710644D01*
X157141380Y-73708175D01*
X157141384Y-73708174D01*
X157146190Y-73707444D01*
X157153754Y-73705061D01*
X157156882Y-73704076D01*
X157168109Y-73701101D01*
X157199830Y-73694241D01*
X157199833Y-73694240D01*
X157208610Y-73692342D01*
X157217956Y-73687267D01*
X157240222Y-73677818D01*
X157289110Y-73662416D01*
X157306625Y-73658811D01*
X157312100Y-73657454D01*
X157321030Y-73656551D01*
X157329345Y-73653179D01*
X157329349Y-73653178D01*
X157362694Y-73639655D01*
X157372180Y-73636243D01*
X157383837Y-73632571D01*
X157400351Y-73624645D01*
X157407504Y-73621483D01*
X157422734Y-73615307D01*
X157422740Y-73615304D01*
X157427250Y-73613475D01*
X157433173Y-73609927D01*
X157436864Y-73607716D01*
X157447096Y-73602211D01*
X157476357Y-73588168D01*
X157476359Y-73588167D01*
X157484449Y-73584284D01*
X157492360Y-73577176D01*
X157511822Y-73562812D01*
X157543909Y-73543590D01*
X157555795Y-73536470D01*
X157571989Y-73528895D01*
X157576995Y-73526305D01*
X157585475Y-73523350D01*
X157622085Y-73497226D01*
X157630489Y-73491723D01*
X157640995Y-73485430D01*
X157644474Y-73482606D01*
X157644483Y-73482599D01*
X157655204Y-73473894D01*
X157661439Y-73469145D01*
X157674810Y-73459604D01*
X157674809Y-73459604D01*
X157678779Y-73456772D01*
X157686802Y-73448926D01*
X157695450Y-73441217D01*
X157727633Y-73415086D01*
X157733683Y-73406325D01*
X157749268Y-73387841D01*
X157785907Y-73352011D01*
X157799898Y-73340881D01*
X157804173Y-73337191D01*
X157811730Y-73332350D01*
X157839252Y-73300750D01*
X157841259Y-73298446D01*
X157848179Y-73291116D01*
X157853711Y-73285706D01*
X157853717Y-73285699D01*
X157856921Y-73282566D01*
X157868061Y-73268043D01*
X157873007Y-73261994D01*
X157887011Y-73245915D01*
X157892855Y-73236637D01*
X157892983Y-73236433D01*
X157899623Y-73226895D01*
X157919380Y-73201139D01*
X157919382Y-73201135D01*
X157924843Y-73194016D01*
X157928687Y-73184101D01*
X157939551Y-73162498D01*
X157966871Y-73119122D01*
X157977897Y-73105041D01*
X157981192Y-73100466D01*
X157987416Y-73094003D01*
X158008258Y-73054166D01*
X158013279Y-73045438D01*
X158019800Y-73035085D01*
X158022921Y-73028092D01*
X158027263Y-73018366D01*
X158030677Y-73011315D01*
X158031670Y-73009417D01*
X158040552Y-72992441D01*
X158044161Y-72981821D01*
X158048397Y-72971019D01*
X158065288Y-72933177D01*
X158066724Y-72922633D01*
X158072268Y-72899106D01*
X158086989Y-72855786D01*
X158091237Y-72844956D01*
X158091944Y-72843372D01*
X158096730Y-72835778D01*
X158111232Y-72784927D01*
X158113100Y-72778946D01*
X158119273Y-72760778D01*
X158120718Y-72756527D01*
X158121547Y-72752106D01*
X158122306Y-72748060D01*
X158124979Y-72736723D01*
X158126830Y-72730233D01*
X158126831Y-72730227D01*
X158128165Y-72725550D01*
X158130887Y-72703592D01*
X158132088Y-72695873D01*
X158133189Y-72690004D01*
X158138686Y-72660683D01*
X158139627Y-72655663D01*
X158139627Y-72655661D01*
X158141281Y-72646839D01*
X158140392Y-72637908D01*
X158140779Y-72628934D01*
X158141386Y-72628960D01*
X158141519Y-72617844D01*
X158147443Y-72570065D01*
X158147443Y-72570058D01*
X158147996Y-72565601D01*
X158147249Y-72526060D01*
X158146057Y-72463003D01*
X158146057Y-72463001D01*
X158145887Y-72454022D01*
X158143900Y-72447674D01*
X158142598Y-72431549D01*
X158142598Y-72391759D01*
X158162600Y-72323638D01*
X158216256Y-72277145D01*
X158286530Y-72267041D01*
X158320941Y-72277146D01*
X158384976Y-72306390D01*
X158384979Y-72306391D01*
X158393173Y-72310133D01*
X158402088Y-72311415D01*
X158402089Y-72311415D01*
X158533395Y-72330294D01*
X158533402Y-72330295D01*
X158537843Y-72330933D01*
X159137843Y-72330933D01*
X159210922Y-72325706D01*
X159217405Y-72323802D01*
X159224047Y-72322604D01*
X159224295Y-72323981D01*
X159267821Y-72320866D01*
X159333384Y-72330293D01*
X159333399Y-72330294D01*
X159337843Y-72330933D01*
X159937843Y-72330933D01*
X160010922Y-72325706D01*
X160017405Y-72323802D01*
X160024047Y-72322604D01*
X160024295Y-72323981D01*
X160067821Y-72320866D01*
X160133384Y-72330293D01*
X160133399Y-72330294D01*
X160137843Y-72330933D01*
X160737843Y-72330933D01*
X160810922Y-72325706D01*
X160817405Y-72323802D01*
X160824047Y-72322604D01*
X160824295Y-72323981D01*
X160867821Y-72320866D01*
X160933384Y-72330293D01*
X160933399Y-72330294D01*
X160937843Y-72330933D01*
X161537843Y-72330933D01*
X161610922Y-72325706D01*
X161617405Y-72323802D01*
X161624047Y-72322604D01*
X161624295Y-72323981D01*
X161667821Y-72320866D01*
X161733384Y-72330293D01*
X161733399Y-72330294D01*
X161737843Y-72330933D01*
X162337843Y-72330933D01*
X162410922Y-72325706D01*
X162417405Y-72323802D01*
X162424047Y-72322604D01*
X162424295Y-72323981D01*
X162467821Y-72320866D01*
X162533384Y-72330293D01*
X162533399Y-72330294D01*
X162537843Y-72330933D01*
X163137843Y-72330933D01*
X163210922Y-72325706D01*
X163314609Y-72295261D01*
X163342513Y-72287068D01*
X163342515Y-72287067D01*
X163351159Y-72284529D01*
X163429545Y-72234153D01*
X163466534Y-72210382D01*
X163466537Y-72210380D01*
X163474114Y-72205510D01*
X163482409Y-72195938D01*
X163541275Y-72128003D01*
X163601001Y-72089619D01*
X163671997Y-72089619D01*
X163731723Y-72128003D01*
X163742495Y-72142391D01*
X163744893Y-72146122D01*
X163749766Y-72153704D01*
X163756576Y-72159605D01*
X163756578Y-72159607D01*
X163758858Y-72161583D01*
X163760488Y-72164120D01*
X163762477Y-72166415D01*
X163762147Y-72166701D01*
X163797240Y-72221310D01*
X163802343Y-72256805D01*
X163802343Y-79566734D01*
X163782341Y-79634855D01*
X163765438Y-79655830D01*
X163556667Y-79864600D01*
X163494355Y-79898625D01*
X163467572Y-79901504D01*
X163414513Y-79901504D01*
X163408061Y-79902876D01*
X163408056Y-79902876D01*
X163321113Y-79921357D01*
X163227713Y-79941210D01*
X163221683Y-79943895D01*
X163221682Y-79943895D01*
X163059280Y-80016201D01*
X163059278Y-80016202D01*
X163053250Y-80018886D01*
X163047909Y-80022766D01*
X163047908Y-80022767D01*
X162904093Y-80127254D01*
X162904091Y-80127256D01*
X162898749Y-80131137D01*
X162894328Y-80136047D01*
X162894327Y-80136048D01*
X162778751Y-80264409D01*
X162770963Y-80273058D01*
X162739798Y-80327038D01*
X162697854Y-80399687D01*
X162675476Y-80438446D01*
X162616462Y-80620073D01*
X162615772Y-80626636D01*
X162615772Y-80626637D01*
X162609921Y-80682303D01*
X162596500Y-80810000D01*
X162616462Y-80999927D01*
X162675476Y-81181554D01*
X162770963Y-81346942D01*
X162898749Y-81488863D01*
X162904091Y-81492744D01*
X162904093Y-81492746D01*
X163047908Y-81597233D01*
X163053250Y-81601114D01*
X163059278Y-81603798D01*
X163059280Y-81603799D01*
X163221682Y-81676105D01*
X163227713Y-81678790D01*
X163308213Y-81695901D01*
X163408056Y-81717124D01*
X163408061Y-81717124D01*
X163414513Y-81718496D01*
X163605487Y-81718496D01*
X163611939Y-81717124D01*
X163611944Y-81717124D01*
X163711787Y-81695901D01*
X163792287Y-81678790D01*
X163798318Y-81676105D01*
X163960720Y-81603799D01*
X163960722Y-81603798D01*
X163966750Y-81601114D01*
X163972092Y-81597233D01*
X164115907Y-81492746D01*
X164115909Y-81492744D01*
X164121251Y-81488863D01*
X164249037Y-81346942D01*
X164344524Y-81181554D01*
X164403538Y-80999927D01*
X164420571Y-80837871D01*
X164447584Y-80772214D01*
X164456786Y-80761947D01*
X164831706Y-80387027D01*
X164839739Y-80379716D01*
X164846113Y-80375671D01*
X164891783Y-80327037D01*
X164894537Y-80324196D01*
X164915197Y-80303536D01*
X164917622Y-80300410D01*
X164917628Y-80300403D01*
X164917939Y-80300001D01*
X164925650Y-80290972D01*
X164950594Y-80264409D01*
X164956018Y-80258633D01*
X164965820Y-80240803D01*
X164976674Y-80224280D01*
X164989149Y-80208198D01*
X165006773Y-80167472D01*
X165011989Y-80156825D01*
X165033365Y-80117941D01*
X165038424Y-80098236D01*
X165044829Y-80079527D01*
X165049764Y-80068124D01*
X165049765Y-80068121D01*
X165052911Y-80060851D01*
X165059813Y-80017277D01*
X165059852Y-80017029D01*
X165062259Y-80005408D01*
X165071814Y-79968189D01*
X165073292Y-79962433D01*
X165073343Y-79961622D01*
X165073343Y-79941761D01*
X165074894Y-79922051D01*
X165076786Y-79910105D01*
X165078026Y-79902276D01*
X165073902Y-79858645D01*
X165073343Y-79846788D01*
X165073343Y-72253396D01*
X165093345Y-72185275D01*
X165104119Y-72170884D01*
X165163922Y-72101868D01*
X165163925Y-72101863D01*
X165169827Y-72095052D01*
X165194585Y-72040839D01*
X165226801Y-71970297D01*
X165226801Y-71970296D01*
X165230543Y-71962103D01*
X165231825Y-71953187D01*
X165231827Y-71953180D01*
X165236558Y-71920275D01*
X165266051Y-71855694D01*
X165325777Y-71817311D01*
X165396774Y-71817311D01*
X165456500Y-71855695D01*
X165484506Y-71911939D01*
X165484640Y-71912565D01*
X165485883Y-71919290D01*
X165492494Y-71961403D01*
X165492497Y-71961412D01*
X165493888Y-71970274D01*
X165497712Y-71978393D01*
X165499481Y-71984153D01*
X165502240Y-71994760D01*
X165509695Y-72029575D01*
X165511409Y-72037581D01*
X165512775Y-72050572D01*
X165512948Y-72050547D01*
X165514208Y-72059433D01*
X165514196Y-72068410D01*
X165516704Y-72077030D01*
X165516704Y-72077031D01*
X165527376Y-72113714D01*
X165529597Y-72122522D01*
X165532746Y-72137228D01*
X165534650Y-72142391D01*
X165538200Y-72152021D01*
X165540957Y-72160393D01*
X165546216Y-72178469D01*
X165548281Y-72182883D01*
X165552133Y-72191117D01*
X165556224Y-72200921D01*
X165563741Y-72221310D01*
X165571346Y-72241939D01*
X165576692Y-72249154D01*
X165577636Y-72250901D01*
X165589083Y-72270100D01*
X165610921Y-72316780D01*
X165615168Y-72329122D01*
X165615331Y-72329059D01*
X165618557Y-72337438D01*
X165620562Y-72346186D01*
X165643575Y-72387350D01*
X165647714Y-72395426D01*
X165652198Y-72405011D01*
X165652203Y-72405020D01*
X165654101Y-72409077D01*
X165656558Y-72412829D01*
X165656560Y-72412832D01*
X165662749Y-72422282D01*
X165667320Y-72429825D01*
X165676494Y-72446235D01*
X165685107Y-72457237D01*
X165691290Y-72465861D01*
X165715244Y-72502436D01*
X165722070Y-72508262D01*
X165723369Y-72509736D01*
X165738856Y-72525891D01*
X165770624Y-72566470D01*
X165777538Y-72577546D01*
X165777683Y-72577448D01*
X165782706Y-72584884D01*
X165786627Y-72592961D01*
X165792656Y-72599612D01*
X165792659Y-72599616D01*
X165818307Y-72627909D01*
X165824166Y-72634861D01*
X165826245Y-72637516D01*
X165833439Y-72646705D01*
X165836674Y-72649806D01*
X165836679Y-72649812D01*
X165844830Y-72657626D01*
X165850982Y-72663952D01*
X165860337Y-72674272D01*
X165860341Y-72674276D01*
X165863611Y-72677883D01*
X165874475Y-72686667D01*
X165882433Y-72693677D01*
X165913996Y-72723937D01*
X165921957Y-72728080D01*
X165923541Y-72729216D01*
X165942276Y-72741488D01*
X165982347Y-72773887D01*
X165991575Y-72783127D01*
X165991694Y-72782999D01*
X165998258Y-72789114D01*
X166003896Y-72796106D01*
X166042609Y-72823033D01*
X166049880Y-72828489D01*
X166061589Y-72837957D01*
X166075162Y-72846051D01*
X166082562Y-72850823D01*
X166097994Y-72861557D01*
X166102363Y-72863685D01*
X166102366Y-72863687D01*
X166110543Y-72867670D01*
X166119894Y-72872724D01*
X166149729Y-72890515D01*
X166149732Y-72890516D01*
X166157441Y-72895113D01*
X166166132Y-72897362D01*
X166167947Y-72898119D01*
X166188949Y-72905863D01*
X166235266Y-72928425D01*
X166246333Y-72935355D01*
X166246420Y-72935204D01*
X166254199Y-72939693D01*
X166261258Y-72945235D01*
X166269589Y-72948573D01*
X166269592Y-72948575D01*
X166305031Y-72962775D01*
X166313339Y-72966457D01*
X166326879Y-72973052D01*
X166341907Y-72977883D01*
X166350201Y-72980874D01*
X166363133Y-72986056D01*
X166363142Y-72986059D01*
X166367657Y-72987868D01*
X166381256Y-72991004D01*
X166391497Y-72993825D01*
X166424578Y-73004461D01*
X166424585Y-73004462D01*
X166433123Y-73007207D01*
X166442093Y-73007445D01*
X166444017Y-73007773D01*
X166466235Y-73010600D01*
X166514138Y-73021647D01*
X166523896Y-73024414D01*
X166531170Y-73028092D01*
X166539994Y-73029731D01*
X166539995Y-73029731D01*
X166542876Y-73030266D01*
X166584573Y-73038009D01*
X166589830Y-73039103D01*
X166615743Y-73045078D01*
X166622184Y-73045623D01*
X166634546Y-73047290D01*
X166637678Y-73047871D01*
X166639093Y-73048134D01*
X166639096Y-73048134D01*
X166643866Y-73049020D01*
X166668623Y-73049742D01*
X166675508Y-73050134D01*
X166726945Y-73054486D01*
X166735738Y-73052703D01*
X166741778Y-73052353D01*
X166752733Y-73052196D01*
X166784831Y-73053132D01*
X166807685Y-73053799D01*
X166853061Y-73048646D01*
X166867023Y-73047841D01*
X166978215Y-73047618D01*
X167433590Y-73046705D01*
X167501751Y-73066571D01*
X167548351Y-73120133D01*
X167559843Y-73172705D01*
X167559843Y-113877933D01*
X167539841Y-113946054D01*
X167486185Y-113992547D01*
X167433843Y-114003933D01*
X162437843Y-114003933D01*
X162364764Y-114009160D01*
X162311727Y-114024733D01*
X162233173Y-114047798D01*
X162233171Y-114047799D01*
X162224527Y-114050337D01*
X162216948Y-114055208D01*
X162109152Y-114124484D01*
X162109149Y-114124486D01*
X162101572Y-114129356D01*
X162095671Y-114136166D01*
X162011761Y-114233002D01*
X162011759Y-114233005D01*
X162005859Y-114239814D01*
X161945143Y-114372763D01*
X161943861Y-114381678D01*
X161943861Y-114381679D01*
X161924982Y-114512985D01*
X161924981Y-114512992D01*
X161924343Y-114517433D01*
X161924343Y-119653433D01*
X161904341Y-119721554D01*
X161850685Y-119768047D01*
X161798343Y-119779433D01*
X144477343Y-119779433D01*
X144409222Y-119759431D01*
X144362729Y-119705775D01*
X144351343Y-119653433D01*
X144351343Y-115762528D01*
X147117121Y-115762528D01*
X147130018Y-116031010D01*
X147130931Y-116035600D01*
X147157974Y-116171554D01*
X147182456Y-116294637D01*
X147184035Y-116299035D01*
X147184037Y-116299042D01*
X147231147Y-116430254D01*
X147273285Y-116547617D01*
X147400510Y-116784393D01*
X147403301Y-116788130D01*
X147403305Y-116788137D01*
X147484944Y-116897464D01*
X147561334Y-116999763D01*
X147564643Y-117003043D01*
X147564648Y-117003049D01*
X147748909Y-117185708D01*
X147752226Y-117188996D01*
X147755988Y-117191754D01*
X147755991Y-117191757D01*
X147868339Y-117274134D01*
X147968991Y-117347935D01*
X147973122Y-117350109D01*
X147973123Y-117350109D01*
X148202734Y-117470913D01*
X148202740Y-117470915D01*
X148206869Y-117473088D01*
X148211276Y-117474627D01*
X148211283Y-117474630D01*
X148456216Y-117560164D01*
X148460632Y-117561706D01*
X148724706Y-117611843D01*
X148852198Y-117616852D01*
X148988622Y-117622212D01*
X148988627Y-117622212D01*
X148993290Y-117622395D01*
X149077656Y-117613156D01*
X149255831Y-117593643D01*
X149255837Y-117593642D01*
X149260484Y-117593133D01*
X149385709Y-117560164D01*
X149515895Y-117525889D01*
X149515897Y-117525888D01*
X149520418Y-117524698D01*
X149636954Y-117474630D01*
X149763087Y-117420439D01*
X149763089Y-117420438D01*
X149767381Y-117418594D01*
X149886028Y-117345173D01*
X149991976Y-117279611D01*
X149991980Y-117279608D01*
X149995949Y-117277152D01*
X150201099Y-117103480D01*
X150378325Y-116901392D01*
X150523735Y-116675327D01*
X150634133Y-116430254D01*
X150672381Y-116294637D01*
X150705824Y-116176053D01*
X150707093Y-116171554D01*
X150741015Y-115904911D01*
X150743500Y-115810000D01*
X150723580Y-115541948D01*
X150664259Y-115279784D01*
X150566838Y-115029268D01*
X150564520Y-115025212D01*
X150435779Y-114799961D01*
X150435777Y-114799959D01*
X150433460Y-114795904D01*
X150267052Y-114584817D01*
X150071273Y-114400646D01*
X149850421Y-114247436D01*
X149624789Y-114136166D01*
X149613535Y-114130616D01*
X149613531Y-114130615D01*
X149609349Y-114128552D01*
X149353353Y-114046607D01*
X149123419Y-114009160D01*
X149092669Y-114004152D01*
X149092668Y-114004152D01*
X149088057Y-114003401D01*
X148953673Y-114001642D01*
X148823965Y-113999944D01*
X148823962Y-113999944D01*
X148819288Y-113999883D01*
X148552952Y-114036129D01*
X148548462Y-114037438D01*
X148548456Y-114037439D01*
X148487495Y-114055208D01*
X148294899Y-114111345D01*
X148290652Y-114113303D01*
X148290649Y-114113304D01*
X148257574Y-114128552D01*
X148050798Y-114223877D01*
X148046889Y-114226440D01*
X147829924Y-114368688D01*
X147829919Y-114368692D01*
X147826011Y-114371254D01*
X147822519Y-114374371D01*
X147657194Y-114521929D01*
X147625477Y-114550237D01*
X147453602Y-114756895D01*
X147314160Y-114986688D01*
X147312351Y-114991002D01*
X147312350Y-114991004D01*
X147296305Y-115029268D01*
X147210215Y-115234568D01*
X147209064Y-115239100D01*
X147209063Y-115239103D01*
X147197574Y-115284341D01*
X147144051Y-115495089D01*
X147117121Y-115762528D01*
X144351343Y-115762528D01*
X144351343Y-114517433D01*
X144346116Y-114444354D01*
X144304939Y-114304117D01*
X144255019Y-114226440D01*
X144230792Y-114188742D01*
X144230790Y-114188739D01*
X144225920Y-114181162D01*
X144219110Y-114175261D01*
X144122274Y-114091351D01*
X144122271Y-114091349D01*
X144115462Y-114085449D01*
X143982513Y-114024733D01*
X143973598Y-114023451D01*
X143973597Y-114023451D01*
X143842291Y-114004572D01*
X143842284Y-114004571D01*
X143837843Y-114003933D01*
X138701843Y-114003933D01*
X138633722Y-113983931D01*
X138587229Y-113930275D01*
X138575843Y-113877933D01*
X138575843Y-73172580D01*
X138595845Y-73104459D01*
X138649501Y-73057966D01*
X138702071Y-73046580D01*
X139409116Y-73047857D01*
X139424711Y-73048855D01*
X139431694Y-73049739D01*
X139459567Y-73053269D01*
X139459572Y-73053269D01*
X139464387Y-73053879D01*
X139469238Y-73053741D01*
X139469244Y-73053741D01*
X139504452Y-73052737D01*
X139523328Y-73052199D01*
X139533031Y-73052410D01*
X139540789Y-73054096D01*
X139549739Y-73053465D01*
X139549740Y-73053465D01*
X139595165Y-73050262D01*
X139600434Y-73050001D01*
X139623013Y-73049357D01*
X139623015Y-73049357D01*
X139627496Y-73049229D01*
X139631920Y-73048466D01*
X139631921Y-73048466D01*
X139633499Y-73048194D01*
X139646049Y-73046673D01*
X139655128Y-73046033D01*
X139659873Y-73044948D01*
X139659884Y-73044946D01*
X139679665Y-73040421D01*
X139686341Y-73039082D01*
X139737472Y-73030266D01*
X139745533Y-73026320D01*
X139750408Y-73024742D01*
X139761111Y-73021792D01*
X139776090Y-73018366D01*
X139802019Y-73012436D01*
X139814652Y-73010940D01*
X139814614Y-73010696D01*
X139823484Y-73009328D01*
X139832461Y-73009231D01*
X139848145Y-73004461D01*
X139878051Y-72995366D01*
X139886616Y-72993087D01*
X139897555Y-72990585D01*
X139897568Y-72990581D01*
X139901927Y-72989584D01*
X139906104Y-72987978D01*
X139906107Y-72987977D01*
X139916119Y-72984127D01*
X139924658Y-72981191D01*
X139942124Y-72975878D01*
X139955279Y-72969528D01*
X139964813Y-72965402D01*
X140006090Y-72949530D01*
X140013228Y-72944085D01*
X140016210Y-72942420D01*
X140033749Y-72931650D01*
X140077833Y-72910370D01*
X140089804Y-72906100D01*
X140089713Y-72905870D01*
X140098057Y-72902558D01*
X140106787Y-72900462D01*
X140148152Y-72876772D01*
X140155953Y-72872662D01*
X140170124Y-72865821D01*
X140174229Y-72863061D01*
X140182751Y-72857330D01*
X140190444Y-72852550D01*
X140206252Y-72843497D01*
X140217651Y-72834381D01*
X140226038Y-72828224D01*
X140255288Y-72808556D01*
X140255289Y-72808555D01*
X140262734Y-72803549D01*
X140268475Y-72796655D01*
X140270991Y-72794384D01*
X140285708Y-72779954D01*
X140323933Y-72749384D01*
X140334654Y-72742550D01*
X140334513Y-72742346D01*
X140341906Y-72737258D01*
X140349951Y-72733268D01*
X140378444Y-72706991D01*
X140384986Y-72700958D01*
X140391700Y-72695189D01*
X140397637Y-72690440D01*
X140463328Y-72663508D01*
X140533150Y-72676366D01*
X140584937Y-72724933D01*
X140602343Y-72788834D01*
X140602343Y-74559355D01*
X140601832Y-74570198D01*
X140600185Y-74577566D01*
X140600434Y-74585491D01*
X140600434Y-74585492D01*
X140602281Y-74644248D01*
X140602343Y-74648207D01*
X140602343Y-74677423D01*
X140602903Y-74681852D01*
X140603836Y-74693694D01*
X140605229Y-74738039D01*
X140610909Y-74757589D01*
X140614912Y-74776922D01*
X140617465Y-74797129D01*
X140620384Y-74804501D01*
X140620385Y-74804506D01*
X140633798Y-74838384D01*
X140637642Y-74849611D01*
X140647808Y-74884599D01*
X140650021Y-74892216D01*
X140654056Y-74899039D01*
X140654057Y-74899041D01*
X140660382Y-74909736D01*
X140669077Y-74927483D01*
X140676569Y-74946406D01*
X140681230Y-74952822D01*
X140681231Y-74952823D01*
X140702642Y-74982292D01*
X140709161Y-74992216D01*
X140728721Y-75025292D01*
X140728728Y-75025301D01*
X140731749Y-75030410D01*
X140732286Y-75031019D01*
X140746328Y-75045061D01*
X140759168Y-75060094D01*
X140770939Y-75076295D01*
X140804710Y-75104233D01*
X140813489Y-75112222D01*
X142315130Y-76613863D01*
X142322441Y-76621896D01*
X142326486Y-76628270D01*
X142375119Y-76673939D01*
X142377961Y-76676694D01*
X142398621Y-76697354D01*
X142401747Y-76699779D01*
X142401754Y-76699785D01*
X142402156Y-76700096D01*
X142411183Y-76707806D01*
X142443524Y-76738175D01*
X142461354Y-76747977D01*
X142477876Y-76758830D01*
X142493959Y-76771306D01*
X142534683Y-76788929D01*
X142545349Y-76794155D01*
X142547055Y-76795093D01*
X142597111Y-76845441D01*
X142612000Y-76914858D01*
X142586996Y-76981306D01*
X142530037Y-77023687D01*
X142486348Y-77031504D01*
X142474513Y-77031504D01*
X142468061Y-77032876D01*
X142468056Y-77032876D01*
X142387154Y-77050073D01*
X142287713Y-77071210D01*
X142281683Y-77073895D01*
X142281682Y-77073895D01*
X142119280Y-77146201D01*
X142119278Y-77146202D01*
X142113250Y-77148886D01*
X142107909Y-77152766D01*
X142107908Y-77152767D01*
X141964093Y-77257254D01*
X141964091Y-77257256D01*
X141958749Y-77261137D01*
X141830963Y-77403058D01*
X141735476Y-77568446D01*
X141676462Y-77750073D01*
X141656500Y-77940000D01*
X141676462Y-78129927D01*
X141678502Y-78136205D01*
X141678502Y-78136206D01*
X141695311Y-78187939D01*
X141735476Y-78311554D01*
X141738779Y-78317276D01*
X141738780Y-78317277D01*
X141771649Y-78374208D01*
X141830963Y-78476942D01*
X141835381Y-78481849D01*
X141835382Y-78481850D01*
X141926075Y-78582575D01*
X141958749Y-78618863D01*
X141964091Y-78622744D01*
X141964093Y-78622746D01*
X142107908Y-78727233D01*
X142113250Y-78731114D01*
X142119278Y-78733798D01*
X142119280Y-78733799D01*
X142281624Y-78806079D01*
X142287713Y-78808790D01*
X142367663Y-78825784D01*
X142468056Y-78847124D01*
X142468061Y-78847124D01*
X142474513Y-78848496D01*
X142530401Y-78848496D01*
X142598522Y-78868498D01*
X142619497Y-78885401D01*
X143065845Y-79331750D01*
X143099870Y-79394062D01*
X143094805Y-79464878D01*
X143085870Y-79483841D01*
X143025476Y-79588446D01*
X142966462Y-79770073D01*
X142946500Y-79960000D01*
X142947190Y-79966565D01*
X142951919Y-80011554D01*
X142966462Y-80149927D01*
X143025476Y-80331554D01*
X143028779Y-80337276D01*
X143028780Y-80337277D01*
X143050947Y-80375671D01*
X143120963Y-80496942D01*
X143125381Y-80501849D01*
X143125382Y-80501850D01*
X143207208Y-80592727D01*
X143248749Y-80638863D01*
X143254091Y-80642744D01*
X143254093Y-80642746D01*
X143397908Y-80747233D01*
X143403250Y-80751114D01*
X143409278Y-80753798D01*
X143409280Y-80753799D01*
X143535510Y-80810000D01*
X143577713Y-80828790D01*
X143662824Y-80846881D01*
X143758056Y-80867124D01*
X143758061Y-80867124D01*
X143764513Y-80868496D01*
X143955487Y-80868496D01*
X143961939Y-80867124D01*
X143961944Y-80867124D01*
X144057176Y-80846881D01*
X144142287Y-80828790D01*
X144184490Y-80810000D01*
X144310720Y-80753799D01*
X144310722Y-80753798D01*
X144316750Y-80751114D01*
X144322092Y-80747233D01*
X144465907Y-80642746D01*
X144465909Y-80642744D01*
X144471251Y-80638863D01*
X144512792Y-80592727D01*
X144594618Y-80501850D01*
X144594619Y-80501849D01*
X144599037Y-80496942D01*
X144669053Y-80375671D01*
X144691220Y-80337277D01*
X144691221Y-80337276D01*
X144694524Y-80331554D01*
X144753538Y-80149927D01*
X144768082Y-80011554D01*
X144772810Y-79966565D01*
X144773500Y-79960000D01*
X144753538Y-79770073D01*
X144694524Y-79588446D01*
X144599037Y-79423058D01*
X144527111Y-79343176D01*
X144496393Y-79279169D01*
X144494809Y-79262824D01*
X144493562Y-79223147D01*
X144493500Y-79219189D01*
X144493500Y-79190422D01*
X144492960Y-79186148D01*
X144492026Y-79174296D01*
X144490887Y-79138043D01*
X144490638Y-79130117D01*
X144484986Y-79110661D01*
X144480981Y-79091321D01*
X144478440Y-79071212D01*
X144475521Y-79063840D01*
X144475520Y-79063835D01*
X144462164Y-79030101D01*
X144458319Y-79018872D01*
X144448197Y-78984031D01*
X144448197Y-78984030D01*
X144445986Y-78976421D01*
X144435676Y-78958988D01*
X144426982Y-78941241D01*
X144419522Y-78922400D01*
X144393533Y-78886629D01*
X144387017Y-78876710D01*
X144386193Y-78875317D01*
X144364513Y-78838658D01*
X144364145Y-78838241D01*
X144350062Y-78824158D01*
X144337228Y-78809133D01*
X144325446Y-78792917D01*
X144291664Y-78764970D01*
X144282885Y-78756981D01*
X143517118Y-77991214D01*
X143483092Y-77928902D01*
X143480903Y-77915290D01*
X143464228Y-77756637D01*
X143464228Y-77756636D01*
X143463538Y-77750073D01*
X143404524Y-77568446D01*
X143309037Y-77403058D01*
X143181251Y-77261137D01*
X143175909Y-77257256D01*
X143175907Y-77257254D01*
X143032092Y-77152767D01*
X143032091Y-77152766D01*
X143026750Y-77148886D01*
X143020722Y-77146202D01*
X143020720Y-77146201D01*
X142909330Y-77096607D01*
X142855234Y-77050627D01*
X142834585Y-76982699D01*
X142853937Y-76914391D01*
X142907148Y-76867390D01*
X142960579Y-76855500D01*
X144613607Y-76855500D01*
X144681728Y-76875502D01*
X144698911Y-76890109D01*
X144699425Y-76889538D01*
X144704327Y-76893952D01*
X144708749Y-76898863D01*
X144714091Y-76902744D01*
X144714093Y-76902746D01*
X144824140Y-76982699D01*
X144863250Y-77011114D01*
X144869278Y-77013798D01*
X144869280Y-77013799D01*
X145004258Y-77073895D01*
X145037713Y-77088790D01*
X145131113Y-77108643D01*
X145218056Y-77127124D01*
X145218061Y-77127124D01*
X145224513Y-77128496D01*
X145415487Y-77128496D01*
X145421939Y-77127124D01*
X145421944Y-77127124D01*
X145508887Y-77108643D01*
X145602287Y-77088790D01*
X145635742Y-77073895D01*
X145770720Y-77013799D01*
X145770722Y-77013798D01*
X145776750Y-77011114D01*
X145815860Y-76982699D01*
X145925907Y-76902746D01*
X145925909Y-76902744D01*
X145931251Y-76898863D01*
X145999515Y-76823048D01*
X146054618Y-76761850D01*
X146054619Y-76761849D01*
X146059037Y-76756942D01*
X146154524Y-76591554D01*
X146213538Y-76409927D01*
X146220748Y-76341326D01*
X146247761Y-76275669D01*
X146305982Y-76235039D01*
X146346058Y-76228496D01*
X146455487Y-76228496D01*
X146461939Y-76227124D01*
X146461944Y-76227124D01*
X146548887Y-76208643D01*
X146642287Y-76188790D01*
X146648318Y-76186105D01*
X146810720Y-76113799D01*
X146810722Y-76113798D01*
X146816750Y-76111114D01*
X146822092Y-76107233D01*
X146965907Y-76002746D01*
X146965909Y-76002744D01*
X146971251Y-75998863D01*
X147099037Y-75856942D01*
X147194524Y-75691554D01*
X147240095Y-75551301D01*
X147251498Y-75516206D01*
X147251498Y-75516205D01*
X147253538Y-75509927D01*
X147273500Y-75320000D01*
X147253538Y-75130073D01*
X147233981Y-75069881D01*
X147196566Y-74954731D01*
X147194524Y-74948446D01*
X147166512Y-74899927D01*
X147134169Y-74843908D01*
X147099037Y-74783058D01*
X147076090Y-74757572D01*
X146975673Y-74646048D01*
X146975672Y-74646047D01*
X146971251Y-74641137D01*
X146965909Y-74637256D01*
X146965907Y-74637254D01*
X146822092Y-74532767D01*
X146822091Y-74532766D01*
X146816750Y-74528886D01*
X146810722Y-74526202D01*
X146810720Y-74526201D01*
X146648318Y-74453895D01*
X146648317Y-74453895D01*
X146642287Y-74451210D01*
X146548887Y-74431357D01*
X146461944Y-74412876D01*
X146461939Y-74412876D01*
X146455487Y-74411504D01*
X146264513Y-74411504D01*
X146258061Y-74412876D01*
X146258056Y-74412876D01*
X146171113Y-74431357D01*
X146077713Y-74451210D01*
X145941908Y-74511674D01*
X145871543Y-74521108D01*
X145807246Y-74491002D01*
X145801566Y-74485662D01*
X144787118Y-73471214D01*
X144753092Y-73408902D01*
X144750903Y-73395290D01*
X144734228Y-73236637D01*
X144734228Y-73236636D01*
X144733538Y-73230073D01*
X144725543Y-73205465D01*
X144676566Y-73054731D01*
X144674524Y-73048446D01*
X144670322Y-73041167D01*
X144613310Y-72942420D01*
X144579037Y-72883058D01*
X144572226Y-72875493D01*
X144455673Y-72746048D01*
X144455672Y-72746047D01*
X144451251Y-72741137D01*
X144445909Y-72737256D01*
X144445907Y-72737254D01*
X144302092Y-72632767D01*
X144302091Y-72632766D01*
X144296750Y-72628886D01*
X144290722Y-72626202D01*
X144290720Y-72626201D01*
X144169072Y-72572040D01*
X144114976Y-72526060D01*
X144094327Y-72458132D01*
X144113679Y-72389824D01*
X144166890Y-72342823D01*
X144220321Y-72330933D01*
X144737843Y-72330933D01*
X144810922Y-72325706D01*
X144817405Y-72323802D01*
X144824047Y-72322604D01*
X144824295Y-72323981D01*
X144867821Y-72320866D01*
X144933384Y-72330293D01*
X144933399Y-72330294D01*
X144937843Y-72330933D01*
X145537843Y-72330933D01*
X145610922Y-72325706D01*
X145714609Y-72295261D01*
X145742513Y-72287068D01*
X145742515Y-72287067D01*
X145751159Y-72284529D01*
X145829545Y-72234153D01*
X145866534Y-72210382D01*
X145866537Y-72210380D01*
X145874114Y-72205510D01*
X145882409Y-72195938D01*
X145941275Y-72128003D01*
X146001001Y-72089619D01*
X146071997Y-72089619D01*
X146131723Y-72128003D01*
X146142495Y-72142391D01*
X146144893Y-72146122D01*
X146149766Y-72153704D01*
X146156576Y-72159605D01*
X146253412Y-72243515D01*
X146253415Y-72243517D01*
X146260224Y-72249417D01*
X146268422Y-72253161D01*
X146348784Y-72289861D01*
X146393173Y-72310133D01*
X146402088Y-72311415D01*
X146402089Y-72311415D01*
X146533395Y-72330294D01*
X146533402Y-72330295D01*
X146537843Y-72330933D01*
X147137843Y-72330933D01*
X147210922Y-72325706D01*
X147217405Y-72323802D01*
X147224047Y-72322604D01*
X147224295Y-72323981D01*
X147267821Y-72320866D01*
X147333384Y-72330293D01*
X147333399Y-72330294D01*
X147337843Y-72330933D01*
X147937843Y-72330933D01*
X148010922Y-72325706D01*
X148114609Y-72295261D01*
X148142513Y-72287068D01*
X148142515Y-72287067D01*
X148151159Y-72284529D01*
X148229545Y-72234153D01*
X148266534Y-72210382D01*
X148266537Y-72210380D01*
X148274114Y-72205510D01*
X148282409Y-72195938D01*
X148341275Y-72128003D01*
X148401001Y-72089619D01*
X148471997Y-72089619D01*
X148531723Y-72128003D01*
X148542495Y-72142391D01*
X148544893Y-72146122D01*
X148549766Y-72153704D01*
X148556576Y-72159605D01*
X148556578Y-72159607D01*
X148560858Y-72163316D01*
X148599240Y-72223043D01*
X148604343Y-72258538D01*
X148604343Y-77787563D01*
X148584341Y-77855684D01*
X148567438Y-77876658D01*
X144457476Y-81986620D01*
X144449388Y-81993980D01*
X144442994Y-81998038D01*
X144437569Y-82003815D01*
X144397120Y-82046889D01*
X144394365Y-82049731D01*
X144374051Y-82070045D01*
X144371406Y-82073456D01*
X144363702Y-82082476D01*
X144333432Y-82114710D01*
X144329615Y-82121654D01*
X144329613Y-82121656D01*
X144323671Y-82132464D01*
X144312817Y-82148988D01*
X144300406Y-82164988D01*
X144297259Y-82172259D01*
X144297259Y-82172260D01*
X144282848Y-82205562D01*
X144277627Y-82216218D01*
X144256327Y-82254963D01*
X144254355Y-82262646D01*
X144254354Y-82262647D01*
X144251290Y-82274579D01*
X144244886Y-82293283D01*
X144239990Y-82304596D01*
X144239988Y-82304603D01*
X144236841Y-82311875D01*
X144235602Y-82319699D01*
X144235601Y-82319702D01*
X144229924Y-82355546D01*
X144227517Y-82367167D01*
X144222147Y-82388084D01*
X144216524Y-82409986D01*
X144216489Y-82410542D01*
X144216489Y-82430463D01*
X144214938Y-82450173D01*
X144211805Y-82469955D01*
X144212551Y-82477847D01*
X144215930Y-82513593D01*
X144216489Y-82525451D01*
X144216489Y-95491605D01*
X144215975Y-95502509D01*
X144214323Y-95509900D01*
X144214572Y-95517826D01*
X144214572Y-95517827D01*
X144216427Y-95576855D01*
X144216489Y-95580812D01*
X144216489Y-95609567D01*
X144216985Y-95613492D01*
X144216985Y-95613493D01*
X144217028Y-95613832D01*
X144217961Y-95625676D01*
X144219350Y-95669872D01*
X144221562Y-95677484D01*
X144225001Y-95689322D01*
X144229011Y-95708684D01*
X144231549Y-95728777D01*
X144234465Y-95736142D01*
X144234466Y-95736146D01*
X144247826Y-95769890D01*
X144251670Y-95781117D01*
X144264003Y-95823567D01*
X144268041Y-95830395D01*
X144274312Y-95841000D01*
X144283008Y-95858751D01*
X144287547Y-95870215D01*
X144290467Y-95877589D01*
X144295128Y-95884004D01*
X144316454Y-95913356D01*
X144322972Y-95923279D01*
X144345475Y-95961330D01*
X144345844Y-95961748D01*
X144348155Y-95964059D01*
X144359932Y-95975837D01*
X144372766Y-95990864D01*
X144379883Y-96000659D01*
X144384543Y-96007072D01*
X144418329Y-96035022D01*
X144427100Y-96043004D01*
X145072883Y-96688788D01*
X145106908Y-96751100D01*
X145109097Y-96764712D01*
X145120396Y-96872214D01*
X145126462Y-96929927D01*
X145185476Y-97111554D01*
X145280963Y-97276942D01*
X145285381Y-97281849D01*
X145285382Y-97281850D01*
X145385216Y-97392727D01*
X145408749Y-97418863D01*
X145414091Y-97422744D01*
X145414093Y-97422746D01*
X145535754Y-97511137D01*
X145563250Y-97531114D01*
X145569278Y-97533798D01*
X145569280Y-97533799D01*
X145726777Y-97603921D01*
X145737713Y-97608790D01*
X145831113Y-97628643D01*
X145918056Y-97647124D01*
X145918061Y-97647124D01*
X145924513Y-97648496D01*
X146115487Y-97648496D01*
X146121939Y-97647124D01*
X146121944Y-97647124D01*
X146208887Y-97628643D01*
X146302287Y-97608790D01*
X146313223Y-97603921D01*
X146470720Y-97533799D01*
X146470722Y-97533798D01*
X146476750Y-97531114D01*
X146504246Y-97511137D01*
X146625907Y-97422746D01*
X146625909Y-97422744D01*
X146631251Y-97418863D01*
X146654784Y-97392727D01*
X146754618Y-97281850D01*
X146754619Y-97281849D01*
X146759037Y-97276942D01*
X146854524Y-97111554D01*
X146913538Y-96929927D01*
X146919624Y-96872027D01*
X146932810Y-96746565D01*
X146933500Y-96740000D01*
X146924576Y-96655096D01*
X146937348Y-96585259D01*
X146975825Y-96539990D01*
X147095907Y-96452746D01*
X147095909Y-96452744D01*
X147101251Y-96448863D01*
X147229037Y-96306942D01*
X147324524Y-96141554D01*
X147369618Y-96002770D01*
X147381498Y-95966206D01*
X147381498Y-95966205D01*
X147383538Y-95959927D01*
X147403500Y-95770000D01*
X147396442Y-95702844D01*
X147384228Y-95586637D01*
X147384228Y-95586636D01*
X147383538Y-95580073D01*
X147373931Y-95550504D01*
X147326566Y-95404731D01*
X147324524Y-95398446D01*
X147229037Y-95233058D01*
X147101251Y-95091137D01*
X147095909Y-95087256D01*
X147095907Y-95087254D01*
X146952092Y-94982767D01*
X146952091Y-94982766D01*
X146946750Y-94978886D01*
X146940722Y-94976202D01*
X146940720Y-94976201D01*
X146778318Y-94903895D01*
X146778317Y-94903895D01*
X146772287Y-94901210D01*
X146678887Y-94881357D01*
X146591944Y-94862876D01*
X146591939Y-94862876D01*
X146585487Y-94861504D01*
X146529598Y-94861504D01*
X146461477Y-94841502D01*
X146440503Y-94824599D01*
X145970405Y-94354501D01*
X145936379Y-94292189D01*
X145933500Y-94265406D01*
X145933500Y-92143665D01*
X145953502Y-92075544D01*
X146007158Y-92029051D01*
X146077432Y-92018947D01*
X146142012Y-92048441D01*
X146153133Y-92059352D01*
X146278749Y-92198863D01*
X146284091Y-92202744D01*
X146284093Y-92202746D01*
X146427908Y-92307233D01*
X146433250Y-92311114D01*
X146439278Y-92313798D01*
X146439280Y-92313799D01*
X146601682Y-92386105D01*
X146607713Y-92388790D01*
X146701113Y-92408643D01*
X146788056Y-92427124D01*
X146788061Y-92427124D01*
X146794513Y-92428496D01*
X146985487Y-92428496D01*
X146991945Y-92427123D01*
X146991948Y-92427123D01*
X147022301Y-92420671D01*
X147093092Y-92426072D01*
X147149725Y-92468888D01*
X147174220Y-92535525D01*
X147174500Y-92543917D01*
X147174500Y-93331512D01*
X147173989Y-93342355D01*
X147172342Y-93349723D01*
X147172591Y-93357648D01*
X147172591Y-93357649D01*
X147174438Y-93416405D01*
X147174500Y-93420364D01*
X147174500Y-93449580D01*
X147175060Y-93454009D01*
X147175993Y-93465851D01*
X147177386Y-93510196D01*
X147183066Y-93529746D01*
X147187069Y-93549079D01*
X147189622Y-93569286D01*
X147192541Y-93576658D01*
X147192542Y-93576663D01*
X147205955Y-93610541D01*
X147209799Y-93621768D01*
X147219965Y-93656756D01*
X147222178Y-93664373D01*
X147226213Y-93671196D01*
X147226214Y-93671198D01*
X147232539Y-93681893D01*
X147241234Y-93699640D01*
X147248726Y-93718563D01*
X147253387Y-93724979D01*
X147253388Y-93724980D01*
X147274799Y-93754449D01*
X147281318Y-93764373D01*
X147300878Y-93797449D01*
X147300885Y-93797458D01*
X147303906Y-93802567D01*
X147304443Y-93803176D01*
X147318485Y-93817218D01*
X147331325Y-93832251D01*
X147343096Y-93848452D01*
X147376867Y-93876390D01*
X147385646Y-93884379D01*
X148207595Y-94706328D01*
X148241621Y-94768640D01*
X148244500Y-94795423D01*
X148244500Y-97034578D01*
X148224498Y-97102699D01*
X148207595Y-97123673D01*
X148016135Y-97315133D01*
X148008101Y-97322443D01*
X148001730Y-97326486D01*
X147996305Y-97332263D01*
X147996304Y-97332264D01*
X147956061Y-97375119D01*
X147953306Y-97377961D01*
X147932646Y-97398621D01*
X147930221Y-97401747D01*
X147930215Y-97401754D01*
X147929904Y-97402156D01*
X147922194Y-97411183D01*
X147891825Y-97443524D01*
X147882023Y-97461354D01*
X147871170Y-97477876D01*
X147858694Y-97493959D01*
X147841071Y-97534683D01*
X147835854Y-97545332D01*
X147814478Y-97584216D01*
X147812507Y-97591894D01*
X147809419Y-97603921D01*
X147803014Y-97622630D01*
X147794932Y-97641306D01*
X147793693Y-97649131D01*
X147793692Y-97649133D01*
X147787991Y-97685128D01*
X147785584Y-97696749D01*
X147777913Y-97726629D01*
X147774551Y-97739724D01*
X147774500Y-97740535D01*
X147774500Y-97760396D01*
X147772949Y-97780106D01*
X147769817Y-97799881D01*
X147770563Y-97807773D01*
X147773941Y-97843512D01*
X147774500Y-97855369D01*
X147774500Y-98421512D01*
X147773989Y-98432355D01*
X147772342Y-98439723D01*
X147772591Y-98447648D01*
X147772591Y-98447649D01*
X147774438Y-98506405D01*
X147774500Y-98510364D01*
X147774500Y-98539580D01*
X147775060Y-98544009D01*
X147775993Y-98555851D01*
X147777386Y-98600196D01*
X147783066Y-98619746D01*
X147787069Y-98639079D01*
X147789622Y-98659286D01*
X147792541Y-98666658D01*
X147792542Y-98666663D01*
X147805955Y-98700541D01*
X147809799Y-98711768D01*
X147819965Y-98746756D01*
X147822178Y-98754373D01*
X147826213Y-98761196D01*
X147826214Y-98761198D01*
X147832539Y-98771893D01*
X147841234Y-98789640D01*
X147848726Y-98808563D01*
X147853387Y-98814979D01*
X147853388Y-98814980D01*
X147874799Y-98844449D01*
X147881318Y-98854373D01*
X147900878Y-98887449D01*
X147900885Y-98887458D01*
X147903906Y-98892567D01*
X147904443Y-98893176D01*
X147918485Y-98907218D01*
X147931325Y-98922251D01*
X147943096Y-98938452D01*
X147976861Y-98966385D01*
X147985640Y-98974373D01*
X148515134Y-99503866D01*
X148522441Y-99511897D01*
X148526486Y-99518270D01*
X148573455Y-99562376D01*
X148575136Y-99563955D01*
X148577978Y-99566710D01*
X148598621Y-99587353D01*
X148602155Y-99590094D01*
X148602156Y-99590095D01*
X148611183Y-99597805D01*
X148643524Y-99628175D01*
X148661353Y-99637977D01*
X148677874Y-99648829D01*
X148693959Y-99661306D01*
X148721902Y-99673397D01*
X148734680Y-99678927D01*
X148745343Y-99684151D01*
X148777267Y-99701702D01*
X148777269Y-99701703D01*
X148784216Y-99705522D01*
X148791896Y-99707494D01*
X148803931Y-99710584D01*
X148822632Y-99716987D01*
X148834029Y-99721919D01*
X148834035Y-99721921D01*
X148841306Y-99725067D01*
X148849131Y-99726306D01*
X148849140Y-99726309D01*
X148885121Y-99732008D01*
X148896742Y-99734414D01*
X148933968Y-99743972D01*
X148933977Y-99743973D01*
X148939724Y-99745449D01*
X148940535Y-99745500D01*
X148960396Y-99745500D01*
X148980106Y-99747051D01*
X148999881Y-99750183D01*
X149007773Y-99749437D01*
X149043509Y-99746059D01*
X149055366Y-99745500D01*
X160014577Y-99745500D01*
X160082698Y-99765502D01*
X160103672Y-99782405D01*
X162763214Y-102441947D01*
X162797240Y-102504259D01*
X162799429Y-102517871D01*
X162816462Y-102679927D01*
X162875476Y-102861554D01*
X162970963Y-103026942D01*
X163098749Y-103168863D01*
X163104091Y-103172744D01*
X163104093Y-103172746D01*
X163247908Y-103277233D01*
X163253250Y-103281114D01*
X163259278Y-103283798D01*
X163259280Y-103283799D01*
X163421682Y-103356105D01*
X163427713Y-103358790D01*
X163521113Y-103378643D01*
X163608056Y-103397124D01*
X163608061Y-103397124D01*
X163614513Y-103398496D01*
X163805487Y-103398496D01*
X163811939Y-103397124D01*
X163811944Y-103397124D01*
X163898887Y-103378643D01*
X163992287Y-103358790D01*
X163998318Y-103356105D01*
X164160720Y-103283799D01*
X164160722Y-103283798D01*
X164166750Y-103281114D01*
X164172092Y-103277233D01*
X164315907Y-103172746D01*
X164315909Y-103172744D01*
X164321251Y-103168863D01*
X164449037Y-103026942D01*
X164544524Y-102861554D01*
X164603538Y-102679927D01*
X164623500Y-102490000D01*
X164603538Y-102300073D01*
X164544524Y-102118446D01*
X164449037Y-101953058D01*
X164321251Y-101811137D01*
X164315909Y-101807256D01*
X164315907Y-101807254D01*
X164172092Y-101702767D01*
X164172091Y-101702766D01*
X164166750Y-101698886D01*
X164160722Y-101696202D01*
X164160720Y-101696201D01*
X163998318Y-101623895D01*
X163998317Y-101623895D01*
X163992287Y-101621210D01*
X163898887Y-101601357D01*
X163811944Y-101582876D01*
X163811939Y-101582876D01*
X163805487Y-101581504D01*
X163752427Y-101581504D01*
X163684306Y-101561502D01*
X163663332Y-101544599D01*
X160834870Y-98716137D01*
X160827559Y-98708104D01*
X160823514Y-98701730D01*
X160774880Y-98656060D01*
X160772039Y-98653306D01*
X160751379Y-98632646D01*
X160748253Y-98630221D01*
X160748246Y-98630215D01*
X160747844Y-98629904D01*
X160738815Y-98622193D01*
X160712252Y-98597249D01*
X160706476Y-98591825D01*
X160688646Y-98582023D01*
X160672123Y-98571169D01*
X160656041Y-98558694D01*
X160615315Y-98541070D01*
X160604668Y-98535854D01*
X160565784Y-98514478D01*
X160546079Y-98509419D01*
X160527370Y-98503014D01*
X160515967Y-98498079D01*
X160515964Y-98498078D01*
X160508694Y-98494932D01*
X160500869Y-98493693D01*
X160500867Y-98493692D01*
X160464872Y-98487991D01*
X160453251Y-98485584D01*
X160423371Y-98477913D01*
X160410276Y-98474551D01*
X160409465Y-98474500D01*
X160389604Y-98474500D01*
X160369894Y-98472949D01*
X160357948Y-98471057D01*
X160350119Y-98469817D01*
X160316983Y-98472949D01*
X160306488Y-98473941D01*
X160294631Y-98474500D01*
X152758423Y-98474500D01*
X152690302Y-98454498D01*
X152643809Y-98400842D01*
X152633705Y-98330568D01*
X152663199Y-98265988D01*
X152669328Y-98259405D01*
X153273863Y-97654870D01*
X153281896Y-97647559D01*
X153288270Y-97643514D01*
X153333940Y-97594880D01*
X153336694Y-97592039D01*
X153357354Y-97571379D01*
X153359779Y-97568253D01*
X153359785Y-97568246D01*
X153360096Y-97567844D01*
X153367807Y-97558815D01*
X153392751Y-97532252D01*
X153398175Y-97526476D01*
X153407977Y-97508646D01*
X153418831Y-97492123D01*
X153422264Y-97487697D01*
X153431306Y-97476041D01*
X153448930Y-97435315D01*
X153454146Y-97424668D01*
X153475522Y-97385784D01*
X153480581Y-97366079D01*
X153486986Y-97347370D01*
X153491921Y-97335967D01*
X153491922Y-97335964D01*
X153495068Y-97328694D01*
X153496819Y-97317642D01*
X153502009Y-97284872D01*
X153504416Y-97273251D01*
X153513971Y-97236032D01*
X153515449Y-97230276D01*
X153515500Y-97229465D01*
X153515500Y-97209604D01*
X153517051Y-97189894D01*
X153518943Y-97177948D01*
X153520183Y-97170119D01*
X153516059Y-97126490D01*
X153515500Y-97114634D01*
X153515500Y-91655601D01*
X153535502Y-91587480D01*
X153552405Y-91566506D01*
X157171405Y-87947506D01*
X157233717Y-87913480D01*
X157304532Y-87918545D01*
X157361368Y-87961092D01*
X157386179Y-88027612D01*
X157386500Y-88036601D01*
X157386500Y-88681210D01*
X157385986Y-88692114D01*
X157384334Y-88699505D01*
X157384583Y-88707431D01*
X157384583Y-88707432D01*
X157386438Y-88766460D01*
X157386500Y-88770417D01*
X157386500Y-88799172D01*
X157386996Y-88803097D01*
X157386996Y-88803098D01*
X157387039Y-88803437D01*
X157387972Y-88815281D01*
X157389361Y-88859477D01*
X157391573Y-88867089D01*
X157395012Y-88878927D01*
X157399022Y-88898289D01*
X157401560Y-88918382D01*
X157404476Y-88925747D01*
X157404477Y-88925751D01*
X157417837Y-88959495D01*
X157421681Y-88970722D01*
X157434014Y-89013172D01*
X157438052Y-89020000D01*
X157444323Y-89030605D01*
X157453019Y-89048356D01*
X157456980Y-89058359D01*
X157460478Y-89067194D01*
X157465139Y-89073609D01*
X157486465Y-89102961D01*
X157492983Y-89112884D01*
X157515486Y-89150935D01*
X157515855Y-89151353D01*
X157518165Y-89153663D01*
X157519587Y-89155619D01*
X157542983Y-89216539D01*
X157560542Y-89383601D01*
X157562582Y-89389879D01*
X157562582Y-89389880D01*
X157575681Y-89430193D01*
X157619556Y-89565228D01*
X157715043Y-89730616D01*
X157842829Y-89872537D01*
X157848171Y-89876418D01*
X157848173Y-89876420D01*
X157970752Y-89965478D01*
X157997330Y-89984788D01*
X158003358Y-89987472D01*
X158003360Y-89987473D01*
X158112293Y-90035973D01*
X158171793Y-90062464D01*
X158265193Y-90082317D01*
X158352136Y-90100798D01*
X158352141Y-90100798D01*
X158358593Y-90102170D01*
X158549567Y-90102170D01*
X158556019Y-90100798D01*
X158556024Y-90100798D01*
X158735173Y-90062718D01*
X158805964Y-90068120D01*
X158844974Y-90094789D01*
X158846435Y-90093166D01*
X158851337Y-90097580D01*
X158855759Y-90102491D01*
X158861101Y-90106372D01*
X158861103Y-90106374D01*
X159004918Y-90210861D01*
X159010260Y-90214742D01*
X159016288Y-90217426D01*
X159016290Y-90217427D01*
X159178692Y-90289733D01*
X159184723Y-90292418D01*
X159278123Y-90312271D01*
X159365066Y-90330752D01*
X159365071Y-90330752D01*
X159371523Y-90332124D01*
X159562497Y-90332124D01*
X159568949Y-90330752D01*
X159568954Y-90330752D01*
X159655897Y-90312271D01*
X159749297Y-90292418D01*
X159755328Y-90289733D01*
X159917730Y-90217427D01*
X159917732Y-90217426D01*
X159923760Y-90214742D01*
X159929102Y-90210861D01*
X160072917Y-90106374D01*
X160072919Y-90106372D01*
X160078261Y-90102491D01*
X160114073Y-90062718D01*
X160201628Y-89965478D01*
X160201629Y-89965477D01*
X160206047Y-89960570D01*
X160301534Y-89795182D01*
X160360548Y-89613555D01*
X160380510Y-89423628D01*
X160360548Y-89233701D01*
X160347543Y-89193674D01*
X160303576Y-89058359D01*
X160301534Y-89052074D01*
X160294066Y-89039138D01*
X160219810Y-88910524D01*
X160206047Y-88886686D01*
X160136414Y-88809350D01*
X160082683Y-88749676D01*
X160082682Y-88749675D01*
X160078261Y-88744765D01*
X160072920Y-88740885D01*
X160072915Y-88740880D01*
X160050660Y-88724711D01*
X160022788Y-88696839D01*
X160002212Y-88668520D01*
X159995692Y-88658595D01*
X159976132Y-88625519D01*
X159976125Y-88625510D01*
X159973104Y-88620401D01*
X159972567Y-88619792D01*
X159958525Y-88605750D01*
X159945684Y-88590716D01*
X159938574Y-88580930D01*
X159933914Y-88574516D01*
X159900143Y-88546578D01*
X159891364Y-88538589D01*
X159144416Y-87791641D01*
X159110390Y-87729329D01*
X159107511Y-87702546D01*
X159107511Y-78761255D01*
X159108022Y-78750411D01*
X159109668Y-78743048D01*
X159107573Y-78676383D01*
X159107511Y-78672425D01*
X159107511Y-78643191D01*
X159106949Y-78638740D01*
X159106019Y-78626922D01*
X159104874Y-78590495D01*
X159104874Y-78590494D01*
X159104625Y-78582575D01*
X159098945Y-78563025D01*
X159094942Y-78543692D01*
X159092389Y-78523485D01*
X159089470Y-78516113D01*
X159089469Y-78516108D01*
X159076056Y-78482230D01*
X159072212Y-78471003D01*
X159062046Y-78436015D01*
X159059833Y-78428398D01*
X159049472Y-78410878D01*
X159040777Y-78393131D01*
X159033285Y-78374208D01*
X159007211Y-78338320D01*
X159000693Y-78328398D01*
X158981147Y-78295347D01*
X158981145Y-78295344D01*
X158978105Y-78290204D01*
X158977567Y-78289595D01*
X158963529Y-78275557D01*
X158950688Y-78260523D01*
X158943575Y-78250732D01*
X158943572Y-78250729D01*
X158938915Y-78244319D01*
X158905133Y-78216372D01*
X158896354Y-78208382D01*
X155967855Y-75279882D01*
X155933829Y-75217570D01*
X155938894Y-75146754D01*
X155947827Y-75127795D01*
X155974524Y-75081554D01*
X156033538Y-74899927D01*
X156034349Y-74892216D01*
X156052810Y-74716565D01*
X156053500Y-74710000D01*
X156033538Y-74520073D01*
X155974524Y-74338446D01*
X155968780Y-74328496D01*
X155921583Y-74246749D01*
X155879037Y-74173058D01*
X155751251Y-74031137D01*
X155745909Y-74027256D01*
X155745907Y-74027254D01*
X155602092Y-73922767D01*
X155602091Y-73922766D01*
X155596750Y-73918886D01*
X155590722Y-73916202D01*
X155590720Y-73916201D01*
X155428318Y-73843895D01*
X155428317Y-73843895D01*
X155422287Y-73841210D01*
X155328887Y-73821357D01*
X155241944Y-73802876D01*
X155241939Y-73802876D01*
X155235487Y-73801504D01*
X155044513Y-73801504D01*
X155038061Y-73802876D01*
X155038056Y-73802876D01*
X154951113Y-73821357D01*
X154857713Y-73841210D01*
X154851683Y-73843895D01*
X154851682Y-73843895D01*
X154689280Y-73916201D01*
X154689278Y-73916202D01*
X154683250Y-73918886D01*
X154677909Y-73922766D01*
X154677908Y-73922767D01*
X154534093Y-74027254D01*
X154534091Y-74027256D01*
X154528749Y-74031137D01*
X154400963Y-74173058D01*
X154358417Y-74246749D01*
X154311221Y-74328496D01*
X154305476Y-74338446D01*
X154246462Y-74520073D01*
X154226500Y-74710000D01*
X154227190Y-74716565D01*
X154245652Y-74892216D01*
X154246462Y-74899927D01*
X154305476Y-75081554D01*
X154308779Y-75087276D01*
X154308780Y-75087277D01*
X154337278Y-75136637D01*
X154400963Y-75246942D01*
X154466745Y-75320000D01*
X154473738Y-75327767D01*
X154504456Y-75391774D01*
X154506040Y-75408119D01*
X154507386Y-75450956D01*
X154513066Y-75470506D01*
X154517069Y-75489839D01*
X154519622Y-75510046D01*
X154522541Y-75517418D01*
X154522542Y-75517423D01*
X154535955Y-75551301D01*
X154539799Y-75562528D01*
X154544889Y-75580046D01*
X154552178Y-75605133D01*
X154556213Y-75611956D01*
X154556214Y-75611958D01*
X154562539Y-75622653D01*
X154571234Y-75640400D01*
X154578726Y-75659323D01*
X154583387Y-75665739D01*
X154583388Y-75665740D01*
X154604799Y-75695209D01*
X154611318Y-75705133D01*
X154630878Y-75738209D01*
X154630885Y-75738218D01*
X154633906Y-75743327D01*
X154634443Y-75743936D01*
X154648485Y-75757978D01*
X154661325Y-75773011D01*
X154673096Y-75789212D01*
X154706867Y-75817150D01*
X154715646Y-75825139D01*
X155307690Y-76417183D01*
X155341716Y-76479495D01*
X155336651Y-76550310D01*
X155312231Y-76590588D01*
X155278302Y-76628270D01*
X155210963Y-76703058D01*
X155177019Y-76761850D01*
X155120247Y-76860183D01*
X155115476Y-76868446D01*
X155113434Y-76874731D01*
X155062050Y-77032876D01*
X155056462Y-77050073D01*
X155055772Y-77056636D01*
X155055772Y-77056637D01*
X155051571Y-77096607D01*
X155036500Y-77240000D01*
X155056462Y-77429927D01*
X155115476Y-77611554D01*
X155210963Y-77776942D01*
X155215381Y-77781849D01*
X155215382Y-77781850D01*
X155334327Y-77913952D01*
X155338749Y-77918863D01*
X155344091Y-77922744D01*
X155344093Y-77922746D01*
X155438332Y-77991214D01*
X155493250Y-78031114D01*
X155499278Y-78033798D01*
X155499280Y-78033799D01*
X155586566Y-78072661D01*
X155667713Y-78108790D01*
X155730863Y-78122213D01*
X155848056Y-78147124D01*
X155848061Y-78147124D01*
X155854513Y-78148496D01*
X155910402Y-78148496D01*
X155978523Y-78168498D01*
X155999497Y-78185401D01*
X157349595Y-79535499D01*
X157383621Y-79597811D01*
X157386500Y-79624594D01*
X157386500Y-85955593D01*
X157366498Y-86023714D01*
X157312842Y-86070207D01*
X157260500Y-86081593D01*
X157134602Y-86081593D01*
X157128150Y-86082965D01*
X157128145Y-86082965D01*
X157041202Y-86101446D01*
X156947802Y-86121299D01*
X156941772Y-86123984D01*
X156941771Y-86123984D01*
X156779369Y-86196290D01*
X156779367Y-86196291D01*
X156773339Y-86198975D01*
X156767998Y-86202855D01*
X156767997Y-86202856D01*
X156624182Y-86307343D01*
X156624180Y-86307345D01*
X156618838Y-86311226D01*
X156491052Y-86453147D01*
X156395565Y-86618535D01*
X156336551Y-86800162D01*
X156335861Y-86806725D01*
X156335861Y-86806726D01*
X156319518Y-86962218D01*
X156292505Y-87027875D01*
X156283303Y-87038142D01*
X152486137Y-90835308D01*
X152478104Y-90842619D01*
X152471730Y-90846664D01*
X152426061Y-90895297D01*
X152423306Y-90898139D01*
X152402646Y-90918799D01*
X152400221Y-90921925D01*
X152400215Y-90921932D01*
X152399904Y-90922334D01*
X152392194Y-90931361D01*
X152361825Y-90963702D01*
X152352023Y-90981532D01*
X152341170Y-90998054D01*
X152328694Y-91014137D01*
X152325547Y-91021410D01*
X152311071Y-91054861D01*
X152305854Y-91065510D01*
X152284478Y-91104394D01*
X152282507Y-91112072D01*
X152279419Y-91124099D01*
X152273014Y-91142808D01*
X152264932Y-91161484D01*
X152263693Y-91169309D01*
X152263692Y-91169311D01*
X152257991Y-91205306D01*
X152255584Y-91216927D01*
X152247913Y-91246807D01*
X152244551Y-91259902D01*
X152244500Y-91260713D01*
X152244500Y-91280574D01*
X152242949Y-91300284D01*
X152239817Y-91320059D01*
X152240563Y-91327951D01*
X152243941Y-91363690D01*
X152244500Y-91375547D01*
X152244500Y-96834577D01*
X152224498Y-96902698D01*
X152207595Y-96923673D01*
X151533671Y-97597596D01*
X151471359Y-97631621D01*
X151444576Y-97634500D01*
X150028425Y-97634500D01*
X149960304Y-97614498D01*
X149934794Y-97592815D01*
X149861251Y-97511137D01*
X149851151Y-97503799D01*
X149807797Y-97447577D01*
X149801721Y-97376841D01*
X149834853Y-97314049D01*
X149899015Y-97278617D01*
X149985821Y-97260165D01*
X149985826Y-97260163D01*
X149992287Y-97258790D01*
X149998318Y-97256105D01*
X150160720Y-97183799D01*
X150160722Y-97183798D01*
X150166750Y-97181114D01*
X150172092Y-97177233D01*
X150315907Y-97072746D01*
X150315909Y-97072744D01*
X150321251Y-97068863D01*
X150449037Y-96926942D01*
X150450022Y-96925235D01*
X150504885Y-96882933D01*
X150558800Y-96875418D01*
X150559911Y-96875666D01*
X150567837Y-96875417D01*
X150567838Y-96875417D01*
X150626866Y-96873562D01*
X150630823Y-96873500D01*
X150659578Y-96873500D01*
X150663845Y-96872961D01*
X150675687Y-96872028D01*
X150707335Y-96871033D01*
X150711960Y-96870888D01*
X150719883Y-96870639D01*
X150739334Y-96864988D01*
X150758695Y-96860978D01*
X150761420Y-96860634D01*
X150770930Y-96859433D01*
X150770933Y-96859432D01*
X150778788Y-96858440D01*
X150786153Y-96855524D01*
X150786157Y-96855523D01*
X150819901Y-96842163D01*
X150831130Y-96838318D01*
X150873578Y-96825986D01*
X150880406Y-96821948D01*
X150891011Y-96815677D01*
X150908762Y-96806981D01*
X150920226Y-96802442D01*
X150920229Y-96802440D01*
X150927600Y-96799522D01*
X150963368Y-96773535D01*
X150973291Y-96767016D01*
X151000204Y-96751100D01*
X151011341Y-96744514D01*
X151011759Y-96744145D01*
X151025842Y-96730062D01*
X151040867Y-96717228D01*
X151057083Y-96705446D01*
X151085030Y-96671664D01*
X151093019Y-96662885D01*
X151672513Y-96083391D01*
X151680601Y-96076031D01*
X151686995Y-96071973D01*
X151732870Y-96023121D01*
X151735624Y-96020280D01*
X151755938Y-95999966D01*
X151758583Y-95996555D01*
X151766289Y-95987533D01*
X151770692Y-95982845D01*
X151796557Y-95955301D01*
X151800376Y-95948355D01*
X151806318Y-95937547D01*
X151817172Y-95921023D01*
X151824725Y-95911286D01*
X151824725Y-95911285D01*
X151829583Y-95905023D01*
X151847142Y-95864447D01*
X151852363Y-95853790D01*
X151854703Y-95849533D01*
X151873662Y-95815048D01*
X151875635Y-95807364D01*
X151878699Y-95795432D01*
X151885103Y-95776728D01*
X151889999Y-95765415D01*
X151890001Y-95765408D01*
X151893148Y-95758136D01*
X151900065Y-95714465D01*
X151902472Y-95702844D01*
X151911987Y-95665782D01*
X151911987Y-95665781D01*
X151913465Y-95660025D01*
X151913500Y-95659469D01*
X151913500Y-95639548D01*
X151915051Y-95619838D01*
X151916944Y-95607886D01*
X151916944Y-95607885D01*
X151918184Y-95600056D01*
X151914059Y-95556417D01*
X151913500Y-95544560D01*
X151913500Y-85404574D01*
X151933502Y-85336453D01*
X151987158Y-85289960D01*
X152013302Y-85281328D01*
X152018919Y-85280134D01*
X152072287Y-85268790D01*
X152138726Y-85239209D01*
X152240720Y-85193799D01*
X152240722Y-85193798D01*
X152246750Y-85191114D01*
X152252092Y-85187233D01*
X152395907Y-85082746D01*
X152395909Y-85082744D01*
X152401251Y-85078863D01*
X152405673Y-85073952D01*
X152524618Y-84941850D01*
X152524619Y-84941849D01*
X152529037Y-84936942D01*
X152624524Y-84771554D01*
X152683538Y-84589927D01*
X152703500Y-84400000D01*
X152688842Y-84260535D01*
X152684228Y-84216637D01*
X152684228Y-84216636D01*
X152683538Y-84210073D01*
X152624524Y-84028446D01*
X152529037Y-83863058D01*
X152401251Y-83721137D01*
X152395909Y-83717256D01*
X152395907Y-83717254D01*
X152252092Y-83612767D01*
X152252091Y-83612766D01*
X152246750Y-83608886D01*
X152240722Y-83606202D01*
X152240720Y-83606201D01*
X152078318Y-83533895D01*
X152078317Y-83533895D01*
X152072287Y-83531210D01*
X151958479Y-83507019D01*
X151891944Y-83492876D01*
X151891939Y-83492876D01*
X151885487Y-83491504D01*
X151694513Y-83491504D01*
X151688061Y-83492876D01*
X151688056Y-83492876D01*
X151621521Y-83507019D01*
X151507713Y-83531210D01*
X151501683Y-83533895D01*
X151501682Y-83533895D01*
X151339280Y-83606201D01*
X151339278Y-83606202D01*
X151333250Y-83608886D01*
X151327909Y-83612766D01*
X151327908Y-83612767D01*
X151184093Y-83717254D01*
X151184091Y-83717256D01*
X151178749Y-83721137D01*
X151050963Y-83863058D01*
X150955476Y-84028446D01*
X150896462Y-84210073D01*
X150895772Y-84216636D01*
X150895772Y-84216637D01*
X150879239Y-84373938D01*
X150852226Y-84439594D01*
X150845779Y-84447020D01*
X150827131Y-84466878D01*
X150824376Y-84469720D01*
X150804062Y-84490034D01*
X150801417Y-84493445D01*
X150793713Y-84502465D01*
X150763443Y-84534699D01*
X150759626Y-84541643D01*
X150759624Y-84541645D01*
X150753682Y-84552453D01*
X150742828Y-84568977D01*
X150730417Y-84584977D01*
X150727270Y-84592248D01*
X150727270Y-84592249D01*
X150712859Y-84625551D01*
X150707638Y-84636207D01*
X150686338Y-84674952D01*
X150684366Y-84682635D01*
X150684365Y-84682636D01*
X150681301Y-84694568D01*
X150674897Y-84713272D01*
X150670001Y-84724585D01*
X150669999Y-84724592D01*
X150666852Y-84731864D01*
X150665613Y-84739688D01*
X150665612Y-84739691D01*
X150659935Y-84775535D01*
X150657528Y-84787156D01*
X150648013Y-84824218D01*
X150646535Y-84829975D01*
X150646500Y-84830531D01*
X150646500Y-84850452D01*
X150644949Y-84870162D01*
X150641816Y-84889944D01*
X150642562Y-84897836D01*
X150645941Y-84933582D01*
X150646500Y-84945440D01*
X150646500Y-93972631D01*
X150626498Y-94040752D01*
X150572842Y-94087245D01*
X150502568Y-94097349D01*
X150469251Y-94087738D01*
X150348318Y-94033895D01*
X150348317Y-94033895D01*
X150342287Y-94031210D01*
X150248887Y-94011357D01*
X150161944Y-93992876D01*
X150161939Y-93992876D01*
X150155487Y-93991504D01*
X150102426Y-93991504D01*
X150034305Y-93971502D01*
X150013331Y-93954599D01*
X149022405Y-92963672D01*
X148988379Y-92901360D01*
X148985500Y-92874577D01*
X148985500Y-84833859D01*
X149005502Y-84765738D01*
X149022405Y-84744764D01*
X150323081Y-83444088D01*
X150331114Y-83436777D01*
X150337488Y-83432732D01*
X150383158Y-83384098D01*
X150385912Y-83381257D01*
X150406572Y-83360597D01*
X150408997Y-83357471D01*
X150409003Y-83357464D01*
X150409314Y-83357062D01*
X150417025Y-83348033D01*
X150441969Y-83321470D01*
X150447393Y-83315694D01*
X150457195Y-83297864D01*
X150468049Y-83281341D01*
X150480524Y-83265259D01*
X150498147Y-83224533D01*
X150503362Y-83213888D01*
X150524740Y-83175002D01*
X150526710Y-83167329D01*
X150526714Y-83167319D01*
X150529802Y-83155291D01*
X150536205Y-83136587D01*
X150541140Y-83125182D01*
X150541141Y-83125179D01*
X150544286Y-83117911D01*
X150546742Y-83102404D01*
X150551227Y-83074089D01*
X150553634Y-83062468D01*
X150563190Y-83025250D01*
X150563191Y-83025241D01*
X150564667Y-83019494D01*
X150564718Y-83018683D01*
X150564718Y-82998828D01*
X150566269Y-82979117D01*
X150568162Y-82967165D01*
X150569402Y-82959336D01*
X150565277Y-82915697D01*
X150564718Y-82903840D01*
X150564718Y-82456205D01*
X150584720Y-82388084D01*
X150601623Y-82367110D01*
X152113863Y-80854870D01*
X152121896Y-80847559D01*
X152128270Y-80843514D01*
X152173940Y-80794880D01*
X152176694Y-80792039D01*
X152197354Y-80771379D01*
X152199779Y-80768253D01*
X152199785Y-80768246D01*
X152200096Y-80767844D01*
X152207807Y-80758815D01*
X152232751Y-80732252D01*
X152238175Y-80726476D01*
X152247977Y-80708646D01*
X152258831Y-80692123D01*
X152265890Y-80683023D01*
X152271306Y-80676041D01*
X152288930Y-80635315D01*
X152294146Y-80624668D01*
X152315522Y-80585784D01*
X152320581Y-80566079D01*
X152326986Y-80547370D01*
X152331921Y-80535967D01*
X152331922Y-80535964D01*
X152335068Y-80528694D01*
X152338221Y-80508790D01*
X152342009Y-80484872D01*
X152344416Y-80473251D01*
X152353971Y-80436032D01*
X152355449Y-80430276D01*
X152355500Y-80429465D01*
X152355500Y-80409604D01*
X152357051Y-80389894D01*
X152358943Y-80377948D01*
X152360183Y-80370119D01*
X152356059Y-80326490D01*
X152355500Y-80314634D01*
X152355500Y-79785423D01*
X152375502Y-79717302D01*
X152392405Y-79696328D01*
X152993863Y-79094870D01*
X153001896Y-79087559D01*
X153008270Y-79083514D01*
X153053940Y-79034880D01*
X153056694Y-79032039D01*
X153077354Y-79011379D01*
X153079779Y-79008253D01*
X153079785Y-79008246D01*
X153080096Y-79007844D01*
X153087807Y-78998815D01*
X153112751Y-78972252D01*
X153118175Y-78966476D01*
X153127977Y-78948646D01*
X153138831Y-78932123D01*
X153146373Y-78922400D01*
X153151306Y-78916041D01*
X153168930Y-78875315D01*
X153174146Y-78864668D01*
X153195522Y-78825784D01*
X153200581Y-78806079D01*
X153206986Y-78787370D01*
X153211921Y-78775967D01*
X153211922Y-78775964D01*
X153215068Y-78768694D01*
X153220959Y-78731504D01*
X153222009Y-78724872D01*
X153224416Y-78713251D01*
X153233971Y-78676032D01*
X153235449Y-78670276D01*
X153235500Y-78669465D01*
X153235500Y-78649604D01*
X153237051Y-78629894D01*
X153238943Y-78617948D01*
X153240183Y-78610119D01*
X153236059Y-78566488D01*
X153235500Y-78554631D01*
X153235500Y-74823859D01*
X153255502Y-74755738D01*
X153272405Y-74734764D01*
X154431706Y-73575463D01*
X154439739Y-73568152D01*
X154446113Y-73564107D01*
X154491783Y-73515473D01*
X154494537Y-73512632D01*
X154515197Y-73491972D01*
X154517622Y-73488846D01*
X154517628Y-73488839D01*
X154517939Y-73488437D01*
X154525650Y-73479408D01*
X154535288Y-73469145D01*
X154556018Y-73447069D01*
X154565820Y-73429239D01*
X154576674Y-73412716D01*
X154579481Y-73409097D01*
X154589149Y-73396634D01*
X154606773Y-73355908D01*
X154611989Y-73345261D01*
X154633365Y-73306377D01*
X154638424Y-73286672D01*
X154644829Y-73267963D01*
X154649764Y-73256560D01*
X154649765Y-73256557D01*
X154652911Y-73249287D01*
X154654674Y-73238160D01*
X154659852Y-73205465D01*
X154662259Y-73193844D01*
X154671814Y-73156625D01*
X154673292Y-73150869D01*
X154673343Y-73150058D01*
X154673343Y-73130197D01*
X154674894Y-73110487D01*
X154676786Y-73098541D01*
X154678026Y-73090712D01*
X154674105Y-73049229D01*
X154673902Y-73047081D01*
X154673343Y-73035224D01*
X154673343Y-72253396D01*
X154693345Y-72185275D01*
X154704119Y-72170884D01*
X154763922Y-72101868D01*
X154763925Y-72101863D01*
X154769827Y-72095052D01*
X154794585Y-72040839D01*
X154826801Y-71970297D01*
X154826801Y-71970296D01*
X154830543Y-71962103D01*
X154836557Y-71920275D01*
X154850704Y-71821881D01*
X154850705Y-71821874D01*
X154851343Y-71817433D01*
X154851343Y-69968932D01*
X154871345Y-69900811D01*
X154925001Y-69854318D01*
X154977319Y-69842932D01*
X155253517Y-69842882D01*
X155276549Y-69845001D01*
G37*
G04 #@! TD.AperFunction*
G04 #@! TA.AperFunction,Conductor*
G36*
X149826253Y-79313817D02*
G01*
X149883089Y-79356364D01*
X149907900Y-79422884D01*
X149906023Y-79450027D01*
X149906462Y-79450073D01*
X149886500Y-79640000D01*
X149906462Y-79829927D01*
X149908502Y-79836205D01*
X149908502Y-79836206D01*
X149930164Y-79902876D01*
X149965476Y-80011554D01*
X150060963Y-80176942D01*
X150065381Y-80181849D01*
X150065382Y-80181850D01*
X150177477Y-80306344D01*
X150188749Y-80318863D01*
X150194091Y-80322744D01*
X150194093Y-80322746D01*
X150258982Y-80369890D01*
X150343250Y-80431114D01*
X150349278Y-80433798D01*
X150349280Y-80433799D01*
X150373834Y-80444731D01*
X150450401Y-80478821D01*
X150504496Y-80524800D01*
X150525145Y-80592727D01*
X150505793Y-80661035D01*
X150488250Y-80683017D01*
X149535344Y-81635923D01*
X149527322Y-81643223D01*
X149520948Y-81647268D01*
X149491347Y-81678790D01*
X149475279Y-81695901D01*
X149472524Y-81698743D01*
X149451864Y-81719403D01*
X149449439Y-81722529D01*
X149449433Y-81722536D01*
X149449122Y-81722938D01*
X149441412Y-81731965D01*
X149411043Y-81764306D01*
X149401241Y-81782136D01*
X149390388Y-81798658D01*
X149377912Y-81814741D01*
X149374765Y-81822014D01*
X149360289Y-81855465D01*
X149355072Y-81866114D01*
X149333696Y-81904998D01*
X149331725Y-81912676D01*
X149328637Y-81924703D01*
X149322232Y-81943412D01*
X149314150Y-81962088D01*
X149312911Y-81969913D01*
X149312910Y-81969915D01*
X149307209Y-82005910D01*
X149304802Y-82017531D01*
X149297265Y-82046889D01*
X149293769Y-82060506D01*
X149293718Y-82061317D01*
X149293718Y-82081178D01*
X149292167Y-82100888D01*
X149289035Y-82120663D01*
X149289781Y-82128555D01*
X149293159Y-82164294D01*
X149293718Y-82176151D01*
X149293718Y-82209971D01*
X149273716Y-82278092D01*
X149220060Y-82324585D01*
X149149786Y-82334689D01*
X149085206Y-82305195D01*
X149078219Y-82298341D01*
X149075673Y-82296048D01*
X149071251Y-82291137D01*
X149065909Y-82287256D01*
X149065907Y-82287254D01*
X148922092Y-82182767D01*
X148922091Y-82182766D01*
X148916750Y-82178886D01*
X148910722Y-82176202D01*
X148910720Y-82176201D01*
X148748318Y-82103895D01*
X148748317Y-82103895D01*
X148742287Y-82101210D01*
X148633795Y-82078149D01*
X148561944Y-82062876D01*
X148561939Y-82062876D01*
X148555487Y-82061504D01*
X148364513Y-82061504D01*
X148358061Y-82062876D01*
X148358056Y-82062876D01*
X148286205Y-82078149D01*
X148177713Y-82101210D01*
X148171683Y-82103895D01*
X148171682Y-82103895D01*
X148009280Y-82176201D01*
X148009278Y-82176202D01*
X148003250Y-82178886D01*
X147997909Y-82182766D01*
X147997908Y-82182767D01*
X147854093Y-82287254D01*
X147854091Y-82287256D01*
X147848749Y-82291137D01*
X147844328Y-82296047D01*
X147844327Y-82296048D01*
X147842263Y-82298341D01*
X147720963Y-82433058D01*
X147625476Y-82598446D01*
X147566462Y-82780073D01*
X147546500Y-82970000D01*
X147547190Y-82976565D01*
X147551293Y-83015598D01*
X147566462Y-83159927D01*
X147568502Y-83166205D01*
X147568502Y-83166206D01*
X147587455Y-83224536D01*
X147625476Y-83341554D01*
X147628779Y-83347276D01*
X147628780Y-83347277D01*
X147681172Y-83438023D01*
X147697910Y-83507019D01*
X147674689Y-83574110D01*
X147661149Y-83590118D01*
X147416130Y-83835138D01*
X147408103Y-83842442D01*
X147401730Y-83846486D01*
X147396302Y-83852267D01*
X147396300Y-83852268D01*
X147356061Y-83895119D01*
X147353306Y-83897961D01*
X147332646Y-83918621D01*
X147330221Y-83921747D01*
X147330215Y-83921754D01*
X147329904Y-83922156D01*
X147322194Y-83931183D01*
X147291825Y-83963524D01*
X147282023Y-83981354D01*
X147271170Y-83997876D01*
X147258694Y-84013959D01*
X147252425Y-84028446D01*
X147241071Y-84054683D01*
X147235854Y-84065332D01*
X147214478Y-84104216D01*
X147212507Y-84111894D01*
X147209419Y-84123921D01*
X147203014Y-84142630D01*
X147194932Y-84161306D01*
X147193693Y-84169131D01*
X147193692Y-84169133D01*
X147187991Y-84205128D01*
X147185584Y-84216749D01*
X147177913Y-84246629D01*
X147174551Y-84259724D01*
X147174500Y-84260535D01*
X147174500Y-84280396D01*
X147172949Y-84300106D01*
X147169817Y-84319881D01*
X147170563Y-84327773D01*
X147173941Y-84363512D01*
X147174500Y-84375369D01*
X147174500Y-90496083D01*
X147154498Y-90564204D01*
X147100842Y-90610697D01*
X147030568Y-90620801D01*
X147022301Y-90619329D01*
X146991948Y-90612877D01*
X146991945Y-90612877D01*
X146985487Y-90611504D01*
X146794513Y-90611504D01*
X146788061Y-90612876D01*
X146788056Y-90612876D01*
X146701113Y-90631357D01*
X146607713Y-90651210D01*
X146601683Y-90653895D01*
X146601682Y-90653895D01*
X146439280Y-90726201D01*
X146439278Y-90726202D01*
X146433250Y-90728886D01*
X146427909Y-90732766D01*
X146427908Y-90732767D01*
X146284093Y-90837254D01*
X146284091Y-90837256D01*
X146278749Y-90841137D01*
X146162142Y-90970643D01*
X146153136Y-90980645D01*
X146092690Y-91017885D01*
X146021707Y-91016533D01*
X145962722Y-90977020D01*
X145934464Y-90911889D01*
X145933500Y-90896335D01*
X145933500Y-83154594D01*
X145953502Y-83086473D01*
X145970405Y-83065499D01*
X149693126Y-79342778D01*
X149755438Y-79308752D01*
X149826253Y-79313817D01*
G37*
G04 #@! TD.AperFunction*
G04 #@! TA.AperFunction,Conductor*
G36*
X151731723Y-72128003D02*
G01*
X151742495Y-72142391D01*
X151744893Y-72146122D01*
X151749766Y-72153704D01*
X151756576Y-72159605D01*
X151853412Y-72243515D01*
X151853415Y-72243517D01*
X151860224Y-72249417D01*
X151868422Y-72253161D01*
X151948784Y-72289861D01*
X151993173Y-72310133D01*
X152002088Y-72311415D01*
X152002089Y-72311415D01*
X152133395Y-72330294D01*
X152133402Y-72330295D01*
X152137843Y-72330933D01*
X152476343Y-72330933D01*
X152544464Y-72350935D01*
X152590957Y-72404591D01*
X152602343Y-72456933D01*
X152602343Y-72836734D01*
X152582341Y-72904855D01*
X152565438Y-72925829D01*
X151626137Y-73865130D01*
X151618104Y-73872441D01*
X151611730Y-73876486D01*
X151571914Y-73918886D01*
X151566061Y-73925119D01*
X151563306Y-73927961D01*
X151542646Y-73948621D01*
X151540221Y-73951747D01*
X151540215Y-73951754D01*
X151539904Y-73952156D01*
X151532194Y-73961183D01*
X151501825Y-73993524D01*
X151492023Y-74011354D01*
X151481170Y-74027876D01*
X151468694Y-74043959D01*
X151465547Y-74051232D01*
X151451071Y-74084683D01*
X151445854Y-74095332D01*
X151424478Y-74134216D01*
X151422507Y-74141894D01*
X151419419Y-74153921D01*
X151413014Y-74172630D01*
X151404932Y-74191306D01*
X151403693Y-74199131D01*
X151403692Y-74199133D01*
X151397991Y-74235128D01*
X151395584Y-74246749D01*
X151387913Y-74276629D01*
X151384551Y-74289724D01*
X151384500Y-74290535D01*
X151384500Y-74310396D01*
X151382949Y-74330106D01*
X151379817Y-74349881D01*
X151380563Y-74357773D01*
X151383941Y-74393512D01*
X151384500Y-74405369D01*
X151384500Y-78104577D01*
X151364498Y-78172698D01*
X151347595Y-78193672D01*
X150846668Y-78694599D01*
X150784356Y-78728625D01*
X150757573Y-78731504D01*
X150704513Y-78731504D01*
X150698060Y-78732876D01*
X150698047Y-78732877D01*
X150612469Y-78751068D01*
X150541679Y-78745667D01*
X150485046Y-78702850D01*
X150460552Y-78636213D01*
X150475973Y-78566911D01*
X150497177Y-78538727D01*
X150513781Y-78522123D01*
X150516426Y-78518712D01*
X150524132Y-78509690D01*
X150548976Y-78483234D01*
X150554400Y-78477458D01*
X150558219Y-78470512D01*
X150564161Y-78459704D01*
X150575015Y-78443180D01*
X150582568Y-78433443D01*
X150582568Y-78433442D01*
X150587426Y-78427180D01*
X150604985Y-78386604D01*
X150610206Y-78375947D01*
X150614690Y-78367791D01*
X150631505Y-78337205D01*
X150633766Y-78328398D01*
X150636542Y-78317589D01*
X150642946Y-78298885D01*
X150647842Y-78287572D01*
X150647844Y-78287565D01*
X150650991Y-78280293D01*
X150654123Y-78260523D01*
X150657908Y-78236622D01*
X150660315Y-78225001D01*
X150669830Y-78187939D01*
X150669830Y-78187938D01*
X150671308Y-78182182D01*
X150671343Y-78181626D01*
X150671343Y-78161705D01*
X150672894Y-78141995D01*
X150674787Y-78130043D01*
X150674787Y-78130042D01*
X150676027Y-78122213D01*
X150671902Y-78078574D01*
X150671343Y-78066717D01*
X150671343Y-72456933D01*
X150691345Y-72388812D01*
X150745001Y-72342319D01*
X150797343Y-72330933D01*
X151137843Y-72330933D01*
X151210922Y-72325706D01*
X151314609Y-72295261D01*
X151342513Y-72287068D01*
X151342515Y-72287067D01*
X151351159Y-72284529D01*
X151429545Y-72234153D01*
X151466534Y-72210382D01*
X151466537Y-72210380D01*
X151474114Y-72205510D01*
X151482409Y-72195938D01*
X151541275Y-72128003D01*
X151601001Y-72089619D01*
X151671997Y-72089619D01*
X151731723Y-72128003D01*
G37*
G04 #@! TD.AperFunction*
G04 #@! TA.AperFunction,Conductor*
G36*
X142131723Y-72128002D02*
G01*
X142142495Y-72142391D01*
X142144893Y-72146122D01*
X142149766Y-72153704D01*
X142156576Y-72159605D01*
X142253412Y-72243515D01*
X142253415Y-72243517D01*
X142260224Y-72249417D01*
X142268422Y-72253161D01*
X142348784Y-72289861D01*
X142393173Y-72310133D01*
X142402088Y-72311415D01*
X142402089Y-72311415D01*
X142533395Y-72330294D01*
X142533402Y-72330295D01*
X142537843Y-72330933D01*
X143137843Y-72330933D01*
X143210922Y-72325706D01*
X143217405Y-72323802D01*
X143224047Y-72322604D01*
X143224295Y-72323981D01*
X143267821Y-72320866D01*
X143333384Y-72330293D01*
X143333399Y-72330294D01*
X143337843Y-72330933D01*
X143459679Y-72330933D01*
X143527800Y-72350935D01*
X143574293Y-72404591D01*
X143584397Y-72474865D01*
X143554903Y-72539445D01*
X143510928Y-72572040D01*
X143389280Y-72626201D01*
X143389278Y-72626202D01*
X143383250Y-72628886D01*
X143377909Y-72632766D01*
X143377908Y-72632767D01*
X143234093Y-72737254D01*
X143234091Y-72737256D01*
X143228749Y-72741137D01*
X143224328Y-72746047D01*
X143224327Y-72746048D01*
X143107775Y-72875493D01*
X143100963Y-72883058D01*
X143066690Y-72942420D01*
X143009679Y-73041167D01*
X143005476Y-73048446D01*
X143003434Y-73054731D01*
X142954458Y-73205465D01*
X142946462Y-73230073D01*
X142945772Y-73236636D01*
X142945772Y-73236637D01*
X142931073Y-73376490D01*
X142926500Y-73420000D01*
X142927190Y-73426565D01*
X142941747Y-73565062D01*
X142946462Y-73609927D01*
X142948502Y-73616205D01*
X142948502Y-73616206D01*
X142972088Y-73688797D01*
X143005476Y-73791554D01*
X143008779Y-73797276D01*
X143008780Y-73797277D01*
X143012013Y-73802876D01*
X143100963Y-73956942D01*
X143105381Y-73961849D01*
X143105382Y-73961850D01*
X143164272Y-74027254D01*
X143228749Y-74098863D01*
X143234091Y-74102744D01*
X143234093Y-74102746D01*
X143330281Y-74172630D01*
X143383250Y-74211114D01*
X143389278Y-74213798D01*
X143389280Y-74213799D01*
X143551682Y-74286105D01*
X143557713Y-74288790D01*
X143651113Y-74308643D01*
X143738056Y-74327124D01*
X143738061Y-74327124D01*
X143744513Y-74328496D01*
X143800402Y-74328496D01*
X143868523Y-74348498D01*
X143889497Y-74365401D01*
X144810905Y-75286809D01*
X144844931Y-75349121D01*
X144839866Y-75419936D01*
X144795871Y-75477839D01*
X144708749Y-75541137D01*
X144704326Y-75546049D01*
X144699425Y-75550462D01*
X144697781Y-75548637D01*
X144646812Y-75580046D01*
X144613607Y-75584500D01*
X143135423Y-75584500D01*
X143067302Y-75564498D01*
X143046328Y-75547595D01*
X141910248Y-74411515D01*
X141876222Y-74349203D01*
X141873343Y-74322420D01*
X141873343Y-72253396D01*
X141893345Y-72185275D01*
X141904118Y-72170884D01*
X141933281Y-72137228D01*
X141941275Y-72128002D01*
X142001000Y-72089619D01*
X142071996Y-72089619D01*
X142131723Y-72128002D01*
G37*
G04 #@! TD.AperFunction*
M02*
