G04 #@! TF.GenerationSoftware,KiCad,Pcbnew,5.1.9-73d0e3b20d~88~ubuntu20.04.1*
G04 #@! TF.CreationDate,2021-01-21T11:25:07+01:00*
G04 #@! TF.ProjectId,lorawan_e78-868ln22s_minipci,6c6f7261-7761-46e5-9f65-37382d383638,V1.0*
G04 #@! TF.SameCoordinates,Original*
G04 #@! TF.FileFunction,Soldermask,Top*
G04 #@! TF.FilePolarity,Negative*
%FSLAX46Y46*%
G04 Gerber Fmt 4.6, Leading zero omitted, Abs format (unit mm)*
G04 Created by KiCad (PCBNEW 5.1.9-73d0e3b20d~88~ubuntu20.04.1) date 2021-01-21 11:25:07*
%MOMM*%
%LPD*%
G01*
G04 APERTURE LIST*
%ADD10C,2.620000*%
%ADD11C,3.020000*%
%ADD12C,1.544000*%
%ADD13O,0.700000X1.650000*%
%ADD14C,0.807400*%
%ADD15C,1.110600*%
G04 APERTURE END LIST*
G36*
G01*
X156257500Y-79870000D02*
X155982500Y-79870000D01*
G75*
G02*
X155845000Y-79732500I0J137500D01*
G01*
X155845000Y-79207500D01*
G75*
G02*
X155982500Y-79070000I137500J0D01*
G01*
X156257500Y-79070000D01*
G75*
G02*
X156395000Y-79207500I0J-137500D01*
G01*
X156395000Y-79732500D01*
G75*
G02*
X156257500Y-79870000I-137500J0D01*
G01*
G37*
G36*
G01*
X157207500Y-79870000D02*
X156932500Y-79870000D01*
G75*
G02*
X156795000Y-79732500I0J137500D01*
G01*
X156795000Y-79207500D01*
G75*
G02*
X156932500Y-79070000I137500J0D01*
G01*
X157207500Y-79070000D01*
G75*
G02*
X157345000Y-79207500I0J-137500D01*
G01*
X157345000Y-79732500D01*
G75*
G02*
X157207500Y-79870000I-137500J0D01*
G01*
G37*
G36*
G01*
X158157500Y-79870000D02*
X157882500Y-79870000D01*
G75*
G02*
X157745000Y-79732500I0J137500D01*
G01*
X157745000Y-79207500D01*
G75*
G02*
X157882500Y-79070000I137500J0D01*
G01*
X158157500Y-79070000D01*
G75*
G02*
X158295000Y-79207500I0J-137500D01*
G01*
X158295000Y-79732500D01*
G75*
G02*
X158157500Y-79870000I-137500J0D01*
G01*
G37*
G36*
G01*
X158157500Y-82270000D02*
X157882500Y-82270000D01*
G75*
G02*
X157745000Y-82132500I0J137500D01*
G01*
X157745000Y-81607500D01*
G75*
G02*
X157882500Y-81470000I137500J0D01*
G01*
X158157500Y-81470000D01*
G75*
G02*
X158295000Y-81607500I0J-137500D01*
G01*
X158295000Y-82132500D01*
G75*
G02*
X158157500Y-82270000I-137500J0D01*
G01*
G37*
G36*
G01*
X157207500Y-82270000D02*
X156932500Y-82270000D01*
G75*
G02*
X156795000Y-82132500I0J137500D01*
G01*
X156795000Y-81607500D01*
G75*
G02*
X156932500Y-81470000I137500J0D01*
G01*
X157207500Y-81470000D01*
G75*
G02*
X157345000Y-81607500I0J-137500D01*
G01*
X157345000Y-82132500D01*
G75*
G02*
X157207500Y-82270000I-137500J0D01*
G01*
G37*
G36*
G01*
X156257500Y-82270000D02*
X155982500Y-82270000D01*
G75*
G02*
X155845000Y-82132500I0J137500D01*
G01*
X155845000Y-81607500D01*
G75*
G02*
X155982500Y-81470000I137500J0D01*
G01*
X156257500Y-81470000D01*
G75*
G02*
X156395000Y-81607500I0J-137500D01*
G01*
X156395000Y-82132500D01*
G75*
G02*
X156257500Y-82270000I-137500J0D01*
G01*
G37*
G36*
G01*
X164285000Y-83820000D02*
X164285000Y-83370000D01*
G75*
G02*
X164315000Y-83340000I30000J0D01*
G01*
X165765000Y-83340000D01*
G75*
G02*
X165795000Y-83370000I0J-30000D01*
G01*
X165795000Y-83820000D01*
G75*
G02*
X165765000Y-83850000I-30000J0D01*
G01*
X164315000Y-83850000D01*
G75*
G02*
X164285000Y-83820000I0J30000D01*
G01*
G37*
G36*
G01*
X164285000Y-84470000D02*
X164285000Y-84020000D01*
G75*
G02*
X164315000Y-83990000I30000J0D01*
G01*
X165765000Y-83990000D01*
G75*
G02*
X165795000Y-84020000I0J-30000D01*
G01*
X165795000Y-84470000D01*
G75*
G02*
X165765000Y-84500000I-30000J0D01*
G01*
X164315000Y-84500000D01*
G75*
G02*
X164285000Y-84470000I0J30000D01*
G01*
G37*
G36*
G01*
X164285000Y-85120000D02*
X164285000Y-84670000D01*
G75*
G02*
X164315000Y-84640000I30000J0D01*
G01*
X165765000Y-84640000D01*
G75*
G02*
X165795000Y-84670000I0J-30000D01*
G01*
X165795000Y-85120000D01*
G75*
G02*
X165765000Y-85150000I-30000J0D01*
G01*
X164315000Y-85150000D01*
G75*
G02*
X164285000Y-85120000I0J30000D01*
G01*
G37*
G36*
G01*
X164285000Y-85770000D02*
X164285000Y-85320000D01*
G75*
G02*
X164315000Y-85290000I30000J0D01*
G01*
X165765000Y-85290000D01*
G75*
G02*
X165795000Y-85320000I0J-30000D01*
G01*
X165795000Y-85770000D01*
G75*
G02*
X165765000Y-85800000I-30000J0D01*
G01*
X164315000Y-85800000D01*
G75*
G02*
X164285000Y-85770000I0J30000D01*
G01*
G37*
G36*
G01*
X159885000Y-85770000D02*
X159885000Y-85320000D01*
G75*
G02*
X159915000Y-85290000I30000J0D01*
G01*
X161365000Y-85290000D01*
G75*
G02*
X161395000Y-85320000I0J-30000D01*
G01*
X161395000Y-85770000D01*
G75*
G02*
X161365000Y-85800000I-30000J0D01*
G01*
X159915000Y-85800000D01*
G75*
G02*
X159885000Y-85770000I0J30000D01*
G01*
G37*
G36*
G01*
X159885000Y-85120000D02*
X159885000Y-84670000D01*
G75*
G02*
X159915000Y-84640000I30000J0D01*
G01*
X161365000Y-84640000D01*
G75*
G02*
X161395000Y-84670000I0J-30000D01*
G01*
X161395000Y-85120000D01*
G75*
G02*
X161365000Y-85150000I-30000J0D01*
G01*
X159915000Y-85150000D01*
G75*
G02*
X159885000Y-85120000I0J30000D01*
G01*
G37*
G36*
G01*
X159885000Y-84470000D02*
X159885000Y-84020000D01*
G75*
G02*
X159915000Y-83990000I30000J0D01*
G01*
X161365000Y-83990000D01*
G75*
G02*
X161395000Y-84020000I0J-30000D01*
G01*
X161395000Y-84470000D01*
G75*
G02*
X161365000Y-84500000I-30000J0D01*
G01*
X159915000Y-84500000D01*
G75*
G02*
X159885000Y-84470000I0J30000D01*
G01*
G37*
G36*
G01*
X159885000Y-83820000D02*
X159885000Y-83370000D01*
G75*
G02*
X159915000Y-83340000I30000J0D01*
G01*
X161365000Y-83340000D01*
G75*
G02*
X161395000Y-83370000I0J-30000D01*
G01*
X161395000Y-83820000D01*
G75*
G02*
X161365000Y-83850000I-30000J0D01*
G01*
X159915000Y-83850000D01*
G75*
G02*
X159885000Y-83820000I0J30000D01*
G01*
G37*
G36*
G01*
X148810000Y-97090000D02*
X147810000Y-97090000D01*
G75*
G02*
X147800000Y-97080000I0J10000D01*
G01*
X147800000Y-96280000D01*
G75*
G02*
X147810000Y-96270000I10000J0D01*
G01*
X148810000Y-96270000D01*
G75*
G02*
X148820000Y-96280000I0J-10000D01*
G01*
X148820000Y-97080000D01*
G75*
G02*
X148810000Y-97090000I-10000J0D01*
G01*
G37*
G36*
G01*
X148810000Y-98690000D02*
X147810000Y-98690000D01*
G75*
G02*
X147800000Y-98680000I0J10000D01*
G01*
X147800000Y-97880000D01*
G75*
G02*
X147810000Y-97870000I10000J0D01*
G01*
X148810000Y-97870000D01*
G75*
G02*
X148820000Y-97880000I0J-10000D01*
G01*
X148820000Y-98680000D01*
G75*
G02*
X148810000Y-98690000I-10000J0D01*
G01*
G37*
D10*
X141037843Y-117317433D03*
X165237843Y-117317433D03*
G36*
G01*
X141947843Y-69817433D02*
X141947843Y-71817433D01*
G75*
G02*
X141937843Y-71827433I-10000J0D01*
G01*
X141337843Y-71827433D01*
G75*
G02*
X141327843Y-71817433I0J10000D01*
G01*
X141327843Y-69817433D01*
G75*
G02*
X141337843Y-69807433I10000J0D01*
G01*
X141937843Y-69807433D01*
G75*
G02*
X141947843Y-69817433I0J-10000D01*
G01*
G37*
G36*
G01*
X142747843Y-69817433D02*
X142747843Y-71817433D01*
G75*
G02*
X142737843Y-71827433I-10000J0D01*
G01*
X142137843Y-71827433D01*
G75*
G02*
X142127843Y-71817433I0J10000D01*
G01*
X142127843Y-69817433D01*
G75*
G02*
X142137843Y-69807433I10000J0D01*
G01*
X142737843Y-69807433D01*
G75*
G02*
X142747843Y-69817433I0J-10000D01*
G01*
G37*
G36*
G01*
X143547843Y-69817433D02*
X143547843Y-71817433D01*
G75*
G02*
X143537843Y-71827433I-10000J0D01*
G01*
X142937843Y-71827433D01*
G75*
G02*
X142927843Y-71817433I0J10000D01*
G01*
X142927843Y-69817433D01*
G75*
G02*
X142937843Y-69807433I10000J0D01*
G01*
X143537843Y-69807433D01*
G75*
G02*
X143547843Y-69817433I0J-10000D01*
G01*
G37*
G36*
G01*
X144347843Y-69817433D02*
X144347843Y-71817433D01*
G75*
G02*
X144337843Y-71827433I-10000J0D01*
G01*
X143737843Y-71827433D01*
G75*
G02*
X143727843Y-71817433I0J10000D01*
G01*
X143727843Y-69817433D01*
G75*
G02*
X143737843Y-69807433I10000J0D01*
G01*
X144337843Y-69807433D01*
G75*
G02*
X144347843Y-69817433I0J-10000D01*
G01*
G37*
G36*
G01*
X145147843Y-69817433D02*
X145147843Y-71817433D01*
G75*
G02*
X145137843Y-71827433I-10000J0D01*
G01*
X144537843Y-71827433D01*
G75*
G02*
X144527843Y-71817433I0J10000D01*
G01*
X144527843Y-69817433D01*
G75*
G02*
X144537843Y-69807433I10000J0D01*
G01*
X145137843Y-69807433D01*
G75*
G02*
X145147843Y-69817433I0J-10000D01*
G01*
G37*
G36*
G01*
X145947843Y-69817433D02*
X145947843Y-71817433D01*
G75*
G02*
X145937843Y-71827433I-10000J0D01*
G01*
X145337843Y-71827433D01*
G75*
G02*
X145327843Y-71817433I0J10000D01*
G01*
X145327843Y-69817433D01*
G75*
G02*
X145337843Y-69807433I10000J0D01*
G01*
X145937843Y-69807433D01*
G75*
G02*
X145947843Y-69817433I0J-10000D01*
G01*
G37*
G36*
G01*
X146747843Y-69817433D02*
X146747843Y-71817433D01*
G75*
G02*
X146737843Y-71827433I-10000J0D01*
G01*
X146137843Y-71827433D01*
G75*
G02*
X146127843Y-71817433I0J10000D01*
G01*
X146127843Y-69817433D01*
G75*
G02*
X146137843Y-69807433I10000J0D01*
G01*
X146737843Y-69807433D01*
G75*
G02*
X146747843Y-69817433I0J-10000D01*
G01*
G37*
G36*
G01*
X147547843Y-69817433D02*
X147547843Y-71817433D01*
G75*
G02*
X147537843Y-71827433I-10000J0D01*
G01*
X146937843Y-71827433D01*
G75*
G02*
X146927843Y-71817433I0J10000D01*
G01*
X146927843Y-69817433D01*
G75*
G02*
X146937843Y-69807433I10000J0D01*
G01*
X147537843Y-69807433D01*
G75*
G02*
X147547843Y-69817433I0J-10000D01*
G01*
G37*
G36*
G01*
X148347843Y-69817433D02*
X148347843Y-71817433D01*
G75*
G02*
X148337843Y-71827433I-10000J0D01*
G01*
X147737843Y-71827433D01*
G75*
G02*
X147727843Y-71817433I0J10000D01*
G01*
X147727843Y-69817433D01*
G75*
G02*
X147737843Y-69807433I10000J0D01*
G01*
X148337843Y-69807433D01*
G75*
G02*
X148347843Y-69817433I0J-10000D01*
G01*
G37*
G36*
G01*
X149147843Y-69817433D02*
X149147843Y-71817433D01*
G75*
G02*
X149137843Y-71827433I-10000J0D01*
G01*
X148537843Y-71827433D01*
G75*
G02*
X148527843Y-71817433I0J10000D01*
G01*
X148527843Y-69817433D01*
G75*
G02*
X148537843Y-69807433I10000J0D01*
G01*
X149137843Y-69807433D01*
G75*
G02*
X149147843Y-69817433I0J-10000D01*
G01*
G37*
G36*
G01*
X149947843Y-69817433D02*
X149947843Y-71817433D01*
G75*
G02*
X149937843Y-71827433I-10000J0D01*
G01*
X149337843Y-71827433D01*
G75*
G02*
X149327843Y-71817433I0J10000D01*
G01*
X149327843Y-69817433D01*
G75*
G02*
X149337843Y-69807433I10000J0D01*
G01*
X149937843Y-69807433D01*
G75*
G02*
X149947843Y-69817433I0J-10000D01*
G01*
G37*
G36*
G01*
X150747843Y-69817433D02*
X150747843Y-71817433D01*
G75*
G02*
X150737843Y-71827433I-10000J0D01*
G01*
X150137843Y-71827433D01*
G75*
G02*
X150127843Y-71817433I0J10000D01*
G01*
X150127843Y-69817433D01*
G75*
G02*
X150137843Y-69807433I10000J0D01*
G01*
X150737843Y-69807433D01*
G75*
G02*
X150747843Y-69817433I0J-10000D01*
G01*
G37*
G36*
G01*
X151547843Y-69817433D02*
X151547843Y-71817433D01*
G75*
G02*
X151537843Y-71827433I-10000J0D01*
G01*
X150937843Y-71827433D01*
G75*
G02*
X150927843Y-71817433I0J10000D01*
G01*
X150927843Y-69817433D01*
G75*
G02*
X150937843Y-69807433I10000J0D01*
G01*
X151537843Y-69807433D01*
G75*
G02*
X151547843Y-69817433I0J-10000D01*
G01*
G37*
G36*
G01*
X152347843Y-69817433D02*
X152347843Y-71817433D01*
G75*
G02*
X152337843Y-71827433I-10000J0D01*
G01*
X151737843Y-71827433D01*
G75*
G02*
X151727843Y-71817433I0J10000D01*
G01*
X151727843Y-69817433D01*
G75*
G02*
X151737843Y-69807433I10000J0D01*
G01*
X152337843Y-69807433D01*
G75*
G02*
X152347843Y-69817433I0J-10000D01*
G01*
G37*
G36*
G01*
X153147843Y-69817433D02*
X153147843Y-71817433D01*
G75*
G02*
X153137843Y-71827433I-10000J0D01*
G01*
X152537843Y-71827433D01*
G75*
G02*
X152527843Y-71817433I0J10000D01*
G01*
X152527843Y-69817433D01*
G75*
G02*
X152537843Y-69807433I10000J0D01*
G01*
X153137843Y-69807433D01*
G75*
G02*
X153147843Y-69817433I0J-10000D01*
G01*
G37*
G36*
G01*
X153947843Y-69817433D02*
X153947843Y-71817433D01*
G75*
G02*
X153937843Y-71827433I-10000J0D01*
G01*
X153337843Y-71827433D01*
G75*
G02*
X153327843Y-71817433I0J10000D01*
G01*
X153327843Y-69817433D01*
G75*
G02*
X153337843Y-69807433I10000J0D01*
G01*
X153937843Y-69807433D01*
G75*
G02*
X153947843Y-69817433I0J-10000D01*
G01*
G37*
G36*
G01*
X154747843Y-69817433D02*
X154747843Y-71817433D01*
G75*
G02*
X154737843Y-71827433I-10000J0D01*
G01*
X154137843Y-71827433D01*
G75*
G02*
X154127843Y-71817433I0J10000D01*
G01*
X154127843Y-69817433D01*
G75*
G02*
X154137843Y-69807433I10000J0D01*
G01*
X154737843Y-69807433D01*
G75*
G02*
X154747843Y-69817433I0J-10000D01*
G01*
G37*
G36*
G01*
X155547843Y-69817433D02*
X155547843Y-71817433D01*
G75*
G02*
X155537843Y-71827433I-10000J0D01*
G01*
X154937843Y-71827433D01*
G75*
G02*
X154927843Y-71817433I0J10000D01*
G01*
X154927843Y-69817433D01*
G75*
G02*
X154937843Y-69807433I10000J0D01*
G01*
X155537843Y-69807433D01*
G75*
G02*
X155547843Y-69817433I0J-10000D01*
G01*
G37*
G36*
G01*
X159547843Y-69817433D02*
X159547843Y-71817433D01*
G75*
G02*
X159537843Y-71827433I-10000J0D01*
G01*
X158937843Y-71827433D01*
G75*
G02*
X158927843Y-71817433I0J10000D01*
G01*
X158927843Y-69817433D01*
G75*
G02*
X158937843Y-69807433I10000J0D01*
G01*
X159537843Y-69807433D01*
G75*
G02*
X159547843Y-69817433I0J-10000D01*
G01*
G37*
G36*
G01*
X160347843Y-69817433D02*
X160347843Y-71817433D01*
G75*
G02*
X160337843Y-71827433I-10000J0D01*
G01*
X159737843Y-71827433D01*
G75*
G02*
X159727843Y-71817433I0J10000D01*
G01*
X159727843Y-69817433D01*
G75*
G02*
X159737843Y-69807433I10000J0D01*
G01*
X160337843Y-69807433D01*
G75*
G02*
X160347843Y-69817433I0J-10000D01*
G01*
G37*
G36*
G01*
X161147843Y-69817433D02*
X161147843Y-71817433D01*
G75*
G02*
X161137843Y-71827433I-10000J0D01*
G01*
X160537843Y-71827433D01*
G75*
G02*
X160527843Y-71817433I0J10000D01*
G01*
X160527843Y-69817433D01*
G75*
G02*
X160537843Y-69807433I10000J0D01*
G01*
X161137843Y-69807433D01*
G75*
G02*
X161147843Y-69817433I0J-10000D01*
G01*
G37*
G36*
G01*
X161947843Y-69817433D02*
X161947843Y-71817433D01*
G75*
G02*
X161937843Y-71827433I-10000J0D01*
G01*
X161337843Y-71827433D01*
G75*
G02*
X161327843Y-71817433I0J10000D01*
G01*
X161327843Y-69817433D01*
G75*
G02*
X161337843Y-69807433I10000J0D01*
G01*
X161937843Y-69807433D01*
G75*
G02*
X161947843Y-69817433I0J-10000D01*
G01*
G37*
G36*
G01*
X162747843Y-69817433D02*
X162747843Y-71817433D01*
G75*
G02*
X162737843Y-71827433I-10000J0D01*
G01*
X162137843Y-71827433D01*
G75*
G02*
X162127843Y-71817433I0J10000D01*
G01*
X162127843Y-69817433D01*
G75*
G02*
X162137843Y-69807433I10000J0D01*
G01*
X162737843Y-69807433D01*
G75*
G02*
X162747843Y-69817433I0J-10000D01*
G01*
G37*
G36*
G01*
X163547843Y-69817433D02*
X163547843Y-71817433D01*
G75*
G02*
X163537843Y-71827433I-10000J0D01*
G01*
X162937843Y-71827433D01*
G75*
G02*
X162927843Y-71817433I0J10000D01*
G01*
X162927843Y-69817433D01*
G75*
G02*
X162937843Y-69807433I10000J0D01*
G01*
X163537843Y-69807433D01*
G75*
G02*
X163547843Y-69817433I0J-10000D01*
G01*
G37*
G36*
G01*
X164347843Y-69817433D02*
X164347843Y-71817433D01*
G75*
G02*
X164337843Y-71827433I-10000J0D01*
G01*
X163737843Y-71827433D01*
G75*
G02*
X163727843Y-71817433I0J10000D01*
G01*
X163727843Y-69817433D01*
G75*
G02*
X163737843Y-69807433I10000J0D01*
G01*
X164337843Y-69807433D01*
G75*
G02*
X164347843Y-69817433I0J-10000D01*
G01*
G37*
G36*
G01*
X165147843Y-69817433D02*
X165147843Y-71817433D01*
G75*
G02*
X165137843Y-71827433I-10000J0D01*
G01*
X164537843Y-71827433D01*
G75*
G02*
X164527843Y-71817433I0J10000D01*
G01*
X164527843Y-69817433D01*
G75*
G02*
X164537843Y-69807433I10000J0D01*
G01*
X165137843Y-69807433D01*
G75*
G02*
X165147843Y-69817433I0J-10000D01*
G01*
G37*
X148930000Y-115810000D03*
D11*
X146390000Y-113270000D03*
X151470000Y-113270000D03*
X146390000Y-118350000D03*
X151470000Y-118350000D03*
G36*
G01*
X150650000Y-92740000D02*
X150650000Y-91940000D01*
G75*
G02*
X150700000Y-91890000I50000J0D01*
G01*
X152200000Y-91890000D01*
G75*
G02*
X152250000Y-91940000I0J-50000D01*
G01*
X152250000Y-92740000D01*
G75*
G02*
X152200000Y-92790000I-50000J0D01*
G01*
X150700000Y-92790000D01*
G75*
G02*
X150650000Y-92740000I0J50000D01*
G01*
G37*
G36*
G01*
X152250000Y-91420000D02*
X152250000Y-90820000D01*
G75*
G02*
X152300000Y-90770000I50000J0D01*
G01*
X152900000Y-90770000D01*
G75*
G02*
X152950000Y-90820000I0J-50000D01*
G01*
X152950000Y-91420000D01*
G75*
G02*
X152900000Y-91470000I-50000J0D01*
G01*
X152300000Y-91470000D01*
G75*
G02*
X152250000Y-91420000I0J50000D01*
G01*
G37*
G36*
G01*
X150650000Y-94010000D02*
X150650000Y-93210000D01*
G75*
G02*
X150700000Y-93160000I50000J0D01*
G01*
X152200000Y-93160000D01*
G75*
G02*
X152250000Y-93210000I0J-50000D01*
G01*
X152250000Y-94010000D01*
G75*
G02*
X152200000Y-94060000I-50000J0D01*
G01*
X150700000Y-94060000D01*
G75*
G02*
X150650000Y-94010000I0J50000D01*
G01*
G37*
G36*
G01*
X150650000Y-95280000D02*
X150650000Y-94480000D01*
G75*
G02*
X150700000Y-94430000I50000J0D01*
G01*
X152200000Y-94430000D01*
G75*
G02*
X152250000Y-94480000I0J-50000D01*
G01*
X152250000Y-95280000D01*
G75*
G02*
X152200000Y-95330000I-50000J0D01*
G01*
X150700000Y-95330000D01*
G75*
G02*
X150650000Y-95280000I0J50000D01*
G01*
G37*
G36*
G01*
X150650000Y-96550000D02*
X150650000Y-95750000D01*
G75*
G02*
X150700000Y-95700000I50000J0D01*
G01*
X152200000Y-95700000D01*
G75*
G02*
X152250000Y-95750000I0J-50000D01*
G01*
X152250000Y-96550000D01*
G75*
G02*
X152200000Y-96600000I-50000J0D01*
G01*
X150700000Y-96600000D01*
G75*
G02*
X150650000Y-96550000I0J50000D01*
G01*
G37*
G36*
G01*
X150650000Y-97820000D02*
X150650000Y-97020000D01*
G75*
G02*
X150700000Y-96970000I50000J0D01*
G01*
X152200000Y-96970000D01*
G75*
G02*
X152250000Y-97020000I0J-50000D01*
G01*
X152250000Y-97820000D01*
G75*
G02*
X152200000Y-97870000I-50000J0D01*
G01*
X150700000Y-97870000D01*
G75*
G02*
X150650000Y-97820000I0J50000D01*
G01*
G37*
G36*
G01*
X150650000Y-99090000D02*
X150650000Y-98290000D01*
G75*
G02*
X150700000Y-98240000I50000J0D01*
G01*
X152200000Y-98240000D01*
G75*
G02*
X152250000Y-98290000I0J-50000D01*
G01*
X152250000Y-99090000D01*
G75*
G02*
X152200000Y-99140000I-50000J0D01*
G01*
X150700000Y-99140000D01*
G75*
G02*
X150650000Y-99090000I0J50000D01*
G01*
G37*
G36*
G01*
X150650000Y-100360000D02*
X150650000Y-99560000D01*
G75*
G02*
X150700000Y-99510000I50000J0D01*
G01*
X152200000Y-99510000D01*
G75*
G02*
X152250000Y-99560000I0J-50000D01*
G01*
X152250000Y-100360000D01*
G75*
G02*
X152200000Y-100410000I-50000J0D01*
G01*
X150700000Y-100410000D01*
G75*
G02*
X150650000Y-100360000I0J50000D01*
G01*
G37*
G36*
G01*
X150650000Y-101630000D02*
X150650000Y-100830000D01*
G75*
G02*
X150700000Y-100780000I50000J0D01*
G01*
X152200000Y-100780000D01*
G75*
G02*
X152250000Y-100830000I0J-50000D01*
G01*
X152250000Y-101630000D01*
G75*
G02*
X152200000Y-101680000I-50000J0D01*
G01*
X150700000Y-101680000D01*
G75*
G02*
X150650000Y-101630000I0J50000D01*
G01*
G37*
G36*
G01*
X150650000Y-102900000D02*
X150650000Y-102100000D01*
G75*
G02*
X150700000Y-102050000I50000J0D01*
G01*
X152200000Y-102050000D01*
G75*
G02*
X152250000Y-102100000I0J-50000D01*
G01*
X152250000Y-102900000D01*
G75*
G02*
X152200000Y-102950000I-50000J0D01*
G01*
X150700000Y-102950000D01*
G75*
G02*
X150650000Y-102900000I0J50000D01*
G01*
G37*
G36*
G01*
X164650000Y-102900000D02*
X164650000Y-102100000D01*
G75*
G02*
X164700000Y-102050000I50000J0D01*
G01*
X166200000Y-102050000D01*
G75*
G02*
X166250000Y-102100000I0J-50000D01*
G01*
X166250000Y-102900000D01*
G75*
G02*
X166200000Y-102950000I-50000J0D01*
G01*
X164700000Y-102950000D01*
G75*
G02*
X164650000Y-102900000I0J50000D01*
G01*
G37*
G36*
G01*
X164650000Y-97820000D02*
X164650000Y-97020000D01*
G75*
G02*
X164700000Y-96970000I50000J0D01*
G01*
X166200000Y-96970000D01*
G75*
G02*
X166250000Y-97020000I0J-50000D01*
G01*
X166250000Y-97820000D01*
G75*
G02*
X166200000Y-97870000I-50000J0D01*
G01*
X164700000Y-97870000D01*
G75*
G02*
X164650000Y-97820000I0J50000D01*
G01*
G37*
G36*
G01*
X164650000Y-101630000D02*
X164650000Y-100830000D01*
G75*
G02*
X164700000Y-100780000I50000J0D01*
G01*
X166200000Y-100780000D01*
G75*
G02*
X166250000Y-100830000I0J-50000D01*
G01*
X166250000Y-101630000D01*
G75*
G02*
X166200000Y-101680000I-50000J0D01*
G01*
X164700000Y-101680000D01*
G75*
G02*
X164650000Y-101630000I0J50000D01*
G01*
G37*
G36*
G01*
X164650000Y-100360000D02*
X164650000Y-99560000D01*
G75*
G02*
X164700000Y-99510000I50000J0D01*
G01*
X166200000Y-99510000D01*
G75*
G02*
X166250000Y-99560000I0J-50000D01*
G01*
X166250000Y-100360000D01*
G75*
G02*
X166200000Y-100410000I-50000J0D01*
G01*
X164700000Y-100410000D01*
G75*
G02*
X164650000Y-100360000I0J50000D01*
G01*
G37*
G36*
G01*
X164650000Y-94010000D02*
X164650000Y-93210000D01*
G75*
G02*
X164700000Y-93160000I50000J0D01*
G01*
X166200000Y-93160000D01*
G75*
G02*
X166250000Y-93210000I0J-50000D01*
G01*
X166250000Y-94010000D01*
G75*
G02*
X166200000Y-94060000I-50000J0D01*
G01*
X164700000Y-94060000D01*
G75*
G02*
X164650000Y-94010000I0J50000D01*
G01*
G37*
G36*
G01*
X164650000Y-92740000D02*
X164650000Y-91940000D01*
G75*
G02*
X164700000Y-91890000I50000J0D01*
G01*
X166200000Y-91890000D01*
G75*
G02*
X166250000Y-91940000I0J-50000D01*
G01*
X166250000Y-92740000D01*
G75*
G02*
X166200000Y-92790000I-50000J0D01*
G01*
X164700000Y-92790000D01*
G75*
G02*
X164650000Y-92740000I0J50000D01*
G01*
G37*
G36*
G01*
X164650000Y-95280000D02*
X164650000Y-94480000D01*
G75*
G02*
X164700000Y-94430000I50000J0D01*
G01*
X166200000Y-94430000D01*
G75*
G02*
X166250000Y-94480000I0J-50000D01*
G01*
X166250000Y-95280000D01*
G75*
G02*
X166200000Y-95330000I-50000J0D01*
G01*
X164700000Y-95330000D01*
G75*
G02*
X164650000Y-95280000I0J50000D01*
G01*
G37*
G36*
G01*
X164650000Y-96550000D02*
X164650000Y-95750000D01*
G75*
G02*
X164700000Y-95700000I50000J0D01*
G01*
X166200000Y-95700000D01*
G75*
G02*
X166250000Y-95750000I0J-50000D01*
G01*
X166250000Y-96550000D01*
G75*
G02*
X166200000Y-96600000I-50000J0D01*
G01*
X164700000Y-96600000D01*
G75*
G02*
X164650000Y-96550000I0J50000D01*
G01*
G37*
G36*
G01*
X164650000Y-99090000D02*
X164650000Y-98290000D01*
G75*
G02*
X164700000Y-98240000I50000J0D01*
G01*
X166200000Y-98240000D01*
G75*
G02*
X166250000Y-98290000I0J-50000D01*
G01*
X166250000Y-99090000D01*
G75*
G02*
X166200000Y-99140000I-50000J0D01*
G01*
X164700000Y-99140000D01*
G75*
G02*
X164650000Y-99090000I0J50000D01*
G01*
G37*
G36*
G01*
X150650000Y-109470000D02*
X150650000Y-108670000D01*
G75*
G02*
X150700000Y-108620000I50000J0D01*
G01*
X152200000Y-108620000D01*
G75*
G02*
X152250000Y-108670000I0J-50000D01*
G01*
X152250000Y-109470000D01*
G75*
G02*
X152200000Y-109520000I-50000J0D01*
G01*
X150700000Y-109520000D01*
G75*
G02*
X150650000Y-109470000I0J50000D01*
G01*
G37*
G36*
G01*
X150650000Y-108200000D02*
X150650000Y-107400000D01*
G75*
G02*
X150700000Y-107350000I50000J0D01*
G01*
X152200000Y-107350000D01*
G75*
G02*
X152250000Y-107400000I0J-50000D01*
G01*
X152250000Y-108200000D01*
G75*
G02*
X152200000Y-108250000I-50000J0D01*
G01*
X150700000Y-108250000D01*
G75*
G02*
X150650000Y-108200000I0J50000D01*
G01*
G37*
G36*
G01*
X150650000Y-106930000D02*
X150650000Y-106130000D01*
G75*
G02*
X150700000Y-106080000I50000J0D01*
G01*
X152200000Y-106080000D01*
G75*
G02*
X152250000Y-106130000I0J-50000D01*
G01*
X152250000Y-106930000D01*
G75*
G02*
X152200000Y-106980000I-50000J0D01*
G01*
X150700000Y-106980000D01*
G75*
G02*
X150650000Y-106930000I0J50000D01*
G01*
G37*
G36*
G01*
X164650000Y-108200000D02*
X164650000Y-107400000D01*
G75*
G02*
X164700000Y-107350000I50000J0D01*
G01*
X166200000Y-107350000D01*
G75*
G02*
X166250000Y-107400000I0J-50000D01*
G01*
X166250000Y-108200000D01*
G75*
G02*
X166200000Y-108250000I-50000J0D01*
G01*
X164700000Y-108250000D01*
G75*
G02*
X164650000Y-108200000I0J50000D01*
G01*
G37*
G36*
G01*
X164650000Y-109470000D02*
X164650000Y-108670000D01*
G75*
G02*
X164700000Y-108620000I50000J0D01*
G01*
X166200000Y-108620000D01*
G75*
G02*
X166250000Y-108670000I0J-50000D01*
G01*
X166250000Y-109470000D01*
G75*
G02*
X166200000Y-109520000I-50000J0D01*
G01*
X164700000Y-109520000D01*
G75*
G02*
X164650000Y-109470000I0J50000D01*
G01*
G37*
G36*
G01*
X164650000Y-106930000D02*
X164650000Y-106130000D01*
G75*
G02*
X164700000Y-106080000I50000J0D01*
G01*
X166200000Y-106080000D01*
G75*
G02*
X166250000Y-106130000I0J-50000D01*
G01*
X166250000Y-106930000D01*
G75*
G02*
X166200000Y-106980000I-50000J0D01*
G01*
X164700000Y-106980000D01*
G75*
G02*
X164650000Y-106930000I0J50000D01*
G01*
G37*
D12*
X155580000Y-98680000D03*
X154150000Y-96785000D03*
X156680000Y-96150000D03*
X154180000Y-94245000D03*
G36*
G01*
X148730000Y-90300000D02*
X147730000Y-90300000D01*
G75*
G02*
X147720000Y-90290000I0J10000D01*
G01*
X147720000Y-89690000D01*
G75*
G02*
X147730000Y-89680000I10000J0D01*
G01*
X148730000Y-89680000D01*
G75*
G02*
X148740000Y-89690000I0J-10000D01*
G01*
X148740000Y-90290000D01*
G75*
G02*
X148730000Y-90300000I-10000J0D01*
G01*
G37*
G36*
G01*
X148730000Y-91700000D02*
X147730000Y-91700000D01*
G75*
G02*
X147720000Y-91690000I0J10000D01*
G01*
X147720000Y-91090000D01*
G75*
G02*
X147730000Y-91080000I10000J0D01*
G01*
X148730000Y-91080000D01*
G75*
G02*
X148740000Y-91090000I0J-10000D01*
G01*
X148740000Y-91690000D01*
G75*
G02*
X148730000Y-91700000I-10000J0D01*
G01*
G37*
G36*
G01*
X150160000Y-91710000D02*
X149160000Y-91710000D01*
G75*
G02*
X149150000Y-91700000I0J10000D01*
G01*
X149150000Y-91100000D01*
G75*
G02*
X149160000Y-91090000I10000J0D01*
G01*
X150160000Y-91090000D01*
G75*
G02*
X150170000Y-91100000I0J-10000D01*
G01*
X150170000Y-91700000D01*
G75*
G02*
X150160000Y-91710000I-10000J0D01*
G01*
G37*
G36*
G01*
X150160000Y-90310000D02*
X149160000Y-90310000D01*
G75*
G02*
X149150000Y-90300000I0J10000D01*
G01*
X149150000Y-89700000D01*
G75*
G02*
X149160000Y-89690000I10000J0D01*
G01*
X150160000Y-89690000D01*
G75*
G02*
X150170000Y-89700000I0J-10000D01*
G01*
X150170000Y-90300000D01*
G75*
G02*
X150160000Y-90310000I-10000J0D01*
G01*
G37*
G36*
G01*
X149630000Y-92250000D02*
X149630000Y-93250000D01*
G75*
G02*
X149620000Y-93260000I-10000J0D01*
G01*
X149020000Y-93260000D01*
G75*
G02*
X149010000Y-93250000I0J10000D01*
G01*
X149010000Y-92250000D01*
G75*
G02*
X149020000Y-92240000I10000J0D01*
G01*
X149620000Y-92240000D01*
G75*
G02*
X149630000Y-92250000I0J-10000D01*
G01*
G37*
G36*
G01*
X148230000Y-92250000D02*
X148230000Y-93250000D01*
G75*
G02*
X148220000Y-93260000I-10000J0D01*
G01*
X147620000Y-93260000D01*
G75*
G02*
X147610000Y-93250000I0J10000D01*
G01*
X147610000Y-92250000D01*
G75*
G02*
X147620000Y-92240000I10000J0D01*
G01*
X148220000Y-92240000D01*
G75*
G02*
X148230000Y-92250000I0J-10000D01*
G01*
G37*
G36*
G01*
X143190000Y-93970000D02*
X144190000Y-93970000D01*
G75*
G02*
X144200000Y-93980000I0J-10000D01*
G01*
X144200000Y-94580000D01*
G75*
G02*
X144190000Y-94590000I-10000J0D01*
G01*
X143190000Y-94590000D01*
G75*
G02*
X143180000Y-94580000I0J10000D01*
G01*
X143180000Y-93980000D01*
G75*
G02*
X143190000Y-93970000I10000J0D01*
G01*
G37*
G36*
G01*
X143190000Y-95370000D02*
X144190000Y-95370000D01*
G75*
G02*
X144200000Y-95380000I0J-10000D01*
G01*
X144200000Y-95980000D01*
G75*
G02*
X144190000Y-95990000I-10000J0D01*
G01*
X143190000Y-95990000D01*
G75*
G02*
X143180000Y-95980000I0J10000D01*
G01*
X143180000Y-95380000D01*
G75*
G02*
X143190000Y-95370000I10000J0D01*
G01*
G37*
G36*
G01*
X144590000Y-95380000D02*
X145590000Y-95380000D01*
G75*
G02*
X145600000Y-95390000I0J-10000D01*
G01*
X145600000Y-95990000D01*
G75*
G02*
X145590000Y-96000000I-10000J0D01*
G01*
X144590000Y-96000000D01*
G75*
G02*
X144580000Y-95990000I0J10000D01*
G01*
X144580000Y-95390000D01*
G75*
G02*
X144590000Y-95380000I10000J0D01*
G01*
G37*
G36*
G01*
X144590000Y-93980000D02*
X145590000Y-93980000D01*
G75*
G02*
X145600000Y-93990000I0J-10000D01*
G01*
X145600000Y-94590000D01*
G75*
G02*
X145590000Y-94600000I-10000J0D01*
G01*
X144590000Y-94600000D01*
G75*
G02*
X144580000Y-94590000I0J10000D01*
G01*
X144580000Y-93990000D01*
G75*
G02*
X144590000Y-93980000I10000J0D01*
G01*
G37*
G36*
G01*
X148570000Y-95660000D02*
X148570000Y-94660000D01*
G75*
G02*
X148580000Y-94650000I10000J0D01*
G01*
X149180000Y-94650000D01*
G75*
G02*
X149190000Y-94660000I0J-10000D01*
G01*
X149190000Y-95660000D01*
G75*
G02*
X149180000Y-95670000I-10000J0D01*
G01*
X148580000Y-95670000D01*
G75*
G02*
X148570000Y-95660000I0J10000D01*
G01*
G37*
G36*
G01*
X147170000Y-95660000D02*
X147170000Y-94660000D01*
G75*
G02*
X147180000Y-94650000I10000J0D01*
G01*
X147780000Y-94650000D01*
G75*
G02*
X147790000Y-94660000I0J-10000D01*
G01*
X147790000Y-95660000D01*
G75*
G02*
X147780000Y-95670000I-10000J0D01*
G01*
X147180000Y-95670000D01*
G75*
G02*
X147170000Y-95660000I0J10000D01*
G01*
G37*
G36*
G01*
X157020000Y-86070000D02*
X157020000Y-85070000D01*
G75*
G02*
X157030000Y-85060000I10000J0D01*
G01*
X157630000Y-85060000D01*
G75*
G02*
X157640000Y-85070000I0J-10000D01*
G01*
X157640000Y-86070000D01*
G75*
G02*
X157630000Y-86080000I-10000J0D01*
G01*
X157030000Y-86080000D01*
G75*
G02*
X157020000Y-86070000I0J10000D01*
G01*
G37*
G36*
G01*
X158420000Y-86070000D02*
X158420000Y-85070000D01*
G75*
G02*
X158430000Y-85060000I10000J0D01*
G01*
X159030000Y-85060000D01*
G75*
G02*
X159040000Y-85070000I0J-10000D01*
G01*
X159040000Y-86070000D01*
G75*
G02*
X159030000Y-86080000I-10000J0D01*
G01*
X158430000Y-86080000D01*
G75*
G02*
X158420000Y-86070000I0J10000D01*
G01*
G37*
D13*
X144955000Y-102750000D03*
X143685000Y-102750000D03*
X142415000Y-102750000D03*
X141145000Y-102750000D03*
X141145000Y-97350000D03*
X142415000Y-97350000D03*
X143685000Y-97350000D03*
X144955000Y-97350000D03*
G36*
G01*
X163810000Y-81450000D02*
X163810000Y-82450000D01*
G75*
G02*
X163800000Y-82460000I-10000J0D01*
G01*
X163200000Y-82460000D01*
G75*
G02*
X163190000Y-82450000I0J10000D01*
G01*
X163190000Y-81450000D01*
G75*
G02*
X163200000Y-81440000I10000J0D01*
G01*
X163800000Y-81440000D01*
G75*
G02*
X163810000Y-81450000I0J-10000D01*
G01*
G37*
G36*
G01*
X162410000Y-81450000D02*
X162410000Y-82450000D01*
G75*
G02*
X162400000Y-82460000I-10000J0D01*
G01*
X161800000Y-82460000D01*
G75*
G02*
X161790000Y-82450000I0J10000D01*
G01*
X161790000Y-81450000D01*
G75*
G02*
X161800000Y-81440000I10000J0D01*
G01*
X162400000Y-81440000D01*
G75*
G02*
X162410000Y-81450000I0J-10000D01*
G01*
G37*
G36*
G01*
X142880000Y-104150000D02*
X142880000Y-105150000D01*
G75*
G02*
X142870000Y-105160000I-10000J0D01*
G01*
X142270000Y-105160000D01*
G75*
G02*
X142260000Y-105150000I0J10000D01*
G01*
X142260000Y-104150000D01*
G75*
G02*
X142270000Y-104140000I10000J0D01*
G01*
X142870000Y-104140000D01*
G75*
G02*
X142880000Y-104150000I0J-10000D01*
G01*
G37*
G36*
G01*
X144280000Y-104150000D02*
X144280000Y-105150000D01*
G75*
G02*
X144270000Y-105160000I-10000J0D01*
G01*
X143670000Y-105160000D01*
G75*
G02*
X143660000Y-105150000I0J10000D01*
G01*
X143660000Y-104150000D01*
G75*
G02*
X143670000Y-104140000I10000J0D01*
G01*
X144270000Y-104140000D01*
G75*
G02*
X144280000Y-104150000I0J-10000D01*
G01*
G37*
G36*
G01*
X149010000Y-82200000D02*
X148010000Y-82200000D01*
G75*
G02*
X148000000Y-82190000I0J10000D01*
G01*
X148000000Y-81590000D01*
G75*
G02*
X148010000Y-81580000I10000J0D01*
G01*
X149010000Y-81580000D01*
G75*
G02*
X149020000Y-81590000I0J-10000D01*
G01*
X149020000Y-82190000D01*
G75*
G02*
X149010000Y-82200000I-10000J0D01*
G01*
G37*
G36*
G01*
X149010000Y-80800000D02*
X148010000Y-80800000D01*
G75*
G02*
X148000000Y-80790000I0J10000D01*
G01*
X148000000Y-80190000D01*
G75*
G02*
X148010000Y-80180000I10000J0D01*
G01*
X149010000Y-80180000D01*
G75*
G02*
X149020000Y-80190000I0J-10000D01*
G01*
X149020000Y-80790000D01*
G75*
G02*
X149010000Y-80800000I-10000J0D01*
G01*
G37*
G36*
G01*
X158260000Y-78130000D02*
X157260000Y-78130000D01*
G75*
G02*
X157250000Y-78120000I0J10000D01*
G01*
X157250000Y-77520000D01*
G75*
G02*
X157260000Y-77510000I10000J0D01*
G01*
X158260000Y-77510000D01*
G75*
G02*
X158270000Y-77520000I0J-10000D01*
G01*
X158270000Y-78120000D01*
G75*
G02*
X158260000Y-78130000I-10000J0D01*
G01*
G37*
G36*
G01*
X158260000Y-76730000D02*
X157260000Y-76730000D01*
G75*
G02*
X157250000Y-76720000I0J10000D01*
G01*
X157250000Y-76120000D01*
G75*
G02*
X157260000Y-76110000I10000J0D01*
G01*
X158260000Y-76110000D01*
G75*
G02*
X158270000Y-76120000I0J-10000D01*
G01*
X158270000Y-76720000D01*
G75*
G02*
X158260000Y-76730000I-10000J0D01*
G01*
G37*
G36*
G01*
X155800000Y-76730000D02*
X154800000Y-76730000D01*
G75*
G02*
X154790000Y-76720000I0J10000D01*
G01*
X154790000Y-76120000D01*
G75*
G02*
X154800000Y-76110000I10000J0D01*
G01*
X155800000Y-76110000D01*
G75*
G02*
X155810000Y-76120000I0J-10000D01*
G01*
X155810000Y-76720000D01*
G75*
G02*
X155800000Y-76730000I-10000J0D01*
G01*
G37*
G36*
G01*
X155800000Y-78130000D02*
X154800000Y-78130000D01*
G75*
G02*
X154790000Y-78120000I0J10000D01*
G01*
X154790000Y-77520000D01*
G75*
G02*
X154800000Y-77510000I10000J0D01*
G01*
X155800000Y-77510000D01*
G75*
G02*
X155810000Y-77520000I0J-10000D01*
G01*
X155810000Y-78120000D01*
G75*
G02*
X155800000Y-78130000I-10000J0D01*
G01*
G37*
D14*
X145615000Y-84800000D03*
X145615000Y-83530000D03*
X145615000Y-82260000D03*
X144345000Y-84800000D03*
X144345000Y-83530000D03*
X144345000Y-82260000D03*
X144345000Y-86070000D03*
X144345000Y-87340000D03*
X145615000Y-86070000D03*
X145615000Y-87340000D03*
D15*
X144980000Y-88610000D03*
X145995000Y-80990000D03*
X143965001Y-80990000D03*
M02*
